<?xml version="1.0" encoding="utf-8"?>
<!-- Generator: Adobe Illustrator 26.0.1, SVG Export Plug-In . SVG Version: 6.00 Build 0)  -->
<svg version="1.1" id="Camada_1" xmlns="http://www.w3.org/2000/svg" xmlns:xlink="http://www.w3.org/1999/xlink" x="0px" y="0px"
	 viewBox="0 0 569.6 97.2" style="enable-background:new 0 0 569.6 97.2;" xml:space="preserve">
<style type="text/css">
	.st0{fill:#964A40;}
	.st1{fill:#EE780A;}
	.st2{fill:#BD1622;}
	.st3{fill:#F6B620;}
	.st4{fill:#A6A828;}
	.st5{fill:#974B41;}
</style>
<g id="logo">
	<polygon class="st0" points="301.5,38.6 301.1,38.3 301.1,38.3 300.9,38 287,50.7 286.7,37.3 293.8,29.3 293.6,29.1 293.6,29.1 
		293.5,28.9 286.6,35 286.3,22.1 285.3,22.1 284.9,35.3 277.9,28.9 277.7,29.1 277.7,29.1 277.5,29.3 284.9,37.5 284.6,51.2 
		270.8,38.5 270.5,38.8 270.5,38.8 270.2,39.1 284.5,54.8 284.1,72.5 285.7,72.5 287.5,72.5 287.1,54.3 	"/>
	<path class="st1" d="M268.1,36.2c-0.2,0.3-0.3,0.7-0.4,1c-0.1-0.7-0.4-1.3-0.7-1.8c-0.6-0.9-1.3-1.6-2.1-2.3l-0.1-0.1
		c-0.4,1.1-0.4,2.4-0.2,3.6c0.1,0.2,0.2,0.4,0.2,0.7c-0.2-0.1-0.4-0.2-0.7-0.2c-1.5-0.4-3.9-0.5-5.1-0.5c1.1,1.5,2.6,2.8,4.3,3.7
		l0.3,0.2c-0.3,0.1-0.5,0.2-0.8,0.4c-0.9,0.6-1.6,1.3-2.3,2.1v-0.1c1.1,0.4,2.4,0.5,3.7,0.2c0.5-0.1,1-0.3,1.4-0.6
		c-0.1,0.2-0.2,0.5-0.2,0.8c-0.2,1-0.2,2.1,0.1,3.1l0.1-0.1c0.7-0.6,1.2-1.3,1.6-2.1c0.4-0.8,0.6-1.6,0.6-2.4c0-0.5-0.1-1.1-0.1-1.6
		l0,0c0.4-0.4,0.8-0.8,1.2-1.1c0.5-0.6,1-1.4,1.2-2.2c0.2-0.9,0.3-1.7,0.2-2.6v-0.1C269.4,34.7,268.7,35.4,268.1,36.2z"/>
	<path class="st1" d="M267.9,36.2c-0.2,0.3-0.3,0.7-0.4,1l0.4,0.1c-0.4-1.8-1.6-3.1-2.9-4.3c-0.1-0.1-0.3-0.1-0.3,0.1
		c0,0,0,0.1-0.1,0.1c-0.5,1.4-0.5,3,0.1,4.4l0.3-0.3c-1.9-0.7-3.9-0.7-5.8-0.8c-0.1,0-0.2,0.1-0.3,0.2c0,0.1,0,0.1,0.1,0.2
		c1.3,1.6,2.8,2.9,4.6,3.9v-0.4c-1.3,0.6-2.4,1.5-3.3,2.6c-0.1,0.1-0.1,0.3,0.1,0.3c0,0,0.1,0,0.1,0.1c1.9,0.5,3.7,0.6,5.3-0.4
		l-0.4-0.3c-0.4,1.3-0.5,2.6-0.1,3.9c0.1,0.1,0.2,0.2,0.3,0.2c0.1,0,0.1-0.1,0.1-0.1c0.9-1,1.9-2,2.2-3.3c0.2-1,0.2-2,0.1-3.1
		c0-0.2-0.3-0.2-0.4-0.2l0,0l0.4,0.2h-0.5c0.1,0.2,0.3,0.3,0.4,0.2c0.8-0.7,1.5-1.4,2-2.3c0.7-1.2,0.7-2.6,0.7-3.9
		c0-0.1-0.1-0.3-0.2-0.3s-0.1,0-0.2,0.1C269.3,34.5,268.5,35.2,267.9,36.2c-0.1,0.2,0.3,0.5,0.4,0.2c0.5-0.9,1.3-1.6,2.1-2.1
		l-0.4-0.2c0.1,1.2-0.1,2.5-0.5,3.6c-0.5,0.9-1.2,1.6-2,2.3l0.4,0.2l0,0c-0.1-0.3-0.4-0.3-0.5,0l0,0c0,0.1,0.1,0.3,0.2,0.3
		s0.1,0,0.2-0.1l0,0l-0.4-0.2c0.2,1,0.1,2-0.1,3.1c-0.4,1.1-1.1,2.2-2.1,3l0.4,0.1c-0.4-1.2-0.3-2.5,0.1-3.7c0.1-0.1,0-0.3-0.2-0.3
		c-0.1,0-0.2,0-0.2,0.1c-1.5,0.9-3.2,0.8-4.9,0.4l0.1,0.4c0.8-1,1.9-1.9,3.1-2.5c0.1-0.1,0.2-0.2,0.1-0.3c0-0.1-0.1-0.1-0.1-0.1
		c-1.7-0.9-3.3-2.2-4.4-3.8L259,37c1.9,0.1,3.9,0.1,5.7,0.7c0.1,0.1,0.3,0,0.3-0.1s0-0.1,0-0.2c-0.5-1.3-0.5-2.7-0.1-4.1l-0.4,0.1
		c1.3,1.1,2.5,2.3,2.8,4c0.1,0.2,0.4,0.3,0.4,0.1c0.1-0.3,0.3-0.7,0.4-1C268.5,36.1,268,35.9,267.9,36.2z"/>
	<path class="st1" d="M265.4,39.6c2.2,1.1,2.8,1.4,5.2,1.7c0.1,0,0.2-0.1,0.2-0.2c0-0.1-0.1-0.2-0.2-0.2c-2.5-0.3-2.9-0.5-5.1-1.6
		C265.4,39,265.1,39.5,265.4,39.6L265.4,39.6z"/>
	<path class="st2" d="M276,26.1c-0.4,0.1-0.7,0.3-1,0.4c0.4-0.6,0.6-1.2,0.8-1.9c0.2-1.1,0.2-2.2,0-3.3v-0.1
		c-1.1,0.7-2.1,1.6-2.7,2.7c-0.1,0.2-0.2,0.4-0.3,0.7c-0.1-0.2-0.2-0.4-0.3-0.7c-0.9-1.4-2.7-3.2-3.6-4.1c-0.2,2,0,4,0.7,5.9
		c0.1,0.1,0.1,0.2,0.1,0.3c-0.3-0.1-0.6-0.2-0.9-0.3c-1.1-0.2-2.2-0.2-3.3-0.1h-0.3c0.7,1.1,1.6,2.1,2.7,2.8c0.5,0.3,1,0.4,1.6,0.5
		c-0.3,0.1-0.5,0.3-0.7,0.4c-0.9,0.7-1.6,1.5-2.1,2.5h0.1c0.9,0,1.9-0.2,2.8-0.4c0.9-0.3,1.6-0.8,2.2-1.5c0.4-0.4,0.8-0.9,1.1-1.4
		l0,0c0.6,0.1,1.2,0.1,1.7,0c0.9-0.1,1.8-0.4,2.6-0.9c0.8-0.5,1.5-1.2,2.1-1.9l0.1-0.1C278.2,25.8,277.1,25.9,276,26.1z"/>
	<path class="st2" d="M276.2,25.3c-0.3,0.1-0.7,0.3-1,0.4l0.3,0.4c1-1.7,1-3.5,0.8-5.5c0-0.2-0.2-0.2-0.3-0.2h-0.1
		c-1.4,0.8-2.6,2-3.2,3.5h0.4c-1-1.9-2.5-3.3-4-4.8c-0.1-0.1-0.3-0.1-0.4,0s-0.1,0.1-0.1,0.2c-0.2,2.2,0.1,4.4,0.8,6.4l0.3-0.3
		c-1.4-0.5-2.9-0.4-4.5-0.3c-0.2,0.1-0.2,0.2-0.2,0.3v0.1c1.1,1.7,2.5,3.1,4.5,3.5l-0.1-0.5c-1.3,0.7-2.3,1.7-2.9,3
		c-0.1,0.1-0.1,0.3,0.1,0.4c0.1,0.1,0.1,0.1,0.2,0.1c1.4-0.1,2.9-0.2,4.1-1c0.9-0.7,1.6-1.4,2.3-2.3c0.1-0.2,0-0.4-0.2-0.4l0,0
		l0.2,0.4l0,0l-0.4-0.3l0,0c-0.1,0.1-0.1,0.3,0.1,0.3c0.1,0,0.1,0.1,0.1,0.1c1.1,0.1,2.2-0.1,3.2-0.3c1.4-0.5,2.5-1.5,3.4-2.6
		c0.1-0.1,0.1-0.3,0-0.4s-0.1-0.1-0.2-0.1c-1.1-0.2-2.2-0.2-3.3,0.1c-0.3,0.1-0.2,0.6,0.1,0.5c1-0.3,2.1-0.3,3.2-0.1l-0.2-0.4
		c-0.9,1-1.8,2-3.1,2.4c-1,0.3-2.1,0.4-3.2,0.4l0.2,0.4l0,0c0.1-0.2-0.2-0.5-0.4-0.3l0,0c-0.1,0.1-0.1,0.3,0,0.4s0.1,0.1,0.2,0.1
		l0,0l-0.2-0.4c-0.6,0.9-1.4,1.7-2.3,2.3c-1.1,0.7-2.5,0.8-3.8,0.9l0.3,0.4c0.6-1.2,1.5-2.2,2.7-2.8c0.1-0.1,0.2-0.2,0.1-0.3
		c-0.1-0.1-0.1-0.1-0.2-0.1c-1.9-0.4-3.1-1.7-4.1-3.2l0.1,0.1c1.4-0.1,2.8-0.2,4.2,0.3c0.2,0.1,0.4-0.2,0.3-0.3
		c-0.7-2-1-4.1-0.8-6.2l-0.4,0.2c1.4,1.4,2.9,2.9,3.9,4.7c0.1,0.1,0.2,0.2,0.3,0.1c0.1,0,0.1-0.1,0.1-0.1c0.6-1.4,1.6-2.5,2.9-3.2
		l-0.4-0.2c0.2,1.8,0.3,3.5-0.7,5.1c-0.1,0.2,0.1,0.5,0.3,0.4c0.3-0.2,0.7-0.3,1-0.4C276.8,25.7,276.5,25.2,276.2,25.3z"/>
	<path class="st2" d="M271.8,26.2c1,2.5,1.2,3.1,2.9,5.1c0.1,0.1,0.3,0.1,0.3,0c0.1-0.1,0.1-0.2,0-0.3c-1.7-2-1.9-2.6-2.8-5
		C272.1,25.7,271.7,25.9,271.8,26.2L271.8,26.2z"/>
	<path class="st3" d="M280,37.2c-0.2,0.1-0.4,0.2-0.6,0.3c0.2-0.3,0.4-0.7,0.5-1.1c0.1-0.7,0.1-1.3,0-2v-0.1
		c-0.7,0.4-1.3,0.9-1.7,1.6c-0.1,0.1-0.1,0.3-0.2,0.4c-0.1-0.1-0.1-0.3-0.2-0.4c-0.6-0.9-1.3-1.7-2.1-2.5c-0.2,1.2-0.1,2.4,0.3,3.5
		c0,0.1,0.1,0.2,0.1,0.2c-0.2-0.1-0.4-0.2-0.5-0.2c-0.7-0.1-1.3-0.1-2-0.1h-0.1c0.4,0.7,0.9,1.3,1.6,1.7c0.3,0.2,0.6,0.3,0.9,0.3
		c-0.2,0.1-0.3,0.2-0.4,0.2c-0.5,0.4-1,0.9-1.3,1.5h0.1c0.5,0,1.1-0.1,1.7-0.2c0.5-0.2,1-0.4,1.4-0.8c0.2-0.3,0.5-0.5,0.7-0.8l0,0
		c0.4,0,0.7,0,1.1,0c0.5-0.1,1-0.2,1.5-0.5c0.4-0.3,0.9-0.7,1.3-1.1l0.1-0.1C281.3,37,280.6,37.1,280,37.2z"/>
	<path class="st3" d="M279.9,37.1c-0.2,0.1-0.4,0.2-0.6,0.3l0.2,0.2c0.6-1,0.6-2.1,0.5-3.3c0-0.1-0.1-0.2-0.2-0.1l0,0
		c-0.9,0.4-1.5,1.2-1.9,2.1h0.3c-0.7-1.1-1.4-2.1-2.3-2.9c-0.1-0.1-0.2-0.1-0.2,0c-0.1,0-0.1,0.1-0.1,0.1c-0.2,1.3,0,2.6,0.4,3.9
		l0.2-0.2c-0.9-0.3-1.7-0.4-2.7-0.2c-0.1,0-0.2,0.1-0.1,0.2c0,0,0,0,0,0.1c0.5,1,1.5,1.9,2.7,2.1l-0.1-0.3c-0.8,0.4-1.4,1-1.8,1.7
		c-0.1,0.1,0,0.2,0.1,0.2c0.1,0,0.1,0,0.1,0c0.9,0,1.7-0.2,2.5-0.6c0.5-0.4,1-0.8,1.4-1.4c0.1-0.1,0-0.2-0.1-0.2l0,0l0.1,0.3l0,0
		l-0.2-0.2l0,0c-0.1,0.1,0,0.2,0.1,0.2c0.7,0.1,1.3,0,2-0.2c0.8-0.3,1.5-0.8,2.1-1.5c0.1-0.1,0.1-0.2,0-0.2l-0.1-0.1
		C281.2,36.9,280.6,36.9,279.9,37.1c-0.2,0.1-0.1,0.3,0.1,0.3c0.6-0.2,1.3-0.2,1.9,0l-0.1-0.3c-0.5,0.6-1.1,1.1-1.9,1.4
		c-0.7,0.2-1.3,0.3-2,0.2l0.1,0.2l0,0c0.1-0.2-0.1-0.3-0.2-0.2l0,0c-0.1,0.1-0.1,0.2,0,0.2l0.1,0.1l0,0l-0.1-0.2
		c-0.4,0.5-0.9,1-1.4,1.4c-0.7,0.3-1.5,0.5-2.3,0.5l0.2,0.2c0.4-0.7,0.9-1.3,1.7-1.6c0.1-0.1,0.1-0.1,0.1-0.2c0-0.1-0.1-0.1-0.1-0.1
		c-1-0.3-1.9-1-2.4-2l-0.1,0.2c0.8-0.1,1.7-0.1,2.5,0.2c0.1,0,0.2,0,0.2-0.1s0-0.1,0-0.1c-0.4-1.2-0.5-2.5-0.4-3.7l-0.3,0.1
		c0.9,0.8,1.7,1.8,2.3,2.8c0.1,0.1,0.1,0.1,0.2,0.1c0.1,0,0.1-0.1,0.1-0.1c0.4-0.8,1-1.5,1.8-1.9l-0.2-0.1c0.1,1.1,0.1,2.1-0.5,3.1
		c-0.1,0.1,0.1,0.3,0.2,0.2c0.2-0.1,0.4-0.2,0.6-0.3C280.2,37.3,280.1,37,279.9,37.1z"/>
	<path class="st3" d="M277.3,37.5c0.3,1.1,0.9,2.2,1.7,3.1c0.1,0.1,0.2,0.1,0.2,0c0.1-0.1,0.1-0.1,0-0.2c-0.8-0.9-1.3-1.9-1.6-3
		C277.5,37.2,277.2,37.4,277.3,37.5L277.3,37.5z"/>
	<path class="st4" d="M271.9,46.9c-0.1,0.2-0.1,0.5-0.1,0.7c-0.2-0.4-0.4-0.8-0.8-1c-0.5-0.4-1.1-0.8-1.8-1.1l-0.1-0.1
		c-0.1,0.8,0.2,1.7,0.5,2.4c0.1,0.2,0.2,0.3,0.3,0.4c-0.2,0-0.3,0-0.5,0c-1.1,0.1-2.3,0.2-3.5,0.5c1,0.8,2.2,1.4,3.5,1.7l0.2,0.1
		c-0.2,0.1-0.3,0.3-0.5,0.4c-0.4,0.5-0.8,1.1-1.1,1.8l-0.1,0.1c0.8,0.1,1.7-0.1,2.5-0.5c0.3-0.2,0.6-0.4,0.8-0.7
		c0,0.2-0.1,0.4,0,0.5c0.1,0.7,0.3,1.4,0.6,2V54c0.3-0.5,0.5-1,0.7-1.6c0.2-0.5,0.2-1.1,0-1.7c-0.1-0.4-0.2-0.7-0.4-1.1l0,0
		c0.2-0.3,0.4-0.7,0.6-1c0.3-0.5,0.4-1.1,0.4-1.7c-0.1-0.6-0.2-1.2-0.3-1.8V45C272.5,45.7,272.1,46.3,271.9,46.9z"/>
	<path class="st4" d="M271.7,46.9c-0.1,0.2-0.1,0.5-0.1,0.7l0.3-0.1c-0.6-1.1-1.6-1.7-2.7-2.3c-0.1-0.1-0.2,0-0.2,0.1c0,0,0,0,0,0.1
		c-0.1,1,0.2,2.1,0.8,2.9L270,48c-1.4,0-2.7,0.2-4,0.5c-0.1,0-0.2,0.1-0.1,0.2c0,0.1,0.1,0.1,0.1,0.1c1.1,0.9,2.4,1.5,3.8,1.7
		l-0.1-0.3c-0.8,0.7-1.3,1.4-1.7,2.3c-0.1,0.1,0,0.2,0.1,0.2h0.1c1.3,0.1,2.5-0.3,3.4-1.3l-0.3-0.1c-0.1,0.9,0.2,1.9,0.6,2.6
		C272,54,272,54,272.1,54s0.1-0.1,0.1-0.1c0.5-0.8,0.8-1.7,0.8-2.6c-0.1-0.7-0.2-1.4-0.5-2c-0.1-0.1-0.2-0.1-0.3,0l0,0l0.3,0.1l0,0
		l-0.3,0.1l0,0c0.1,0.1,0.2,0.2,0.3,0.1c0.4-0.5,0.7-1.2,0.9-1.9c0.2-0.9,0.1-1.9-0.3-2.7c0-0.1-0.1-0.2-0.2-0.1
		c-0.1,0-0.1,0.1-0.1,0.1C272.3,45.6,272,46.2,271.7,46.9c-0.1,0.2,0.2,0.3,0.3,0.1c0.2-0.7,0.5-1.3,1-1.7l-0.3-0.1
		c0.3,0.8,0.4,1.6,0.3,2.5c-0.2,0.7-0.5,1.3-0.9,1.9h0.3l0,0c-0.1-0.2-0.3-0.1-0.3,0.1l0,0c0,0.1,0.1,0.2,0.2,0.1
		c0.1,0,0.1-0.1,0.1-0.1l0,0l-0.3-0.1c0.3,0.7,0.4,1.3,0.5,2c-0.1,0.8-0.4,1.6-0.8,2.3h0.3c-0.4-0.7-0.7-1.6-0.6-2.5
		c0-0.1-0.1-0.2-0.2-0.2c-0.1,0-0.1,0-0.2,0.1c-0.9,0.8-2,1.2-3.2,1.1l0.1,0.2c0.3-0.8,0.9-1.6,1.6-2.2c0.1-0.1,0.1-0.2,0.1-0.2
		c0-0.1-0.1-0.1-0.1-0.1c-1.3-0.3-2.5-0.9-3.6-1.7l-0.1,0.3c1.3-0.4,2.6-0.5,3.9-0.5c0.1,0,0.2-0.1,0.2-0.2c0-0.1,0-0.1-0.1-0.1
		c-0.5-0.8-0.8-1.7-0.8-2.7l-0.2,0.1c1,0.5,2,1.1,2.6,2.1c0.1,0.1,0.3,0.1,0.3-0.1c0-0.2,0.1-0.5,0.1-0.7
		C272.1,46.8,271.8,46.7,271.7,46.9z"/>
	<path class="st4" d="M270.7,49.7c1.3,0.3,2.5,0.4,3.8,0.2c0.1,0,0.2-0.1,0.1-0.2c0-0.1-0.1-0.2-0.2-0.1l0,0
		c-1.3,0.2-2.5,0.2-3.7-0.2C270.5,49.3,270.5,49.6,270.7,49.7L270.7,49.7z"/>
	<path class="st4" d="M276.8,53.4c0.2,0.1,0.3,0.2,0.5,0.2c-0.3,0.1-0.7,0.2-0.9,0.3c-0.4,0.3-0.9,0.7-1.2,1.1l-0.1,0.1
		c0.6,0.2,1.3,0.3,1.9,0.1c0.1,0,0.2-0.1,0.4-0.1c-0.1,0.1-0.1,0.2-0.1,0.3c-0.2,0.9-0.3,1.8-0.3,2.7c0.8-0.6,1.5-1.3,2-2.2
		c0.1-0.1,0.1-0.1,0.1-0.2c0.1,0.2,0.1,0.3,0.2,0.4c0.3,0.4,0.7,0.9,1.1,1.2l0.1,0.1c0.2-0.6,0.3-1.3,0.2-1.9
		c-0.1-0.3-0.2-0.5-0.3-0.8c0.1,0.1,0.3,0.1,0.4,0.1c0.5,0.1,1.1,0.1,1.6-0.1h-0.1c-0.3-0.3-0.7-0.7-1.1-0.9
		c-0.4-0.2-0.8-0.3-1.3-0.4c-0.3,0-0.6,0-0.9,0.1l0,0c-0.2-0.2-0.4-0.4-0.6-0.7c-0.3-0.3-0.7-0.5-1.1-0.7c-0.4-0.1-0.9-0.2-1.4-0.1
		h-0.1C275.9,52.7,276.3,53,276.8,53.4z"/>
	<path class="st4" d="M276.8,53.5c0.2,0.1,0.3,0.2,0.5,0.2l0.1-0.2c-0.9,0.2-1.7,0.8-2.3,1.5c-0.1,0.1-0.1,0.1,0,0.2c0,0,0,0,0.1,0
		c0.8,0.3,1.6,0.3,2.3,0l-0.2-0.2c-0.3,1-0.4,2-0.4,3.1c0,0.1,0.1,0.1,0.1,0.1h0.1c0.9-0.7,1.6-1.5,2.1-2.4H279
		c0.3,0.7,0.8,1.3,1.4,1.7c0.1,0.1,0.1,0.1,0.2,0c0,0,0,0,0-0.1c0.3-0.9,0.3-1.9-0.2-2.8l-0.2,0.2c0.7,0.3,1.4,0.3,2.1,0.1
		c0.1,0,0.1-0.1,0.1-0.2c0,0,0-0.1-0.1-0.1c-0.5-0.5-1.1-0.9-1.7-1.1c-0.5-0.1-1.1-0.1-1.6-0.1c-0.1,0-0.1,0.1-0.1,0.2v0.1l0,0
		l0.1-0.2l0,0v0.3l0,0c0.1,0,0.2-0.1,0.1-0.2c-0.3-0.4-0.7-0.8-1.2-1.1c-0.7-0.3-1.4-0.4-2.1-0.4c-0.1,0-0.1,0.1-0.2,0.1
		c0,0.1,0,0.1,0,0.1C275.9,52.8,276.3,53.1,276.8,53.5c0.1,0.1,0.3-0.1,0.1-0.2c-0.4-0.3-0.8-0.7-1.1-1.1l-0.1,0.2
		c0.7-0.1,1.3,0.1,1.9,0.3c0.5,0.3,0.9,0.7,1.2,1.1l0.1-0.2l0,0c-0.1,0.1-0.2,0.2,0,0.3l0,0c0.1,0,0.1-0.1,0.1-0.1v-0.1l0,0
		l-0.1,0.2c0.5-0.1,1.1-0.1,1.6,0.1c0.6,0.2,1.1,0.6,1.6,1.1l0.1-0.2c-0.7,0.2-1.3,0.2-1.9-0.1c-0.1,0-0.2,0-0.2,0.1s0,0.1,0,0.1
		c0.4,0.8,0.5,1.7,0.2,2.6l0.2-0.1c-0.5-0.4-1-1-1.3-1.6c-0.1-0.1-0.2-0.1-0.2,0c-0.5,0.9-1.2,1.7-2,2.3l0.2,0.1c0-1,0.1-2,0.4-3
		c0-0.1,0-0.2-0.1-0.2s-0.1,0-0.1,0c-0.7,0.3-1.5,0.3-2.2,0l0.1,0.2c0.5-0.7,1.3-1.2,2.1-1.4c0.1,0,0.2-0.2,0.1-0.2
		c-0.2-0.1-0.3-0.1-0.5-0.2C276.7,53.1,276.6,53.4,276.8,53.5z"/>
	<path class="st4" d="M278.5,54.8c0.5-0.8,0.8-1.8,0.9-2.8c0-0.1-0.1-0.1-0.2-0.1s-0.1,0.1-0.1,0.1c-0.1,1-0.4,1.9-0.9,2.7
		C278.2,54.9,278.5,55,278.5,54.8L278.5,54.8z"/>
	<path class="st3" d="M280.6,43.5c0.1,0.1,0.2,0.1,0.3,0.2c-0.2,0.1-0.4,0.1-0.6,0.2c-0.3,0.2-0.5,0.4-0.8,0.7l0,0
		c0.4,0.1,0.8,0.2,1.2,0.1c0.1,0,0.2-0.1,0.2-0.1c0,0.1-0.1,0.2-0.1,0.2c-0.1,0.5-0.2,1.1-0.2,1.7c0.5-0.4,1-0.9,1.3-1.4L282,45
		c0.1,0.1,0.1,0.2,0.1,0.3c0.2,0.3,0.4,0.6,0.7,0.8l0,0c0.2-0.4,0.2-0.8,0.1-1.3c-0.1-0.2-0.1-0.3-0.2-0.5c0.1,0.1,0.2,0.1,0.3,0.1
		c0.3,0.1,0.7,0.1,1-0.1l0,0c-0.2-0.2-0.4-0.4-0.7-0.6c-0.3-0.2-0.5-0.2-0.8-0.2c-0.2,0-0.4,0-0.5,0.1l0,0c-0.1-0.2-0.3-0.3-0.4-0.4
		c-0.2-0.2-0.5-0.3-0.8-0.4c-0.3-0.1-0.6-0.1-0.9-0.1l0,0C280.1,43.1,280.3,43.3,280.6,43.5z"/>
	<path class="st3" d="M280.6,43.6c0.1,0.1,0.2,0.1,0.3,0.2v-0.2c-0.6,0.2-1.1,0.5-1.5,1c0,0.1,0,0.1,0,0.1l0,0c0.5,0.2,1,0.2,1.5,0
		l-0.1-0.1c-0.2,0.7-0.3,1.3-0.3,2c0,0.1,0.1,0.1,0.1,0.1h0.1c0.5-0.4,1-0.9,1.4-1.6h-0.2c0.2,0.4,0.5,0.8,0.9,1.1
		c0.1,0,0.1,0,0.1,0l0,0c0.2-0.6,0.2-1.3-0.1-1.8l-0.1,0.1c0.4,0.2,0.9,0.2,1.3,0.1c0.1,0,0.1-0.1,0.1-0.1v-0.1
		c-0.3-0.3-0.7-0.6-1.1-0.8c-0.3-0.1-0.7-0.1-1-0.1c-0.1,0-0.1,0.1-0.1,0.1s0,0,0,0.1l0,0l0.1-0.1l0,0v0.1l0,0
		c0.1,0,0.1-0.1,0.1-0.1c-0.2-0.3-0.5-0.5-0.8-0.7c-0.4-0.2-0.9-0.3-1.4-0.3c-0.1,0-0.1,0-0.1,0.1v0.1
		C280,43.1,280.3,43.4,280.6,43.6c0.1,0.1,0.2-0.1,0.1-0.2c-0.3-0.2-0.5-0.4-0.7-0.7l-0.1,0.1c0.4-0.1,0.8,0.1,1.2,0.2
		c0.3,0.2,0.6,0.4,0.8,0.7l0.1-0.1l0,0c-0.1,0-0.1,0.1-0.1,0.1c0,0.1,0.1,0.1,0.1,0.1l0,0l0,0c0.1,0,0.1-0.1,0.1-0.1v-0.1l0,0
		l-0.1,0.1c0.3-0.1,0.7-0.1,1,0.1c0.4,0.2,0.7,0.4,1,0.7l0.1-0.2c-0.4,0.1-0.9,0.1-1.3-0.1c-0.1-0.1-0.1,0.1-0.1,0.1
		c0.3,0.5,0.3,1.1,0.1,1.6l0.1-0.1c-0.4-0.3-0.7-0.7-0.8-1.1c0-0.1-0.1-0.1-0.1-0.1s-0.1,0-0.1,0.1c-0.3,0.6-0.8,1.1-1.3,1.5
		l0.1,0.1c0-0.7,0.1-1.3,0.3-1.9c0-0.1,0-0.1-0.1-0.1h-0.1c-0.4,0.2-0.9,0.2-1.4,0l0.1,0.1c0.3-0.4,0.8-0.8,1.4-0.9
		c0.1,0,0.1-0.1,0.1-0.1s0-0.1-0.1-0.1c-0.1-0.1-0.2-0.1-0.3-0.2C280.5,43.4,280.5,43.5,280.6,43.6z"/>
	<path class="st3" d="M281.7,44.5c0.3-0.5,0.5-1.1,0.6-1.8c0-0.1-0.2-0.1-0.2,0c-0.1,0.6-0.3,1.2-0.6,1.7
		C281.5,44.5,281.7,44.6,281.7,44.5L281.7,44.5z"/>
	<path class="st1" d="M300.7,34.1L300.7,34.1c0.1,1,0.2,1.8,0.4,2.7c0.3,0.8,0.8,1.5,1.4,2.1c0.4,0.4,0.9,0.7,1.3,1l0,0
		c0,0.5,0,1.1,0.1,1.6c0.1,0.9,0.4,1.7,0.8,2.4c0.5,0.7,1.1,1.4,1.8,1.9l0.1,0.1c0.2-1,0.2-2.1-0.1-3.1c-0.1-0.3-0.2-0.5-0.3-0.7
		c0.5,0.3,1,0.4,1.5,0.5c1.2,0.1,2.5-0.1,3.6-0.5l-0.1-0.1c-0.7-0.7-1.5-1.4-2.5-1.9c-0.3-0.2-0.5-0.3-0.9-0.3
		c0.1-0.1,0.2-0.1,0.3-0.2c1.6-1,2.9-2.4,3.9-4c-1.1,0.2-3.6,0.4-5,1c-0.2,0.1-0.4,0.2-0.7,0.3c0.1-0.2,0.1-0.4,0.2-0.7
		c0.2-1.2,0-2.5-0.5-3.5l-0.1,0.1c-0.8,0.7-1.4,1.5-1.9,2.5c-0.3,0.5-0.5,1.2-0.5,1.9c-0.1-0.3-0.3-0.7-0.5-0.9
		C302.4,35.3,301.6,34.6,300.7,34.1z"/>
	<path class="st1" d="M303.2,36c0.2,0.3,0.4,0.6,0.5,0.9l-0.4,0.1c0.2-1.9,1.3-3.2,2.6-4.5c0.1-0.1,0.3-0.1,0.3,0c0,0,0,0.1,0.1,0.1
		c0.6,1.4,0.7,2.9,0.3,4.4l-0.3-0.3c1.8-0.8,3.8-1,5.7-1.3c0.1,0,0.3,0.1,0.3,0.2c0,0.1,0,0.1-0.1,0.2c-1.1,1.7-2.6,3.2-4.3,4.3
		v-0.4c1.3,0.5,2.5,1.3,3.5,2.3c0.1,0.1,0.1,0.2,0,0.3c0,0-0.1,0-0.1,0.1c-1.8,0.7-3.6,0.9-5.3,0.1l0.3-0.3c0.5,1.2,0.7,2.6,0.5,3.9
		c0,0.1-0.1,0.2-0.3,0.2c-0.1,0-0.1-0.1-0.2-0.1c-1-0.9-2-1.9-2.5-3.2c-0.3-1-0.4-2-0.3-3c0-0.2,0.2-0.3,0.4-0.2l0,0l-0.4,0.2l0,0
		l0.5-0.1l0,0c0,0.2-0.2,0.3-0.4,0.2c-0.8-0.6-1.6-1.3-2.2-2.1c-0.8-1.1-0.9-2.5-1-3.9c0-0.1,0.1-0.3,0.2-0.3c0.1,0,0.1,0,0.2,0.1
		C301.8,34.4,302.6,35.1,303.2,36c0.2,0.2-0.2,0.5-0.4,0.3c-0.6-0.8-1.4-1.5-2.3-1.9l0.4-0.3c0,1.2,0.3,2.5,0.9,3.5
		c0.6,0.8,1.3,1.6,2.2,2.1l-0.4,0.2l0,0c0.1-0.3,0.4-0.3,0.5-0.1l0,0c0,0.1-0.1,0.3-0.2,0.3s-0.1,0-0.2-0.1l0,0l0.4-0.2
		c-0.1,1,0.1,2,0.4,3c0.5,1.1,1.3,2.1,2.3,2.8l-0.4,0.2c0.3-1.3,0.1-2.5-0.4-3.7c-0.1-0.2,0.2-0.4,0.3-0.3c1.6,0.8,3.3,0.5,4.9-0.1
		l-0.1,0.4c-0.9-1-2-1.7-3.3-2.2c-0.1-0.1-0.2-0.2-0.2-0.3s0.1-0.1,0.1-0.1c1.6-1,3.1-2.5,4.1-4.1l0.2,0.4c-1.9,0.2-3.8,0.4-5.6,1.2
		c-0.1,0.1-0.3,0-0.3-0.1c-0.1-0.1-0.1-0.1,0-0.2c0.4-1.4,0.3-2.8-0.3-4.1l0.4,0.1c-1.1,1.2-2.2,2.5-2.5,4.2c0,0.2-0.3,0.3-0.4,0.1
		c-0.2-0.3-0.3-0.7-0.5-0.9C302.6,35.9,303.1,35.7,303.2,36z"/>
	<path class="st1" d="M306,39.2c-2.2,1.3-2.6,1.6-5.1,2.1c-0.1,0-0.3-0.1-0.3-0.2c0-0.1,0.1-0.3,0.2-0.3c2.4-0.5,2.8-0.8,5-2.1
		C306.1,38.6,306.3,39,306,39.2z"/>
	<path class="st2" d="M291.2,25.6L291.2,25.6c0.7,0.8,1.4,1.4,2.1,2c0.8,0.5,1.6,0.8,2.5,0.9c0.6,0.1,1.2,0.1,1.7,0l0,0
		c0.3,0.5,0.7,0.9,1.1,1.4c0.7,0.7,1.4,1.1,2.2,1.5c0.9,0.3,1.9,0.4,2.8,0.4h0.1c-0.5-1-1.2-1.9-2.1-2.5c-0.2-0.2-0.5-0.3-0.7-0.4
		c0.5-0.1,1.1-0.3,1.6-0.5c1.1-0.7,2.1-1.6,2.7-2.8h-0.1c-1.1-0.2-2.2-0.1-3.3,0.1c-0.3,0.1-0.7,0.2-0.9,0.3
		c0.1-0.1,0.1-0.2,0.1-0.3c0.7-1.9,0.9-3.9,0.7-5.9c-0.9,0.9-2.8,2.7-3.6,4.1c-0.1,0.2-0.3,0.4-0.3,0.7c-0.1-0.2-0.2-0.5-0.3-0.7
		c-0.7-1.1-1.6-2-2.7-2.7V21c-0.2,1.1-0.2,2.2,0,3.3c0.1,0.7,0.4,1.3,0.8,1.9c-0.3-0.2-0.7-0.3-1-0.4
		C293.5,25.4,292.3,25.3,291.2,25.6z"/>
	<path class="st2" d="M294.6,25.4c0.4,0.1,0.7,0.3,1,0.4l-0.3,0.4c-1-1.7-1-3.5-0.8-5.5c0-0.2,0.2-0.2,0.3-0.2h0.1
		c1.4,0.8,2.6,2,3.2,3.5h-0.6c1-1.9,2.5-3.3,4-4.8c0.1-0.1,0.3-0.1,0.3,0c0.1,0.1,0.1,0.1,0.1,0.2c0.2,2.2-0.1,4.4-0.8,6.4l-0.3-0.3
		c1.4-0.5,2.9-0.5,4.5-0.3c0.2,0.1,0.2,0.2,0.2,0.3v0.1c-1.1,1.7-2.5,3.1-4.5,3.5l0.1-0.5c1.3,0.7,2.3,1.7,2.9,2.9
		c0.1,0.1,0.1,0.3-0.1,0.4c-0.1,0.1-0.1,0.1-0.2,0.1c-1.4-0.1-2.9-0.3-4.1-1c-0.9-0.7-1.6-1.4-2.3-2.3c-0.1-0.2,0-0.4,0.2-0.4l0,0
		l-0.2,0.4l0,0l0.4-0.3l0,0c0.1,0.2,0,0.4-0.2,0.4c-1.1,0.1-2.2-0.1-3.2-0.3c-1.4-0.5-2.5-1.5-3.4-2.6c-0.1-0.1-0.1-0.3,0-0.4
		s0.1-0.1,0.2-0.1C292.3,25.1,293.5,25.2,294.6,25.4c0.3,0.1,0.2,0.6-0.2,0.5c-1-0.3-2.1-0.3-3.2-0.1l0.2-0.4c0.9,1,1.8,2,3.1,2.4
		c1,0.3,2.1,0.4,3.2,0.4l-0.2,0.4l0,0c-0.1-0.2,0.2-0.5,0.4-0.3l0,0c0.1,0.1,0.1,0.3,0,0.4s-0.1,0.1-0.2,0.1l0,0l0.2-0.4
		c0.6,0.9,1.4,1.7,2.3,2.3c1.1,0.7,2.5,0.8,3.8,0.9l-0.3,0.4c-0.6-1.2-1.5-2.2-2.7-2.8c-0.1-0.1-0.2-0.2-0.1-0.4
		c0.1-0.1,0.1-0.1,0.2-0.1c1.9-0.4,3.1-1.7,4.1-3.2l0.2,0.4c-1.4-0.2-2.8-0.1-4.2,0.3c-0.1,0.1-0.3-0.1-0.3-0.2s0-0.1,0-0.2
		c0.7-2,1-4.1,0.8-6.2l0.4,0.2c-1.4,1.4-2.9,2.9-3.9,4.7c-0.1,0.1-0.2,0.2-0.3,0.1c-0.1,0-0.1-0.1-0.1-0.1c-0.6-1.4-1.6-2.5-2.9-3.2
		l0.3-0.2c-0.2,1.8-0.3,3.5,0.7,5.1c0.1,0.2-0.1,0.5-0.3,0.4c-0.3-0.2-0.7-0.3-1-0.4C294.1,25.8,294.3,25.3,294.6,25.4z"/>
	<path class="st2" d="M299,26.3c-1,2.5-1.1,3.1-2.9,5.1c-0.2,0.3-0.6-0.1-0.4-0.3c1.7-2,1.9-2.6,2.8-5C298.7,25.8,299.1,26,299,26.3
		z"/>
	<path class="st2" d="M278.3,21.8L278.3,21.8c0.9,0.5,1.9,0.8,2.9,0.9c0.9,0.1,1.9,0,2.8-0.3c0.6-0.2,1.1-0.5,1.7-0.8l0,0
		c0.9,0.4,1.1,0.6,1.7,0.8c0.9,0.3,1.9,0.5,2.8,0.4c1-0.2,1.9-0.4,2.8-0.8l0.1-0.1c-0.9-0.7-2-1.2-3.1-1.4c-0.3-0.1-0.6-0.1-0.9-0.1
		c0.5-0.3,0.9-0.8,1.3-1.3c0.8-1.1,1.2-2.5,1.3-3.9h-0.1c-1.1,0.3-2.1,0.9-3.1,1.5c-0.3,0.2-0.5,0.4-0.8,0.7c0-0.1,0-0.3-0.1-0.4
		c-0.2-2.1-0.9-4.1-2-5.9c-0.4,1.3-1.4,3.8-1.6,5.5c-0.1,0.3-0.1,0.5-0.1,0.8c-0.2-0.2-0.4-0.3-0.6-0.5c-1.1-0.8-2.5-1.2-3.8-1.3
		l0.1,0.1c0.3,1.1,0.8,2.2,1.5,3.2c0.4,0.6,0.9,1.1,1.6,1.5c-0.4-0.1-0.8-0.1-1.2,0C280.3,20.6,279.3,21.1,278.3,21.8z"/>
	<path class="st2" d="M281.5,20.2c0.4-0.1,0.8-0.1,1.1,0l-0.1,0.5c-1.7-1.1-2.5-2.9-3.2-4.9c-0.1-0.2,0.1-0.3,0.2-0.3h0.1
		c1.7,0.1,3.3,0.8,4.6,1.9l-0.4,0.2c0.1-2.2,0.9-4.3,1.6-6.3c0.1-0.2,0.2-0.2,0.3-0.2c0.1,0,0.1,0.1,0.2,0.1c1.2,2,1.9,4.2,2.1,6.4
		l-0.4-0.2c1.1-1.1,2.6-1.7,4.1-2.3c0.2-0.1,0.3,0.1,0.3,0.2v0.1c-0.2,2.1-0.9,4-2.7,5.3l-0.1-0.5c1.5,0.1,2.9,0.6,4.1,1.5
		c0.1,0.1,0.2,0.3,0.1,0.4s-0.1,0.1-0.2,0.1c-1.4,0.5-2.8,1.1-4.4,0.9c-1.1-0.2-2.2-0.7-3.2-1.2c-0.1-0.1-0.2-0.3-0.1-0.4
		c0-0.1,0.1-0.1,0.1-0.1l0,0l0.1,0.5l0,0l0.2-0.5l0,0c0.1,0.1,0.2,0.2,0.1,0.4c0,0.1-0.1,0.1-0.1,0.1c-1,0.5-2.1,0.9-3.2,1.1
		c-1.5,0.2-3-0.3-4.4-0.9c-0.2-0.1-0.2-0.2-0.2-0.3c0-0.1,0.1-0.1,0.1-0.2c0.9-0.7,2-1.1,3.2-1.4c0.3-0.1,0.5,0.4,0.1,0.5
		c-1.1,0.2-2.2,0.7-3.1,1.3l-0.1-0.5c1.3,0.5,2.6,1,4,0.9c1.1-0.2,2.2-0.5,3.2-1.1v0.5l0,0c-0.2-0.2-0.1-0.6,0.2-0.5l0,0
		c0.2,0.1,0.2,0.2,0.2,0.3c0,0.1-0.1,0.1-0.1,0.2l0,0v-0.4c1,0.6,2.1,1,3.2,1.1c1.4,0.1,2.7-0.4,4-0.9l-0.1,0.5
		c-1.1-0.9-2.5-1.4-3.9-1.4c-0.2,0-0.3-0.2-0.3-0.3c0-0.1,0.1-0.2,0.1-0.2c1.6-1.1,2.2-2.9,2.4-4.9l0.3,0.3c-1.4,0.5-2.8,1-3.9,2.2
		c-0.1,0.1-0.3,0.1-0.4,0s-0.1-0.1-0.1-0.2c-0.2-2.2-0.9-4.3-2-6.2l0.5-0.1c-0.8,2-1.5,4-1.6,6.2c0,0.2-0.1,0.3-0.3,0.3
		c-0.1,0-0.1-0.1-0.2-0.1c-1.1-1-2.7-1.7-4.2-1.8l0.3-0.3c0.6,1.8,1.4,3.5,2.9,4.6c0.2,0.1,0.2,0.5-0.1,0.5c-0.4-0.1-0.8-0.1-1.1,0
		C281.1,20.8,281.1,20.2,281.5,20.2z"/>
	<path class="st3" d="M289.4,37.3L289.4,37.3c0.4,0.5,0.8,0.8,1.3,1.1c0.4,0.3,1,0.4,1.5,0.5c0.3,0,0.7,0,1.1,0l0,0
		c0.2,0.3,0.4,0.5,0.7,0.8c0.4,0.4,0.9,0.7,1.4,0.9s1.1,0.2,1.7,0.2h0.1c-0.3-0.6-0.8-1.1-1.3-1.5c-0.2-0.1-0.3-0.2-0.4-0.2
		c0.3-0.1,0.7-0.2,0.9-0.3c0.7-0.4,1.2-1,1.6-1.7h-0.1c-0.7-0.1-1.3-0.1-2,0.1c-0.2,0.1-0.4,0.1-0.5,0.2c0.1-0.1,0.1-0.1,0.1-0.2
		c0.4-1.1,0.5-2.3,0.3-3.5c-0.8,0.8-1.5,1.6-2.1,2.5c-0.1,0.1-0.2,0.3-0.2,0.4c-0.1-0.2-0.1-0.3-0.2-0.4c-0.4-0.7-1-1.2-1.7-1.6l0,0
		c-0.1,0.7-0.1,1.3,0,2c0.1,0.4,0.2,0.8,0.5,1.1c-0.2-0.1-0.4-0.2-0.6-0.3C290.7,37.2,290,37.2,289.4,37.3z"/>
	<path class="st3" d="M291.4,37.2c0.2,0.1,0.4,0.2,0.6,0.3l-0.2,0.2c-0.6-1-0.6-2.1-0.5-3.3c0-0.1,0.1-0.2,0.2-0.1c0,0,0,0,0.1,0
		c0.9,0.4,1.5,1.2,1.9,2.1h-0.2c0.7-1.1,1.4-2.1,2.3-2.9c0.1-0.1,0.2-0.1,0.2,0c0.1,0,0.1,0.1,0.1,0.1c0.2,1.3,0,2.6-0.4,3.8
		l-0.2-0.2c0.9-0.3,1.7-0.4,2.7-0.2c0.1,0,0.1,0.1,0.1,0.2c0,0,0,0,0,0.1c-0.5,1-1.5,1.9-2.7,2.1l0.1-0.3c0.8,0.4,1.4,1,1.8,1.7
		c0.1,0.1,0,0.2-0.1,0.2s-0.1,0-0.1,0c-0.9,0.1-1.7-0.2-2.5-0.6c-0.5-0.4-1-0.8-1.4-1.4c-0.1-0.1,0-0.2,0.1-0.2l0,0l-0.1,0.3l0,0
		l0.2-0.2l0,0c0.1,0.1,0,0.2-0.1,0.2c-0.7,0.1-1.3,0-2-0.2c-0.8-0.3-1.5-0.8-2.1-1.5c-0.1-0.1-0.1-0.2,0-0.2c0-0.1,0.1-0.1,0.1-0.1
		C290,37,290.7,37.1,291.4,37.2c0.2,0,0.1,0.3-0.1,0.3c-0.7-0.2-1.3-0.2-1.9,0l0.1-0.3c0.5,0.6,1.1,1.1,1.9,1.4
		c0.6,0.2,1.3,0.3,1.9,0.2l-0.1,0.2l0,0c-0.1-0.1,0.1-0.3,0.2-0.2l0,0c0.1,0.1,0.1,0.2,0,0.2c0,0.1-0.1,0.1-0.1,0.1l0,0l0.1-0.2
		c0.4,0.5,0.9,1,1.4,1.4c0.7,0.3,1.5,0.5,2.3,0.5l-0.2,0.2c-0.4-0.7-0.9-1.3-1.6-1.6c-0.1-0.1-0.1-0.1-0.1-0.2
		c0-0.1,0.1-0.1,0.1-0.1c1-0.3,1.9-1,2.4-2l0.1,0.2c-0.8-0.1-1.7-0.1-2.5,0.2c-0.1,0.1-0.2-0.1-0.2-0.2c0.4-1.2,0.5-2.5,0.4-3.7
		l0.3,0.1c-0.9,0.8-1.7,1.8-2.3,2.8c-0.1,0.1-0.1,0.1-0.2,0.1c-0.1,0-0.1-0.1-0.1-0.1c-0.4-0.8-1-1.5-1.8-1.9l0.2-0.1
		c-0.1,1.1-0.1,2.1,0.5,3.1c0.1,0.1-0.1,0.3-0.2,0.2c-0.2-0.1-0.4-0.2-0.6-0.3C291.1,37.4,291.2,37.2,291.4,37.2z"/>
	<path class="st3" d="M294.1,37.7c-0.3,1.1-0.9,2.2-1.7,3.1c-0.1,0.2-0.3-0.1-0.2-0.2c0.8-0.9,1.3-1.9,1.6-3
		C293.8,37.4,294.1,37.5,294.1,37.7L294.1,37.7z"/>
	<path class="st4" d="M298,45.1L298,45.1c-0.2,0.7-0.3,1.3-0.3,1.9c0,0.6,0.1,1.1,0.4,1.7c0.2,0.3,0.4,0.7,0.6,1l0,0
		c-0.2,0.4-0.3,0.7-0.4,1.1c-0.2,0.5-0.2,1.1,0,1.7c0.2,0.6,0.4,1.1,0.7,1.6v0.1c0.4-0.6,0.6-1.3,0.7-2c0-0.2,0-0.4,0-0.5
		c0.2,0.3,0.5,0.5,0.8,0.7c0.8,0.4,1.6,0.5,2.5,0.5v-0.1c-0.3-0.7-0.7-1.3-1.1-1.8c-0.2-0.2-0.3-0.3-0.5-0.4l0.2-0.1
		c1.3-0.3,2.5-0.9,3.4-1.7c-1.1-0.3-2.3-0.5-3.5-0.5c-0.2,0-0.3,0-0.5,0c0.1-0.1,0.2-0.3,0.3-0.4c0.4-0.8,0.6-1.6,0.5-2.4l-0.1,0.1
		c-0.7,0.3-1.3,0.7-1.8,1.1c-0.3,0.3-0.6,0.7-0.8,1c0-0.2-0.1-0.5-0.1-0.7C298.9,46.2,298.5,45.6,298,45.1z"/>
	<path class="st4" d="M299.2,46.9c0.1,0.2,0.1,0.5,0.1,0.7l-0.3-0.1c0.6-1.1,1.6-1.7,2.7-2.3c0.1-0.1,0.2,0,0.2,0.1l0,0
		c0.1,1-0.2,2.1-0.8,2.9l-0.2-0.3c1.4,0,2.7,0.2,4,0.5c0.1,0,0.2,0.1,0.1,0.2c0,0.1-0.1,0.1-0.1,0.1c-1.1,0.9-2.4,1.5-3.8,1.7
		l0.1-0.3c0.8,0.7,1.3,1.4,1.7,2.3c0.1,0.1,0,0.2-0.1,0.2h-0.1c-1.3,0.1-2.5-0.3-3.4-1.3l0.3-0.1c0.1,0.9-0.2,1.9-0.6,2.6
		c-0.1,0.1-0.1,0.1-0.2,0.1s-0.1-0.1-0.1-0.1c-0.5-0.8-0.8-1.7-0.8-2.6c0.1-0.7,0.2-1.4,0.5-2c0.1-0.1,0.2-0.1,0.3,0l0,0l-0.3,0.1
		l0,0l0.3,0.1l0,0c-0.1,0.1-0.2,0.1-0.2,0.1s-0.1,0-0.1-0.1c-0.4-0.6-0.7-1.2-0.9-1.9c-0.2-0.9-0.1-1.9,0.3-2.7
		c0-0.1,0.1-0.2,0.2-0.1c0.1,0,0.1,0.1,0.1,0.1C298.6,45.6,299,46.2,299.2,46.9c0.1,0.2-0.3,0.3-0.3,0.1c-0.2-0.7-0.5-1.3-1-1.7
		l0.3-0.1c-0.3,0.8-0.4,1.6-0.3,2.5c0.2,0.7,0.5,1.3,0.9,1.9h-0.3l0,0c0.1-0.2,0.3-0.1,0.3,0.1l0,0c0,0.1-0.1,0.2-0.2,0.1
		c-0.1,0-0.1-0.1-0.1-0.1l0,0l0.3-0.1c-0.3,0.7-0.4,1.3-0.5,2c0.1,0.8,0.4,1.6,0.8,2.3h-0.3c0.4-0.7,0.7-1.6,0.6-2.5
		c0-0.2,0.2-0.2,0.3-0.1c0.9,0.8,2,1.2,3.2,1.1l-0.1,0.2c-0.3-0.8-0.9-1.6-1.6-2.2c-0.1-0.1-0.1-0.2-0.1-0.2c0-0.1,0.1-0.1,0.1-0.1
		c1.3-0.3,2.6-0.8,3.6-1.6l0.1,0.3c-1.3-0.4-2.6-0.5-3.9-0.5c-0.1,0.1-0.2,0-0.2-0.1c-0.1-0.1,0-0.2,0.1-0.2
		c0.5-0.8,0.8-1.7,0.8-2.7l0.2,0.1c-1,0.5-2,1.1-2.6,2.1c-0.1,0.1-0.3,0.1-0.3-0.1c0-0.2-0.1-0.5-0.1-0.7
		C298.9,46.8,299.2,46.7,299.2,46.9z"/>
	<path class="st4" d="M300.2,49.7c-1.3,0.3-2.5,0.4-3.8,0.2c-0.1,0-0.2-0.1-0.1-0.2c0-0.1,0.1-0.2,0.2-0.1l0,0
		c1.3,0.2,2.5,0.2,3.7-0.2C300.4,49.3,300.4,49.6,300.2,49.7z"/>
	<path class="st4" d="M295.3,52.2L295.3,52.2c-0.5,0-1,0.1-1.4,0.1c-0.4,0.1-0.8,0.3-1.1,0.7c-0.2,0.2-0.4,0.4-0.6,0.7l0,0
		c-0.3-0.1-0.6-0.1-0.9-0.1c-0.4,0-0.9,0.1-1.3,0.4c-0.4,0.2-0.8,0.5-1.1,0.9l0,0c0.5,0.2,1.1,0.2,1.6,0.1c0.1-0.1,0.3-0.1,0.4-0.1
		c-0.2,0.2-0.3,0.5-0.3,0.8c-0.1,0.7-0.1,1.3,0.2,1.9l0.1-0.1c0.4-0.3,0.8-0.8,1.1-1.2c0.1-0.2,0.2-0.3,0.2-0.4l0.1,0.2
		c0.5,0.9,1.1,1.6,2,2.2c0-0.9-0.1-1.8-0.3-2.7c-0.1-0.1-0.1-0.2-0.1-0.3c0.1,0.1,0.2,0.1,0.3,0.1c0.7,0.1,1.3,0.1,1.9-0.1l-0.1-0.1
		c-0.4-0.4-0.8-0.8-1.2-1.1c-0.3-0.2-0.7-0.3-1-0.3c0.2-0.1,0.3-0.1,0.5-0.2C294.6,53,295,52.7,295.3,52.2z"/>
	<path class="st4" d="M294.2,53.5c-0.2,0.1-0.3,0.2-0.5,0.2l-0.1-0.2c0.9,0.2,1.7,0.8,2.3,1.5c0.1,0.1,0.1,0.2,0,0.2l0,0
		c-0.8,0.3-1.6,0.3-2.3,0l0.2-0.2c0.3,1,0.4,2,0.4,3.1c0,0.1-0.1,0.1-0.1,0.1H294c-0.9-0.7-1.6-1.5-2.1-2.4h0.2
		c-0.3,0.7-0.8,1.3-1.4,1.7c-0.1,0.1-0.2,0.1-0.2-0.1l0,0c-0.3-0.9-0.3-2,0.2-2.8l0.2,0.2c-0.7,0.3-1.4,0.3-2.1,0.1
		c-0.1,0-0.1-0.1-0.1-0.2c0,0,0-0.1,0.1-0.1c0.5-0.5,1.1-0.9,1.7-1.1c0.5-0.1,1.1-0.1,1.6-0.1c0.1,0,0.1,0.1,0.1,0.2v0.1l0,0
		l-0.1-0.2l0,0v0.3l0,0c-0.1,0-0.2-0.1-0.1-0.2c0.3-0.4,0.7-0.8,1.2-1.1c0.7-0.3,1.4-0.4,2.1-0.4c0.1,0,0.1,0.1,0.2,0.1
		c0,0.1,0,0.1,0,0.1C295.1,52.8,294.7,53.1,294.2,53.5c-0.1,0.1-0.3-0.1-0.2-0.2c0.4-0.3,0.8-0.7,1.1-1.1l0.1,0.2
		c-0.7-0.1-1.3,0.1-1.9,0.3c-0.5,0.3-0.9,0.7-1.2,1.1l-0.1-0.2l0,0c0.1,0.1,0.2,0.2,0,0.3l0,0c-0.1,0-0.1-0.1-0.1-0.1v-0.1l0,0
		l0.1,0.2c-0.5-0.1-1.1-0.1-1.6,0.1c-0.6,0.2-1.1,0.6-1.6,1.1l-0.1-0.2c0.7,0.2,1.3,0.2,2-0.1c0.1,0,0.2,0,0.2,0.1s0,0.1,0,0.1
		c-0.4,0.8-0.5,1.7-0.2,2.6l-0.2-0.1c0.5-0.4,1-1,1.3-1.6c0.1-0.1,0.2-0.1,0.2,0c0.5,0.9,1.2,1.7,2,2.3l-0.2,0.1c0-1-0.1-2-0.4-3
		c0-0.1,0-0.2,0.1-0.2s0.1,0,0.1,0c0.7,0.3,1.5,0.3,2.2,0l-0.1,0.2c-0.5-0.7-1.3-1.2-2.1-1.4c-0.1,0-0.2-0.2-0.1-0.2
		c0.2-0.1,0.3-0.1,0.5-0.2C294.2,53.1,294.3,53.4,294.2,53.5z"/>
	<path class="st4" d="M292.4,54.8c-0.5-0.8-0.8-1.8-0.9-2.8c0-0.1,0.1-0.1,0.2-0.1c0.1,0,0.1,0.1,0.1,0.1c0.1,1,0.4,1.9,0.9,2.7
		C292.7,54.9,292.5,55,292.4,54.8L292.4,54.8z"/>
	<path class="st3" d="M291.4,42.6L291.4,42.6c-0.3,0-0.7,0-0.9,0.1c-0.3,0.1-0.5,0.2-0.8,0.4c-0.1,0.1-0.3,0.3-0.4,0.4l0,0
		c-0.2,0-0.4,0-0.5,0c-0.3,0-0.5,0.1-0.8,0.2c-0.3,0.2-0.5,0.3-0.7,0.5l0,0c0.3,0.1,0.7,0.1,1,0c0.1,0,0.2-0.1,0.3-0.1
		c-0.1,0.2-0.2,0.3-0.2,0.5c-0.1,0.4-0.1,0.9,0.1,1.3l0,0c0.3-0.2,0.5-0.5,0.7-0.8c0.1-0.1,0.1-0.2,0.1-0.3l0.1,0.1
		c0.3,0.5,0.8,1,1.3,1.4c0-0.6-0.1-1.1-0.2-1.7c0-0.1-0.1-0.2-0.1-0.2c0.1,0.1,0.2,0.1,0.2,0.1c0.4,0.1,0.8,0.1,1.2-0.1l0,0
		c-0.2-0.3-0.5-0.5-0.8-0.7c-0.2-0.1-0.4-0.2-0.6-0.2c0.1-0.1,0.2-0.1,0.3-0.2C291,43.2,291.3,42.9,291.4,42.6z"/>
	<path class="st3" d="M290.7,43.4c-0.1,0.1-0.2,0.1-0.3,0.2v-0.2c0.6,0.2,1.1,0.5,1.5,1c0.1,0.1,0,0.1,0,0.1l0,0
		c-0.5,0.2-1,0.2-1.5,0l0.1-0.1c0.2,0.7,0.3,1.3,0.3,2c0,0.1-0.1,0.1-0.1,0.1h-0.1c-0.5-0.4-1-0.9-1.4-1.6h0.1
		c-0.2,0.4-0.5,0.8-0.9,1.1c-0.1,0-0.1,0-0.1,0l0,0c-0.2-0.6-0.2-1.3,0.1-1.8l0.1,0.1c-0.4,0.2-0.9,0.2-1.3,0.1
		c-0.1,0-0.1-0.1-0.1-0.1v-0.1c0.3-0.3,0.7-0.6,1.1-0.8c0.3-0.1,0.7-0.1,1-0.1c0.1,0,0.1,0.1,0.1,0.1v0.1l0,0l-0.1-0.1l0,0v0.2l0,0
		c-0.1,0-0.1-0.1-0.1-0.1c0.2-0.3,0.5-0.5,0.8-0.7c0.4-0.2,0.9-0.3,1.4-0.3c0.1,0,0.1,0.1,0.1,0.1v0.1
		C291.3,42.9,291.1,43.2,290.7,43.4c-0.1,0.1-0.2-0.1-0.1-0.2c0.3-0.2,0.5-0.4,0.7-0.7l0.1,0.2c-0.4-0.1-0.8,0.1-1.2,0.2
		c-0.3,0.2-0.5,0.4-0.8,0.7l-0.1-0.1l0,0c0.1,0,0.1,0.2,0,0.2l0,0c-0.1,0-0.1,0-0.1-0.1v-0.1l0,0l0.1,0.1c-0.3-0.1-0.7,0-1,0.1
		c-0.4,0.2-0.7,0.4-1,0.7l-0.1-0.2c0.4,0.1,0.9,0.1,1.3-0.1c0.1-0.1,0.1,0.1,0.1,0.1c-0.3,0.5-0.3,1.1-0.1,1.6l-0.1-0.1
		c0.3-0.3,0.6-0.6,0.8-1c0-0.1,0.1-0.1,0.1-0.1s0.1,0,0.1,0.1c0.3,0.6,0.8,1.1,1.3,1.5l-0.1,0.1c0-0.7-0.1-1.3-0.3-1.9
		c0-0.1,0-0.1,0.1-0.1h0.1c0.4,0.2,0.9,0.2,1.4,0l-0.1,0.1c-0.3-0.4-0.8-0.8-1.4-0.9c-0.1,0-0.1-0.1,0-0.2c0.1-0.1,0.2-0.1,0.3-0.2
		C290.8,43.2,290.8,43.4,290.7,43.4z"/>
	<path class="st3" d="M289.6,44.3c-0.3-0.5-0.5-1.1-0.6-1.8c0-0.1,0.1-0.1,0.1-0.1c0.1,0,0.1,0.1,0.1,0.1l0,0
		c0.1,0.6,0.3,1.2,0.6,1.7C289.8,44.3,289.6,44.4,289.6,44.3L289.6,44.3z"/>
	<path class="st1" d="M175.7,81.5h3.8c0.4,0,0.9,0.1,1.2,0.4c0.3,0.3,0.6,0.6,0.8,1c0.2,0.4,0.3,0.8,0.3,1.3c0,0.4-0.1,0.9-0.3,1.3
		c-0.2,0.4-0.4,0.8-0.8,1.2c-0.3,0.4-0.7,0.7-1.1,0.9c-0.4,0.2-0.9,0.3-1.4,0.3h-2.3l-0.7,3.3h-1.5L175.7,81.5z M178.5,86.4
		c0.2,0,0.4-0.1,0.7-0.2c0.2-0.1,0.4-0.3,0.5-0.5c0.2-0.2,0.3-0.4,0.4-0.7s0.2-0.5,0.2-0.8s-0.1-0.5-0.2-0.7s-0.2-0.3-0.4-0.5
		c-0.2-0.1-0.3-0.2-0.5-0.2H177l-0.8,3.5L178.5,86.4L178.5,86.4z"/>
	<path class="st1" d="M183.1,91.2c-0.3,0-0.7-0.1-0.9-0.3c-0.2-0.2-0.4-0.5-0.3-0.9c0-0.1,0-0.2,0-0.2c0-0.1,0-0.2,0.1-0.2l1.7-8.3
		h1.5l-1.7,7.7c0,0.1,0,0.1-0.1,0.1c0,0.1,0,0.1,0,0.1c-0.1,0.3,0.2,0.5,0.4,0.5c0.1,0,0.1,0,0.1,0c0.1,0,0.2,0,0.3-0.1
		c0.2-0.1,0.3-0.1,0.4-0.1l-0.1,1.1c-0.3,0.1-0.5,0.2-0.8,0.2C183.7,91.1,183.5,91.2,183.1,91.2z"/>
	<path class="st1" d="M188.3,91.2c-0.5,0-0.9-0.1-1.4-0.4c-0.4-0.3-0.7-0.6-0.9-1c-0.2-0.4-0.3-0.9-0.3-1.5c0-0.5,0.1-1.1,0.3-1.6
		c0.2-0.5,0.5-1,0.9-1.4c0.3-0.4,0.8-0.7,1.3-1c0.4-0.2,1-0.4,1.5-0.4s0.9,0.1,1.3,0.4c0.3,0.3,0.6,0.6,0.8,1l0.3-1.3h1.5l-1.1,5.2
		c0,0.1,0,0.1,0,0.1c0,0.1,0,0.1,0,0.1c0,0.2,0.1,0.3,0.3,0.3l-0.3,1.3h-0.4c-0.1,0-0.2,0-0.3,0c-0.2,0-0.4-0.1-0.7-0.2
		c-0.2-0.1-0.2-0.3-0.2-0.5c0-0.1,0-0.1,0-0.2s0-0.2,0.1-0.2c0-0.1,0.1-0.2,0.1-0.3c-0.3,0.4-0.8,0.8-1.3,1
		C189.3,91,188.8,91.2,188.3,91.2z M189,89.9c0.2,0,0.4-0.1,0.5-0.1c0.2-0.1,0.4-0.2,0.6-0.3c0.2-0.1,0.4-0.3,0.5-0.4
		s0.3-0.3,0.4-0.5l0.4-1.9c-0.1-0.3-0.1-0.5-0.3-0.8s-0.3-0.4-0.5-0.5s-0.4-0.2-0.7-0.2s-0.7,0.1-1,0.2c-0.3,0.2-0.6,0.4-0.8,0.7
		s-0.4,0.6-0.5,0.9s-0.2,0.7-0.2,1s0.1,0.7,0.2,0.9c0.1,0.3,0.3,0.5,0.5,0.7C188.4,89.8,188.6,89.9,189,89.9L189,89.9z"/>
	<path class="st1" d="M196.9,91.2c-0.5,0-1.1-0.1-1.5-0.4c-0.4-0.3-0.8-0.7-0.9-1.1c-0.2-0.4-0.3-1-0.3-1.5s0.1-1.1,0.3-1.6
		c0.4-1,1.3-1.9,2.3-2.3c0.5-0.2,1.1-0.4,1.7-0.3c0.6-0.1,1.2,0.1,1.7,0.5c0.4,0.3,0.8,0.8,0.9,1.3l-1.6,0.4
		c-0.1-0.3-0.2-0.5-0.5-0.7c-0.2-0.2-0.5-0.3-0.8-0.2c-0.3,0-0.7,0.1-0.9,0.2c-0.3,0.2-0.6,0.4-0.8,0.6c-0.2,0.3-0.4,0.6-0.5,0.9
		c-0.2,0.3-0.2,0.7-0.2,1.1c0,0.3,0.1,0.7,0.2,1c0.1,0.3,0.3,0.5,0.5,0.7c0.2,0.2,0.5,0.3,0.8,0.2c0.2,0,0.4-0.1,0.7-0.1
		c0.2-0.1,0.4-0.2,0.6-0.3c0.2-0.1,0.3-0.3,0.4-0.5l1.4,0.4c-0.2,0.4-0.5,0.7-0.8,0.9c-0.3,0.3-0.7,0.5-1.1,0.7
		C197.9,91.1,197.4,91.2,196.9,91.2z"/>
	<path class="st1" d="M204.1,91.2c-0.5,0-1-0.1-1.5-0.4c-0.4-0.3-0.8-0.6-1-1c-0.2-0.5-0.3-1-0.3-1.5s0.1-1.1,0.3-1.6s0.5-1,0.9-1.4
		c0.8-0.8,1.9-1.3,3.1-1.3c0.4,0,0.9,0.1,1.3,0.2c0.3,0.1,0.7,0.3,0.9,0.7c0.5,0.9,0.3,2-0.5,2.6c-0.1,0-0.1,0.1-0.1,0.1
		c-0.9,0.4-2,0.6-2.9,0.5c-0.3,0-0.5,0-0.9,0c-0.3,0-0.7-0.1-1.1-0.1l0.2-1l1,0.1c0.3,0,0.5,0,0.8,0c0.5,0,1-0.1,1.5-0.2
		c0.3-0.1,0.6-0.2,0.8-0.4c0.2-0.2,0.2-0.4,0.2-0.6s-0.1-0.3-0.2-0.5c-0.1-0.1-0.3-0.2-0.4-0.3c-0.3-0.1-0.5-0.1-0.7-0.1
		c-0.4,0-0.8,0.1-1.1,0.3c-0.3,0.2-0.6,0.4-0.9,0.7c-0.2,0.3-0.4,0.7-0.5,1c-0.1,0.3-0.2,0.8-0.2,1.2c0,0.3,0.1,0.7,0.2,0.9
		c0.1,0.3,0.3,0.5,0.5,0.7c0.3,0.2,0.6,0.3,0.9,0.2c0.4,0,0.8-0.1,1.1-0.3c0.3-0.2,0.7-0.4,0.9-0.8l1.2,0.4
		c-0.2,0.4-0.5,0.7-0.9,0.9c-0.4,0.3-0.8,0.5-1.2,0.7C205,91.1,204.6,91.2,204.1,91.2z"/>
	<path class="st1" d="M210.9,91.2c-0.5,0-1.1-0.1-1.6-0.3c-0.4-0.2-0.9-0.4-1.2-0.8l0.8-0.9c0.3,0.3,0.7,0.5,1,0.7
		c0.4,0.2,0.8,0.2,1.1,0.2c0.3,0,0.5-0.1,0.8-0.1c0.2-0.1,0.4-0.2,0.5-0.4c0.1-0.2,0.2-0.3,0.2-0.5c0-0.3-0.1-0.5-0.3-0.6
		c-0.3-0.2-0.7-0.3-1.1-0.4c-0.4-0.2-0.8-0.3-1.1-0.4c-0.3-0.1-0.5-0.3-0.7-0.5c-0.2-0.2-0.2-0.5-0.2-0.8c0-0.5,0.2-0.9,0.4-1.3
		c0.3-0.4,0.7-0.7,1.1-0.9c0.9-0.4,2-0.4,2.9-0.1c0.4,0.2,0.7,0.4,1,0.7l-0.8,0.9c-0.2-0.2-0.5-0.4-0.8-0.5c0-0.1-0.4-0.2-0.7-0.2
		c-0.3,0-0.5,0.1-0.8,0.1c-0.2,0.1-0.4,0.2-0.5,0.4c-0.1,0.2-0.2,0.4-0.2,0.6s0.1,0.4,0.3,0.5c0.3,0.2,0.7,0.3,1,0.3
		c0.4,0.1,0.8,0.3,1.2,0.4c0.3,0.1,0.5,0.3,0.8,0.5c0.2,0.2,0.3,0.5,0.3,0.9s-0.1,0.9-0.4,1.2c-0.3,0.4-0.7,0.7-1.1,0.9
		C212,91.1,211.4,91.2,210.9,91.2z"/>
	<path class="st1" d="M217.2,92.9c0.3-0.1,0.6-0.1,0.9-0.2c0.2-0.1,0.4-0.2,0.6-0.3c0.2-0.2,0.4-0.4,0.5-0.7l0.4-0.5l-1.2-7.2h1.5
		l0.8,5.7l0.4-0.8c0.3-0.5,0.6-1,0.9-1.5c0.3-0.4,0.4-0.8,0.6-1.2c0.2-0.4,0.3-0.8,0.4-1.1c0.1-0.4,0.2-0.8,0.3-1.1h1.5
		c-0.1,0.4-0.3,0.8-0.4,1.2c-0.2,0.4-0.3,0.8-0.5,1.2c-0.2,0.4-0.4,0.9-0.8,1.4c-0.3,0.5-0.7,1.1-1.1,1.9l-1.1,1.7
		c-0.3,0.4-0.5,0.9-0.9,1.3c-0.3,0.3-0.5,0.6-0.9,0.8c-0.3,0.2-0.5,0.3-0.9,0.4c-0.3,0.1-0.7,0.2-1,0.2V92.9z"/>
	<path class="st1" d="M227.6,91.2c-0.5,0-1.1-0.1-1.6-0.4c-0.4-0.3-0.8-0.7-0.9-1.1c-0.2-0.4-0.3-1-0.3-1.5c0-1.1,0.4-2.2,1.2-3
		c0.4-0.4,0.8-0.7,1.4-0.9c0.5-0.2,1.1-0.3,1.6-0.3s1.1,0.1,1.6,0.4c0.4,0.3,0.8,0.7,0.9,1.1c0.2,0.5,0.3,1,0.3,1.5
		s-0.1,1.1-0.3,1.6c-0.4,1-1.3,1.9-2.2,2.3C228.7,91.1,228.1,91.2,227.6,91.2z M227.8,89.9c0.3,0,0.7-0.1,0.9-0.2
		c0.3-0.2,0.5-0.3,0.8-0.6c0.2-0.3,0.4-0.5,0.5-0.9c0.2-0.4,0.2-0.7,0.2-1.1c0-0.3-0.1-0.7-0.2-1c-0.1-0.3-0.3-0.5-0.5-0.7
		c-0.3-0.2-0.5-0.3-0.9-0.2c-0.3,0-0.6,0.1-0.9,0.2c-0.3,0.2-0.5,0.3-0.8,0.6c-0.2,0.3-0.4,0.5-0.5,0.9c-0.1,0.3-0.2,0.7-0.2,1.1
		c0,0.3,0.1,0.7,0.2,1c0.1,0.3,0.3,0.5,0.5,0.7C227.2,89.8,227.5,89.9,227.8,89.9L227.8,89.9z"/>
	<path class="st1" d="M234.3,91.2c-1.1,0-1.6-0.6-1.6-1.7c0-0.2,0-0.3,0.1-0.5c0-0.2,0.1-0.4,0.1-0.6l0.9-4.3h1.5l-0.9,4
		c-0.1,0.3-0.1,0.5-0.1,0.8c0,0.7,0.3,1.1,0.9,1.1c0.3,0,0.5-0.1,0.8-0.2s0.5-0.3,0.8-0.5s0.5-0.5,0.7-0.8l0.9-4.4h1.5l-1.1,5.2
		c0,0.1,0,0.1,0,0.1c0,0.1,0,0.1,0,0.1c0,0.2,0.1,0.3,0.3,0.3l-0.3,1.3l-0.3,0.1h-0.3c-0.2,0-0.4-0.1-0.7-0.2
		c-0.2-0.1-0.2-0.3-0.2-0.5c0-0.1,0-0.1,0-0.2s0-0.2,0.1-0.3c0.1-0.1,0.1-0.2,0.1-0.4c-0.4,0.5-0.9,0.9-1.4,1.1
		C235.5,91,234.9,91.2,234.3,91.2z"/>
	<path class="st1" d="M246.5,91.2c-0.5,0-1.1-0.1-1.5-0.4c-0.4-0.3-0.8-0.7-0.9-1.1c-0.2-0.4-0.3-1-0.3-1.5s0.1-1.1,0.3-1.6
		c0.2-0.5,0.5-1,0.9-1.4c0.4-0.4,0.9-0.7,1.4-1c0.5-0.2,1.1-0.4,1.7-0.3c0.6-0.1,1.2,0.1,1.7,0.5c0.4,0.3,0.7,0.8,0.9,1.3l-1.5,0.4
		c-0.1-0.3-0.2-0.5-0.5-0.7c-0.2-0.2-0.5-0.3-0.8-0.2c-0.3,0-0.7,0.1-0.9,0.2c-0.3,0.2-0.6,0.4-0.8,0.6c-0.2,0.3-0.4,0.6-0.5,0.9
		c-0.2,0.3-0.2,0.7-0.2,1.1c0,0.3,0.1,0.7,0.2,1c0.1,0.3,0.3,0.5,0.5,0.7s0.5,0.3,0.8,0.2c0.2,0,0.4-0.1,0.7-0.1
		c0.2-0.1,0.4-0.2,0.6-0.3c0.2-0.1,0.3-0.3,0.4-0.5l1.4,0.4c-0.2,0.4-0.5,0.7-0.8,0.9c-0.3,0.3-0.7,0.5-1.1,0.7
		C247.5,91.1,247,91.2,246.5,91.2z"/>
	<path class="st1" d="M253.5,91.2c-0.5,0-0.9-0.1-1.4-0.4c-0.4-0.3-0.7-0.6-0.9-1c-0.2-0.4-0.3-0.9-0.3-1.5c0-0.5,0.1-1.1,0.3-1.6
		s0.5-1,0.9-1.4c0.3-0.4,0.8-0.7,1.3-1c0.4-0.2,1-0.4,1.5-0.4s0.9,0.1,1.3,0.4c0.3,0.3,0.6,0.6,0.7,1l0.3-1.3h1.5l-1.2,5.2
		c0,0.1,0,0.1,0,0.1c0,0.1,0,0.1,0,0.1c0,0.2,0.1,0.3,0.3,0.3l-0.2,1.3h-0.4c-0.1,0-0.2,0-0.3,0c-0.2,0-0.4-0.1-0.7-0.2
		c-0.2-0.1-0.2-0.3-0.2-0.5c0-0.1,0-0.1,0-0.2s0-0.2,0-0.2c0-0.1,0.1-0.2,0.1-0.3c-0.3,0.4-0.8,0.8-1.3,1
		C254.4,91,254,91.2,253.5,91.2z M254.1,89.9c0.2,0,0.4-0.1,0.6-0.1s0.4-0.2,0.6-0.3c0.2-0.1,0.4-0.3,0.5-0.4
		c0.2-0.2,0.3-0.3,0.4-0.5l0.4-1.9c-0.1-0.3-0.1-0.5-0.3-0.8c-0.2-0.2-0.3-0.4-0.5-0.5s-0.5-0.2-0.7-0.2c-0.3,0-0.7,0.1-1,0.2
		c-0.3,0.2-0.6,0.4-0.8,0.7c-0.2,0.3-0.4,0.6-0.5,0.9c-0.1,0.3-0.2,0.7-0.2,1s0.1,0.7,0.2,0.9c0.1,0.3,0.3,0.5,0.5,0.7
		C253.5,89.8,253.8,89.9,254.1,89.9L254.1,89.9z"/>
	<path class="st1" d="M260.4,84h1.3l-0.2,1.4c0.2-0.3,0.5-0.6,0.8-0.8c0.3-0.2,0.7-0.4,1-0.5c0.3-0.1,0.8-0.2,1.1-0.2
		c0.3,0,0.7,0.1,0.9,0.2c0.2,0.2,0.4,0.3,0.5,0.6c0.1,0.3,0.2,0.5,0.2,0.8c0,0.2,0,0.4-0.1,0.6c-0.1,0.2-0.1,0.4-0.1,0.6L265,91
		h-1.5l0.8-3.9c0.1-0.2,0.1-0.3,0.1-0.4s0-0.3,0-0.4c0-0.3-0.1-0.5-0.2-0.8c-0.2-0.2-0.4-0.3-0.7-0.2c-0.3,0-0.5,0.1-0.8,0.2
		c-0.3,0.2-0.6,0.3-0.8,0.6c-0.3,0.2-0.5,0.5-0.7,0.9l-0.9,4.1h-1.5L260.4,84z"/>
	<path class="st1" d="M270.3,84h1.5l0.7,5.7c0.3-0.5,0.7-1,0.9-1.5c0.2-0.5,0.5-0.9,0.8-1.4c0.3-0.5,0.4-0.9,0.7-1.4
		c0.2-0.5,0.4-1,0.5-1.5h1.4c-0.3,1.2-0.8,2.4-1.5,3.5c-0.7,1.2-1.5,2.4-2.3,3.5h-1.6L270.3,84z"/>
	<path class="st1" d="M278.1,84h1.5l-1.5,7h-1.5L278.1,84z M278.7,81.2h1.5l-0.3,1.6h-1.5L278.7,81.2z"/>
	<path class="st1" d="M282.3,91.2c-0.5,0-1.1-0.1-1.6-0.3c-0.4-0.2-0.9-0.4-1.2-0.8l0.8-0.9c0.3,0.3,0.7,0.5,1,0.7
		c0.4,0.2,0.8,0.2,1.1,0.2c0.3,0,0.5-0.1,0.8-0.1c0.2-0.1,0.4-0.2,0.5-0.4c0.1-0.2,0.2-0.3,0.2-0.5c0-0.3-0.1-0.5-0.3-0.6
		c-0.3-0.2-0.7-0.3-1-0.4c-0.4-0.2-0.8-0.3-1.1-0.4c-0.3-0.1-0.5-0.3-0.7-0.5c-0.2-0.2-0.2-0.5-0.2-0.8c0-0.5,0.2-0.9,0.4-1.3
		c0.3-0.4,0.7-0.7,1.1-0.9c0.9-0.4,2-0.4,3-0.1c0.4,0.2,0.7,0.4,1,0.7l-0.8,0.9c-0.2-0.2-0.5-0.4-0.8-0.5c-0.3-0.1-0.6-0.2-0.9-0.2
		c-0.3,0-0.5,0.1-0.8,0.1c-0.2,0.1-0.4,0.2-0.5,0.4c-0.1,0.2-0.2,0.4-0.2,0.6s0.1,0.4,0.3,0.5c0.3,0.2,0.6,0.3,1,0.3
		c0.4,0.1,0.8,0.3,1.2,0.4c0.3,0.1,0.5,0.3,0.8,0.5c0.2,0.3,0.3,0.5,0.2,0.9c0,0.4-0.1,0.9-0.4,1.2c-0.3,0.4-0.7,0.7-1.1,0.9
		C283.4,91.1,282.8,91.2,282.3,91.2z"/>
	<path class="st1" d="M287.7,84h1.5l-1.5,7h-1.5L287.7,84z M288.3,81.2h1.5l-0.3,1.6H288L288.3,81.2z"/>
	<path class="st1" d="M290.1,90c0-0.1,0-0.2,0-0.2s0-0.2,0.1-0.2l0.9-4.4h-0.9l0.3-1.1h0.9l0.5-2.3h1.5l-0.5,2.3h1.5l-0.2,1.1h-1.7
		l-0.8,3.9c0,0.1,0,0.1,0,0.1v0.1c0,0.2,0.1,0.3,0.2,0.4s0.3,0.1,0.4,0.1c0.1,0,0.3,0,0.4-0.1l0.3-0.1l0.3-0.1l0.1,1.1
		c-0.2,0.1-0.3,0.2-0.5,0.2c-0.2,0.1-0.4,0.1-0.7,0.2c-0.2,0.1-0.5,0.1-0.7,0.1c-0.3,0-0.7-0.1-1-0.3C290.2,90.7,290,90.4,290.1,90z
		"/>
	<path class="st1" d="M299,84h1.5l-1.5,7h-1.5L299,84z M299.6,81.2h1.5l-0.3,1.6h-1.5L299.6,81.2z"/>
	<path class="st1" d="M302.2,84h1.3l-0.3,1.4c0.2-0.3,0.5-0.6,0.8-0.8c0.3-0.2,0.7-0.4,1-0.5c0.3-0.1,0.8-0.2,1.1-0.2
		c0.3,0,0.7,0.1,0.9,0.2c0.2,0.2,0.4,0.3,0.5,0.6c0.1,0.3,0.2,0.5,0.2,0.8c0,0.2,0,0.4-0.1,0.6s-0.1,0.4-0.1,0.6l-0.9,4.3h-1.5
		l0.8-3.9c0.1-0.2,0.1-0.3,0.1-0.4s0-0.3,0-0.4c0-0.3-0.1-0.5-0.2-0.8c-0.2-0.2-0.4-0.3-0.7-0.2c-0.3,0-0.5,0.1-0.8,0.2
		c-0.3,0.2-0.6,0.3-0.8,0.6c-0.3,0.2-0.5,0.5-0.7,0.9l-0.9,4.1h-1.5L302.2,84z"/>
	<path class="st1" d="M313.9,81.5h1.5l-1.7,8.2h4.8l-0.3,1.3h-6.3L313.9,81.5z"/>
	<path class="st1" d="M322.2,91.2c-0.5,0-1.1-0.1-1.6-0.4c-0.4-0.3-0.8-0.7-0.9-1.1c-0.2-0.4-0.3-1-0.3-1.5s0.1-1.1,0.3-1.6
		c0.2-0.5,0.5-0.9,0.9-1.4c0.4-0.4,0.8-0.7,1.4-0.9c0.5-0.2,1.1-0.3,1.6-0.3s1.1,0.1,1.6,0.4c0.4,0.3,0.8,0.7,1,1.1
		c0.2,0.5,0.3,1,0.3,1.5s-0.1,1.1-0.3,1.6c-0.2,0.5-0.5,1-0.9,1.4s-0.8,0.7-1.4,0.9C323.3,91.1,322.7,91.2,322.2,91.2z M322.4,89.9
		c0.3,0,0.7-0.1,0.9-0.2c0.2-0.1,0.5-0.3,0.8-0.6c0.3-0.3,0.4-0.5,0.5-0.9c0.2-0.4,0.2-0.7,0.2-1.1c0-0.3-0.1-0.7-0.2-1
		c-0.1-0.3-0.3-0.5-0.5-0.7c-0.3-0.2-0.5-0.3-0.9-0.2c-0.3,0-0.7,0.1-0.9,0.2c-0.2,0.1-0.5,0.3-0.8,0.6c-0.3,0.3-0.4,0.5-0.5,0.9
		c-0.1,0.3-0.2,0.7-0.2,1.1c0,0.3,0.1,0.7,0.2,1c0.1,0.3,0.3,0.5,0.5,0.7C321.8,89.8,322.1,89.9,322.4,89.9L322.4,89.9z"/>
	<path class="st1" d="M328.4,84h1.3l-0.3,1.4c0.2-0.3,0.5-0.6,0.8-0.8c0.3-0.2,0.7-0.4,1-0.5c0.3-0.1,0.8-0.2,1.1-0.2
		c0.3,0,0.7,0.1,0.9,0.2c0.2,0.2,0.4,0.3,0.5,0.6c0.1,0.3,0.2,0.5,0.2,0.8c0,0.2,0,0.4-0.1,0.6s-0.1,0.4-0.1,0.6l-0.9,4.3h-1.3
		l0.8-3.9c0.1-0.2,0.1-0.3,0.1-0.4s0-0.3,0-0.4c0-0.3-0.1-0.5-0.2-0.8c-0.2-0.2-0.4-0.3-0.7-0.2c-0.3,0-0.5,0.1-0.8,0.2
		c-0.3,0.2-0.6,0.3-0.8,0.6c-0.3,0.2-0.5,0.5-0.7,0.9l-0.9,4.1h-1.4L328.4,84z"/>
	<path class="st1" d="M337.4,91.2c-0.5,0-0.9-0.1-1.4-0.4c-0.4-0.3-0.7-0.6-0.9-1c-0.2-0.4-0.3-0.9-0.3-1.5c0-0.5,0.1-1.1,0.3-1.6
		c0.2-0.5,0.5-1,0.9-1.4c0.3-0.4,0.8-0.7,1.3-1c0.4-0.2,1-0.4,1.5-0.4s0.9,0.1,1.3,0.4c0.3,0.3,0.6,0.6,0.7,1l0.9-4.1h1.5l-1.7,8.1
		c0,0.1,0,0.1,0,0.1v0.1c0,0.2,0.1,0.3,0.3,0.3l-0.3,1.2l-0.3,0.1h-0.3c-0.2,0-0.4-0.1-0.7-0.2c-0.2-0.1-0.2-0.3-0.2-0.5
		c0-0.1,0-0.1,0-0.2s0-0.1,0.1-0.2c0-0.1,0.1-0.2,0.1-0.3c-0.3,0.4-0.8,0.8-1.3,1C338.4,91,337.9,91.2,337.4,91.2z M338,89.9
		c0.2,0,0.4-0.1,0.5-0.1c0.2-0.1,0.4-0.2,0.6-0.3c0.2-0.1,0.4-0.3,0.5-0.4c0.2-0.2,0.3-0.3,0.4-0.5l0.4-1.9c-0.1-0.5-0.4-1-0.8-1.3
		c-0.2-0.1-0.4-0.2-0.7-0.2c-0.3,0-0.7,0.1-1,0.2c-0.3,0.2-0.5,0.4-0.8,0.7c-0.2,0.3-0.4,0.6-0.5,0.9s-0.2,0.7-0.2,1
		s0.1,0.7,0.2,0.9c0.1,0.3,0.3,0.5,0.5,0.7C337.4,89.8,337.8,89.9,338,89.9L338,89.9z"/>
	<path class="st1" d="M346,91.2c-0.5,0-1.1-0.1-1.6-0.4c-0.4-0.3-0.8-0.7-0.9-1.1c-0.2-0.5-0.3-1-0.3-1.5c0-1.1,0.4-2.2,1.2-3
		c0.4-0.4,0.8-0.7,1.4-0.9c0.5-0.2,1.1-0.3,1.6-0.3s1.1,0.1,1.6,0.4c0.4,0.3,0.8,0.7,0.9,1.1c0.2,0.5,0.3,1,0.3,1.5
		s-0.1,1.1-0.3,1.6c-0.4,1-1.3,1.9-2.2,2.3C347.1,91.1,346.5,91.2,346,91.2z M346.2,89.9c0.3,0,0.6-0.1,0.9-0.2
		c0.3-0.2,0.5-0.3,0.8-0.6c0.2-0.3,0.4-0.5,0.5-0.9s0.2-0.7,0.2-1.1c0-0.3-0.1-0.7-0.2-1s-0.3-0.5-0.5-0.7c-0.3-0.2-0.5-0.3-0.9-0.2
		c-0.3,0-0.6,0.1-0.9,0.2c-0.3,0.2-0.5,0.3-0.8,0.6c-0.5,0.5-0.8,1.3-0.8,2c0,0.3,0.1,0.7,0.2,1s0.3,0.5,0.5,0.7
		C345.6,89.8,345.9,89.9,346.2,89.9L346.2,89.9z"/>
	<path class="st1" d="M352.2,84h1.3l-0.3,1.4c0.2-0.3,0.5-0.6,0.8-0.8c0.3-0.2,0.7-0.4,1-0.5c0.4-0.1,0.8-0.2,1.1-0.2
		c0.3,0,0.7,0.1,0.9,0.2c0.2,0.2,0.4,0.3,0.5,0.6c0.1,0.3,0.2,0.5,0.2,0.8c0,0.2,0,0.4-0.1,0.6c0,0.2-0.1,0.4-0.1,0.6l-0.9,4.3h-1.5
		l0.8-3.9c0.1-0.2,0.1-0.3,0.1-0.4s0.1-0.3,0-0.4c0-0.3-0.1-0.5-0.2-0.8c-0.2-0.2-0.4-0.3-0.7-0.2c-0.3,0-0.5,0.1-0.8,0.2
		c-0.3,0.2-0.6,0.3-0.8,0.6c-0.3,0.2-0.5,0.5-0.7,0.9l-0.9,4.1h-1.5L352.2,84z"/>
	<path class="st1" d="M358.3,92.3l0.6-1.4h-0.5l0.3-1.6h1.3l-0.3,1.6l-0.8,1.4H358.3z"/>
	<path class="st1" d="M368.6,91.1c-1,0.1-2-0.4-2.6-1.2c-0.3-0.4-0.5-0.8-0.7-1.3c-0.2-0.5-0.2-1-0.2-1.5c0-0.6,0.1-1.1,0.3-1.7
		c0.2-0.5,0.5-1.1,0.8-1.6c0.3-0.5,0.8-0.9,1.2-1.3s1-0.7,1.5-0.9c0.5-0.2,1.1-0.3,1.7-0.3c0.5,0,1,0.1,1.5,0.3
		c0.4,0.2,0.8,0.5,1.1,0.9c0.3,0.4,0.5,0.8,0.7,1.3c0.2,0.5,0.2,1,0.2,1.5c0,0.6-0.1,1.1-0.3,1.7c-0.2,0.5-0.5,1.1-0.8,1.6
		c-0.3,0.5-0.8,0.9-1.2,1.3s-1,0.7-1.5,0.9C369.8,91,369.2,91.1,368.6,91.1z M368.9,89.8c0.5,0,1-0.1,1.5-0.4c0.4-0.3,0.8-0.6,1.1-1
		c0.3-0.4,0.6-0.9,0.8-1.4c0.2-0.5,0.3-1,0.3-1.5c0-0.4-0.1-0.9-0.3-1.4c-0.2-0.4-0.4-0.8-0.8-1c-0.3-0.3-0.8-0.4-1.2-0.4
		c-0.5,0-1,0.1-1.5,0.4c-0.4,0.3-0.9,0.6-1.1,1c-0.3,0.4-0.6,0.9-0.8,1.4c-0.2,0.5-0.3,1-0.3,1.5c0,0.4,0.1,0.9,0.3,1.4
		c0.2,0.4,0.4,0.8,0.8,1C368.1,89.6,368.5,89.8,368.9,89.8L368.9,89.8z"/>
	<path class="st1" d="M375.9,84h1.3l-0.3,1.4c0.2-0.3,0.5-0.6,0.8-0.8c0.3-0.2,0.7-0.4,1-0.5c0.4-0.1,0.8-0.2,1.1-0.2
		c0.3,0,0.7,0.1,0.9,0.2c0.2,0.2,0.4,0.3,0.5,0.6c0.1,0.3,0.2,0.5,0.2,0.8c0,0.2,0,0.4-0.1,0.6s-0.1,0.4-0.1,0.6l-0.7,4.3H379
		l0.8-3.9c0.1-0.2,0.1-0.3,0.1-0.4s0-0.3,0-0.4c0-0.3-0.1-0.5-0.2-0.8c-0.2-0.2-0.4-0.3-0.7-0.2c-0.3,0-0.5,0.1-0.8,0.2
		c-0.3,0.2-0.6,0.3-0.8,0.6c-0.3,0.2-0.5,0.5-0.7,0.9l-0.9,4.1h-1.5L375.9,84z"/>
	<path class="st1" d="M382.7,90c0-0.1,0-0.2,0-0.2s0-0.2,0.1-0.2l0.9-4.4h-0.9l0.3-1.1h0.9l0.5-2.3h1.5l-0.5,2.3h1.5l-0.2,1.1h-1.4
		l-0.8,3.9c0,0.1,0,0.1,0,0.1c0,0.1,0,0.1,0,0.1c0,0.2,0.1,0.3,0.2,0.4s0.3,0.1,0.4,0.1s0.3,0,0.4-0.1l0.3-0.1l0.3-0.1l0.1,1.1
		c-0.2,0.1-0.3,0.2-0.5,0.2c-0.2,0.1-0.4,0.1-0.7,0.2c-0.2,0.1-0.5,0.1-0.7,0.1c-0.3,0-0.7-0.1-1-0.3
		C382.8,90.7,382.7,90.4,382.7,90z"/>
	<path class="st1" d="M389.5,91.2c-0.5,0-0.9-0.1-1.4-0.4c-0.4-0.3-0.7-0.6-0.9-1c-0.2-0.4-0.3-0.9-0.3-1.5c0-0.5,0.1-1.1,0.3-1.6
		c0.2-0.5,0.5-1,0.9-1.4c0.3-0.4,0.8-0.7,1.3-1c0.4-0.2,1-0.4,1.5-0.4s0.9,0.1,1.3,0.4c0.3,0.3,0.6,0.6,0.7,1l0.3-1.3h1.5l-1.1,5.2
		c0,0.1,0,0.1,0,0.1c0,0.1,0,0.1,0,0.1c0,0.2,0.1,0.3,0.3,0.3l-0.3,1.3l-0.3,0.1c-0.1,0-0.2,0-0.3,0c-0.2,0-0.4-0.1-0.7-0.2
		c-0.2-0.1-0.2-0.3-0.2-0.5c0-0.1,0-0.1,0-0.2s0-0.2,0-0.2c0-0.1,0.1-0.2,0.1-0.3c-0.3,0.4-0.8,0.8-1.3,1S390,91.2,389.5,91.2z
		 M390.1,89.9c0.2,0,0.4-0.1,0.5-0.1c0.2-0.1,0.4-0.2,0.6-0.3c0.2-0.1,0.4-0.3,0.5-0.4c0.2-0.2,0.3-0.3,0.4-0.5l0.4-1.9
		c-0.1-0.3-0.1-0.5-0.3-0.8c-0.2-0.2-0.3-0.4-0.5-0.5c-0.2-0.1-0.4-0.2-0.7-0.2c-0.3,0-0.7,0.1-1,0.2c-0.3,0.2-0.6,0.4-0.8,0.7
		c-0.2,0.3-0.4,0.6-0.5,0.9s-0.2,0.7-0.2,1s0.1,0.7,0.2,0.9c0.1,0.3,0.3,0.5,0.5,0.7C389.6,89.8,389.9,89.9,390.1,89.9L390.1,89.9z"
		/>
	<path class="st1" d="M396.5,84h1.4l-0.3,1.6c0.3-0.4,0.7-0.9,1.1-1.1c0.4-0.3,0.8-0.4,1.3-0.4h0.2c0.1,0,0.1,0,0.1,0l-0.3,1.3
		c-0.5,0-1,0.2-1.5,0.4c-0.5,0.2-0.9,0.6-1.1,1.1l-0.9,4.3H395L396.5,84z"/>
	<path class="st1" d="M401.5,84h1.5l-1.5,7H400L401.5,84z M402,81.2h1.5l-0.3,1.6h-1.5L402,81.2z"/>
	<path class="st1" d="M406.3,91.2c-0.5,0-1.1-0.1-1.6-0.4c-0.4-0.3-0.8-0.7-0.9-1.1c-0.2-0.5-0.3-1-0.3-1.5c0-1.1,0.4-2.2,1.2-3
		c0.4-0.4,0.8-0.7,1.4-0.9c0.5-0.2,1.1-0.3,1.6-0.3s1.1,0.1,1.6,0.4c0.4,0.3,0.8,0.7,0.9,1.1c0.2,0.4,0.3,0.9,0.3,1.5
		c0,0.5-0.1,1.1-0.3,1.6c-0.4,1-1.3,1.9-2.2,2.3C407.4,91.1,406.9,91.2,406.3,91.2z M406.6,89.9c0.3,0,0.6-0.1,0.9-0.2
		s0.5-0.3,0.8-0.6c0.2-0.3,0.4-0.5,0.5-0.9s0.2-0.7,0.2-1.1c0-0.3-0.1-0.7-0.2-1c-0.1-0.3-0.3-0.5-0.5-0.7c-0.3-0.2-0.5-0.3-0.9-0.2
		c-0.3,0-0.6,0.1-0.9,0.2c-0.3,0.2-0.5,0.3-0.8,0.6c-0.2,0.3-0.4,0.5-0.5,0.9c-0.1,0.3-0.2,0.7-0.2,1.1c0,0.3,0.1,0.7,0.2,1
		c0.1,0.3,0.3,0.5,0.5,0.7C406,89.8,406.2,89.9,406.6,89.9L406.6,89.9z"/>
	<path class="st5" d="M175.9,57.9h2v12.7h7.4v1.9h-9.4C175.9,72.4,175.9,57.9,175.9,57.9z"/>
	<path class="st5" d="M187.2,65.2c0-1,0.2-2,0.6-2.9c0.8-1.8,2.2-3.2,3.9-4c1.9-0.8,3.9-0.8,5.7,0c0.9,0.4,1.7,0.9,2.4,1.6
		c0.7,0.7,1.3,1.5,1.6,2.4c0.8,1.9,0.8,3.9,0,5.7c-0.4,0.9-0.9,1.7-1.6,2.3c-0.6,0.8-1.3,1.3-2.3,1.7c-1.9,0.8-3.9,0.8-5.7,0
		C189,70.9,187.2,68.2,187.2,65.2L187.2,65.2z M189.2,65.2c0,0.8,0.1,1.5,0.4,2.1c0.3,0.7,0.7,1.3,1.1,1.7c0.5,0.5,1.1,0.9,1.7,1.2
		c1.4,0.6,2.9,0.6,4.3,0c0.7-0.3,1.2-0.7,1.7-1.2s0.9-1.1,1.1-1.7c0.3-0.7,0.4-1.4,0.4-2.1c0-0.8-0.2-1.5-0.4-2.2
		c-0.3-0.7-0.7-1.3-1.1-1.8c-0.5-0.5-1.1-0.9-1.7-1.2c-1.4-0.6-2.9-0.6-4.3,0c-1.3,0.6-2.3,1.6-2.8,3
		C189.4,63.7,189.2,64.4,189.2,65.2z"/>
	<path class="st5" d="M217.9,72.9l-11.2-11.4l0.5,0.2l0.1,10.8h-1.9v-15h0.1l11,11.4l-0.4-0.1L216,57.9h2L217.9,72.9L217.9,72.9z"/>
	<path class="st5" d="M222.1,72.5V57.9h3.9c1.3-0.1,2.5,0.2,3.7,0.7c0.9,0.4,1.7,1,2.5,1.7c0.6,0.7,1.1,1.5,1.4,2.4s0.4,1.7,0.4,2.6
		c0,1-0.2,2-0.6,2.9c-0.4,0.8-0.9,1.6-1.6,2.2s-1.4,1.1-2.3,1.4c-0.9,0.3-1.8,0.5-2.7,0.5L222.1,72.5z M224.1,70.6h2.4
		c0.8,0,1.5-0.1,2.2-0.4c0.7-0.2,1.3-0.6,1.7-1c0.5-0.5,0.9-1,1.1-1.7c0.3-0.7,0.4-1.5,0.4-2.3s-0.1-1.6-0.4-2.3s-0.7-1.2-1.2-1.7
		c-0.5-0.4-1.1-0.8-1.7-1c-0.7-0.2-1.3-0.4-2-0.4h-2.5V70.6z"/>
	<path class="st5" d="M236.4,65.2c0-1,0.2-2,0.6-2.8c0.8-1.8,2.2-3.2,3.9-4c1.9-0.8,3.9-0.8,5.7,0s3.2,2.2,4,4
		c0.8,1.9,0.8,3.9,0,5.7s-2.2,3.2-4,3.9c-1.9,0.8-3.9,0.8-5.8,0c-1.8-0.8-3.2-2.1-3.9-3.9C236.6,67.2,236.4,66.2,236.4,65.2z
		 M238.4,65.2c0,0.8,0.1,1.5,0.4,2.1c0.3,0.7,0.7,1.3,1.1,1.7c0.5,0.5,1.1,0.9,1.7,1.2c1.4,0.6,2.9,0.6,4.3,0
		c0.7-0.3,1.2-0.7,1.7-1.2s0.9-1.1,1.1-1.7s0.4-1.4,0.4-2.1c0-0.8-0.1-1.5-0.4-2.2s-0.7-1.3-1.1-1.8c-1.5-1.6-3.9-2.1-6-1.2
		c-0.7,0.3-1.3,0.7-1.7,1.2c-0.5,0.5-0.9,1.1-1.1,1.8C238.5,63.7,238.4,64.4,238.4,65.2L238.4,65.2z"/>
	<path class="st5" d="M267.1,72.9l-11.3-11.4l0.5,0.2l0.1,10.8h-1.9v-15h0.1L265.7,69l-0.4-0.1L265.2,58h2v15L267.1,72.9z"/>
	<path class="st5" d="M303,57.9h2v14.5h-2V57.9z"/>
	<path class="st5" d="M321.7,72.9l-11.2-11.4l0.5,0.2l0.1,10.8h-2v-15h0.1L320.3,69l-0.4-0.1L319.8,58h2L321.7,72.9L321.7,72.9z"/>
	<path class="st5" d="M330.8,72.5l6.3-15.1h0.1l6.3,15.1h-2.2l-4.7-12.1l1.4-0.9l-5.3,13C332.7,72.5,330.8,72.5,330.8,72.5z
		 M334.6,67h5.4l0.7,1.7H334L334.6,67z"/>
	<path class="st5" d="M351.5,57.9h2.3l3.9,11.1l-0.3-0.1l2.9-7.5l0.9,2.6l-3.9,9L351.5,57.9z M358.4,57.9h1.9l4.3,11l-0.4-0.1
		l3.7-10.9h2.1L364.3,73L358.4,57.9z"/>
	<path class="st5" d="M372.9,57.9h9.4v1.9h-7.5v4.4h6.7v1.9h-6.7v4.5h7.7v1.9h-9.7L372.9,57.9L372.9,57.9z"/>
	<path class="st5" d="M386,57.9h9.4v1.9h-7.5v4.4h6.7v1.9h-6.7v4.5h7.7v1.9h-9.7L386,57.9L386,57.9z"/>
	<path class="st5" d="M401.1,63.7v0.8l0.2-0.4l5.9-6.2h2.5l-6,6.2l6.3,8.3h-2.5l-5.3-7l-1.2,1.2v5.9h-2V57.9h2v5.8H401.1z"/>
</g>
</svg>
