<?xml version="1.0" encoding="utf-8"?>
<!-- Generator: Adobe Illustrator 26.0.1, SVG Export Plug-In . SVG Version: 6.00 Build 0)  -->
<svg version="1.1" id="Camada_1" xmlns="http://www.w3.org/2000/svg" xmlns:xlink="http://www.w3.org/1999/xlink" x="0px" y="0px"
	 viewBox="0 0 44.7 51.8" style="enable-background:new 0 0 44.7 51.8;" xml:space="preserve">
<style type="text/css">
	.st0{fill:#80A72A;}
</style>
<g>
	<polygon class="st0" points="35.7,23.3 35.5,23 35.5,23 35.2,22.8 23.8,33.3 23.5,22.2 29.4,15.6 29.3,15.4 29.3,15.4 29.1,15.3 
		23.5,20.3 23.2,9.7 22.4,9.7 22.1,20.5 16.3,15.3 16.1,15.4 16.1,15.4 16,15.6 22.1,22.4 21.8,33.6 10.4,23.2 10.2,23.5 10.2,23.5 
		9.9,23.7 21.7,36.6 21.4,51.2 22.7,51.2 24.2,51.2 23.9,36.2 	"/>
	<path class="st0" d="M8.2,21.3c-0.1,0.3-0.3,0.5-0.3,0.8c-0.1-0.5-0.3-1-0.6-1.5c-0.5-0.7-1.1-1.3-1.8-1.9l-0.1-0.1
		c-0.3,1-0.4,2-0.2,3c0,0.2,0.1,0.4,0.2,0.6L5,22.1c-1.4-0.3-2.8-0.4-4.2-0.4c0.9,1.2,2.1,2.3,3.5,3l0.3,0.1
		c-0.2,0.1-0.5,0.2-0.7,0.3c-0.7,0.5-1.3,1-1.9,1.7l-0.1,0.1c1,0.3,2,0.4,3,0.2c0.4-0.1,0.8-0.3,1.2-0.5C6,26.8,5.9,27,5.9,27.2
		C5.7,28,5.8,28.9,6,29.7l0,0c0.5-0.5,1-1.1,1.3-1.7c0.3-0.6,0.5-1.3,0.5-2c0-0.4,0-0.9-0.1-1.3l0,0c0.3-0.3,0.7-0.6,1-0.9
		c0.5-0.5,0.8-1.1,1-1.8c0.1-0.7,0.2-1.4,0.2-2.2v-0.1C9.3,20,8.7,20.6,8.2,21.3z"/>
	<path class="st0" d="M8,21.3c-0.1,0.3-0.3,0.5-0.3,0.8l0.4,0c-0.3-1.5-1.3-2.5-2.5-3.5c-0.1-0.1-0.2,0-0.3,0c0,0,0,0,0,0
		c-0.4,1.2-0.4,2.5,0,3.7l0.3-0.3c-1.6-0.4-3.2-0.6-4.8-0.6c-0.1,0-0.2,0.1-0.2,0.2c0,0,0,0.1,0,0.1c1,1.3,2.3,2.4,3.8,3.2v-0.4
		c-1,0.5-2,1.2-2.7,2.2c-0.1,0.1,0,0.2,0.1,0.3c0,0,0,0,0,0c1.4,0.5,3,0.3,4.3-0.4l-0.3-0.2c-0.4,1-0.4,2.2-0.1,3.2
		c0,0.1,0.1,0.2,0.3,0.1c0,0,0.1,0,0.1-0.1C7,29.1,7.6,28.1,7.9,27c0.2-0.8,0.2-1.7,0.1-2.5c0-0.2-0.2-0.2-0.3-0.1l0,0L8,24.6H7.6
		c0,0.1,0.1,0.2,0.2,0.2c0,0,0.1,0,0.1,0c0.7-0.5,1.2-1.2,1.7-1.9c0.5-1,0.7-2.1,0.6-3.2c0-0.1-0.1-0.2-0.2-0.2c0,0-0.1,0-0.1,0
		C9.2,19.9,8.5,20.5,8,21.3c-0.1,0.2,0.2,0.4,0.4,0.2c0.4-0.7,1.1-1.3,1.8-1.7l-0.3-0.2c0.1,1-0.1,2-0.4,3c-0.4,0.7-1,1.4-1.6,1.9
		l0.3,0.1l0,0c0-0.2-0.4-0.2-0.4,0l0,0c0,0.1,0.1,0.2,0.2,0.2c0,0,0.1,0,0.1,0l0,0l-0.3-0.1c0.1,0.8,0.1,1.7-0.1,2.5
		c-0.4,0.9-0.9,1.8-1.7,2.5l0.3,0.1c-0.3-1-0.3-2.1,0.1-3c0.1-0.2-0.2-0.3-0.3-0.2c-1.2,0.7-2.7,0.8-4,0.3L2,27
		c0.7-0.9,1.5-1.6,2.5-2c0.1,0,0.1-0.2,0.1-0.3c0,0-0.1-0.1-0.1-0.1c-1.4-0.7-2.7-1.8-3.7-3.1l-0.2,0.3c1.6,0,3.2,0.2,4.7,0.6
		c0.1,0,0.2,0,0.3-0.1c0,0,0-0.1,0-0.2c-0.4-1.1-0.4-2.3,0-3.3l-0.3,0.1c1.1,0.9,2,1.9,2.3,3.3c0,0.1,0.1,0.2,0.2,0.2
		C8,22.3,8,22.3,8,22.2c0.1-0.3,0.2-0.5,0.3-0.8C8.5,21.2,8.1,21,8,21.3z"/>
	<path class="st0" d="M6,24.1c1.3,0.8,2.8,1.3,4.3,1.4c0.1,0,0.2-0.1,0.2-0.2c0-0.1-0.1-0.2-0.2-0.2c-1.5-0.1-2.9-0.6-4.2-1.3
		C5.9,23.7,5.7,24,6,24.1L6,24.1z"/>
	<path class="st0" d="M15,12.5c-0.3,0.1-0.6,0.2-0.9,0.4c0.3-0.5,0.5-1,0.6-1.6c0.1-0.9,0.1-1.8,0-2.7V8.5C13.8,9,13,9.8,12.5,10.7
		c-0.1,0.2-0.2,0.4-0.2,0.6c-0.1-0.2-0.2-0.4-0.3-0.5C11,9.5,10,8.4,8.9,7.3c-0.2,1.7,0,3.3,0.5,4.9l0.1,0.3
		c-0.3-0.1-0.5-0.2-0.8-0.2c-0.9-0.1-1.8-0.1-2.7,0H6c0.5,0.9,1.3,1.7,2.2,2.3c0.4,0.2,0.9,0.4,1.3,0.5c-0.2,0.1-0.4,0.2-0.6,0.3
		c-0.8,0.5-1.4,1.2-1.8,2.1h0.1c0.8,0,1.6-0.1,2.3-0.4c0.7-0.2,1.3-0.7,1.9-1.2c0.3-0.3,0.4-0.5,0.9-1.1l0,0c0.5,0,1,0,1.5,0
		c0.7-0.1,1.5-0.3,2.1-0.7c0.6-0.5,1.2-1,1.7-1.6l0-0.1C16.7,12.2,15.8,12.2,15,12.5z"/>
	<path class="st0" d="M14.9,12.3c-0.3,0.1-0.6,0.2-0.8,0.4l0.3,0.3c0.8-1.4,0.8-3,0.7-4.6c0-0.1-0.1-0.2-0.2-0.2c0,0,0,0-0.1,0
		c-1.2,0.6-2.1,1.7-2.6,2.9h0.4c-0.9-1.5-2-2.8-3.3-4C9,7.1,8.9,7.1,8.8,7.2c0,0-0.1,0.1-0.1,0.1C8.6,9.1,8.8,11,9.4,12.6l0.3-0.3
		C8.5,12,7.2,11.9,6,12.1c-0.1,0-0.2,0.1-0.2,0.2c0,0,0,0,0,0.1c0.8,1.5,2.1,2.5,3.7,2.9l-0.1-0.4c-1,0.5-1.9,1.4-2.4,2.5
		c-0.1,0.1,0,0.2,0.1,0.3c0,0,0.1,0,0.1,0c1.2,0,2.4-0.3,3.4-0.9c0.7-0.5,1.4-1.2,1.9-1.9c0.1-0.1,0-0.3-0.2-0.3l0,0l0.1,0.4l0,0
		l-0.3-0.3l0,0c-0.1,0.1,0,0.3,0.2,0.3c0.9,0.1,1.8,0,2.7-0.3c1.1-0.5,2.1-1.2,2.8-2.1c0.1-0.1,0.1-0.2,0-0.3c0,0-0.1-0.1-0.1-0.1
		C16.8,12,15.8,12,14.9,12.3c-0.2,0-0.1,0.5,0.1,0.4c0.9-0.2,1.8-0.3,2.6-0.1l-0.1-0.4c-0.7,0.9-1.5,1.5-2.5,2
		c-0.9,0.3-1.8,0.4-2.7,0.3l0.2,0.3l0,0c0.1-0.2-0.1-0.4-0.3-0.3l0,0c-0.1,0.1-0.1,0.2,0,0.3c0,0,0.1,0.1,0.1,0.1l0,0l-0.2-0.3
		c-0.5,0.7-1.2,1.4-1.9,1.9c-1,0.5-2,0.7-3.1,0.7l0.2,0.3c0.5-1,1.3-1.8,2.3-2.3c0.1,0,0.1-0.2,0.1-0.3c0-0.1-0.1-0.1-0.2-0.1
		c-1.4-0.4-2.7-1.4-3.3-2.7L6,12.5c1.2-0.2,2.4-0.1,3.5,0.3c0.1,0,0.2,0,0.3-0.1c0-0.1,0-0.1,0-0.2C9.2,10.8,9,9.1,9.1,7.4L8.8,7.5
		c1.3,1.1,2.4,2.4,3.3,3.9c0,0.1,0.2,0.2,0.3,0.1c0,0,0.1-0.1,0.1-0.1c0.5-1.1,1.3-2.1,2.4-2.7l-0.3-0.1c0.2,1.5,0.2,2.9-0.6,4.2
		c-0.1,0.2,0.1,0.4,0.3,0.3c0.3-0.1,0.6-0.3,0.8-0.4C15.3,12.6,15.1,12.2,14.9,12.3z"/>
	<path class="st0" d="M11.2,13c0.8,2.1,1,2.5,2.4,4.2c0.1,0.1,0.2,0.1,0.3,0c0.1-0.1,0.1-0.2,0-0.3l0,0c-1.4-1.7-1.5-2.1-2.3-4.1
		C11.5,12.6,11.1,12.8,11.2,13z"/>
	<path class="st0" d="M18,22.1c-0.2,0.1-0.4,0.1-0.5,0.2c0.2-0.3,0.3-0.6,0.4-0.9c0.1-0.5,0.1-1.1,0-1.6v0c-0.6,0.3-1,0.8-1.4,1.3
		c-0.1,0.1-0.1,0.2-0.2,0.3c-0.1-0.1-0.1-0.2-0.2-0.3c-0.5-0.7-1.1-1.4-1.8-2.1c-0.1,1,0,2,0.3,2.9l0.1,0.2
		c-0.1-0.1-0.3-0.1-0.5-0.2c-0.5-0.1-1.1-0.1-1.6,0h0c0.3,0.6,0.8,1.1,1.3,1.4c0.2,0.1,0.5,0.2,0.8,0.3c-0.1,0.1-0.3,0.1-0.4,0.2
		c-0.4,0.3-0.8,0.7-1.1,1.2h0c0.5,0,0.9-0.1,1.4-0.2c0.4-0.1,0.8-0.4,1.1-0.7c0.2-0.2,0.4-0.4,0.6-0.7l0,0c0.3,0,0.6,0,0.9,0
		c0.4,0,0.9-0.2,1.3-0.4c0.4-0.3,0.7-0.6,1-0.9v0C19,22,18.5,22,18,22.1z"/>
	<path class="st0" d="M17.9,22c-0.2,0.1-0.3,0.1-0.5,0.2l0.2,0.2c0.4-0.8,0.6-1.8,0.4-2.7c0-0.1-0.1-0.1-0.1-0.1c0,0,0,0,0,0
		c-0.7,0.4-1.3,1-1.6,1.7h0.2c-0.5-0.9-1.2-1.7-1.9-2.4c0-0.1-0.1-0.1-0.2,0c0,0,0,0.1,0,0.1c-0.1,1.1,0,2.2,0.3,3.2l0.2-0.2
		c-0.7-0.2-1.5-0.3-2.2-0.2c-0.1,0-0.1,0.1-0.1,0.1c0,0,0,0,0,0c0.4,0.9,1.2,1.5,2.2,1.8l0-0.2c-0.6,0.3-1.2,0.8-1.5,1.4
		c0,0.1,0,0.1,0,0.2c0,0,0.1,0,0.1,0c0.7,0,1.4-0.1,2.1-0.5c0.4-0.3,0.8-0.7,1.1-1.1c0.1-0.1,0-0.2-0.1-0.2l0,0l0.1,0.2l0,0
		l-0.2-0.2l0,0c0,0.1,0,0.1,0,0.2c0,0,0,0,0.1,0c0.5,0,1.1,0,1.6-0.1c0.7-0.3,1.3-0.7,1.7-1.3c0.1,0,0.1-0.1,0-0.2c0,0,0,0-0.1,0
		C19,21.8,18.5,21.8,17.9,22c-0.1,0-0.1,0.3,0.1,0.2c0.5-0.1,1.1-0.1,1.6,0L19.5,22c-0.4,0.5-0.9,0.9-1.5,1.2
		c-0.5,0.2-1.1,0.2-1.6,0.2l0.1,0.2l0,0c0.1-0.1-0.1-0.3-0.2-0.2l0,0c-0.1,0-0.1,0.1,0,0.2c0,0,0,0,0.1,0l0,0l-0.1-0.2
		c-0.3,0.4-0.7,0.8-1.1,1.1c-0.6,0.3-1.2,0.4-1.9,0.4l0.1,0.2c0.3-0.6,0.8-1,1.3-1.3c0.1,0,0.1-0.1,0.1-0.2c0,0-0.1-0.1-0.1-0.1
		c-0.9-0.2-1.6-0.8-2-1.6L12.6,22c0.7-0.1,1.4,0,2.1,0.2c0.1,0,0.1,0,0.2-0.1c0,0,0-0.1,0-0.1c-0.3-1-0.4-2-0.3-3.1l-0.2,0.1
		c0.7,0.7,1.4,1.5,1.9,2.3c0,0.1,0.1,0.1,0.2,0.1c0,0,0.1,0,0.1-0.1c0.3-0.7,0.8-1.2,1.5-1.6l-0.2-0.1c0.2,0.9,0,1.8-0.4,2.5
		c-0.1,0.1,0,0.2,0.2,0.2c0.2-0.1,0.3-0.2,0.5-0.2C18.2,22.1,18.1,21.9,17.9,22z"/>
	<path class="st0" d="M15.7,22.4c0.3,0.9,0.7,1.8,1.4,2.6c0.1,0.1,0.3,0,0.2-0.2c-0.6-0.7-1.1-1.6-1.3-2.5
		C15.9,22.1,15.7,22.2,15.7,22.4L15.7,22.4z"/>
	<path class="st0" d="M11.3,30.2c0,0.2-0.1,0.4-0.1,0.6c-0.2-0.3-0.4-0.6-0.7-0.9c-0.5-0.4-1-0.7-1.5-0.9H9c0,0.7,0.1,1.4,0.4,2
		c0.1,0.1,0.1,0.2,0.2,0.3H9.3c-1,0.1-1.9,0.2-2.9,0.5c0.8,0.7,1.8,1.1,2.9,1.4c0.1,0,0.1,0,0.2,0c-0.1,0.1-0.3,0.2-0.4,0.3
		C8.7,34,8.4,34.5,8.1,35v0c0.7,0,1.4-0.1,2-0.4c0.3-0.1,0.5-0.3,0.7-0.6c0,0.1,0,0.3,0,0.4c0,0.6,0.2,1.1,0.5,1.6l0,0
		c0.3-0.4,0.5-0.9,0.6-1.4c0.1-0.5,0.1-1,0-1.4c-0.1-0.3-0.2-0.6-0.3-0.9l0,0c0.2-0.3,0.3-0.5,0.5-0.8c0.2-0.5,0.4-1,0.4-1.5
		c0-0.5-0.1-1-0.2-1.5v0C11.8,29.1,11.5,29.6,11.3,30.2z"/>
	<path class="st0" d="M11.2,30.1c0,0.2-0.1,0.4-0.1,0.6h0.3c-0.5-0.9-1.3-1.5-2.3-1.9c-0.1,0-0.2,0-0.2,0.1c0,0,0,0,0,0
		c-0.1,0.9,0.2,1.7,0.7,2.4l0.1-0.2c-1.1,0-2.2,0.1-3.3,0.5c-0.1,0-0.1,0.1-0.1,0.2c0,0,0,0.1,0,0.1c0.9,0.7,2,1.2,3.1,1.4L9.4,33
		C8.8,33.6,8.3,34.2,8,35c0,0.1,0,0.1,0.1,0.2c0,0,0,0,0,0c1.1,0.1,2.1-0.3,2.8-1L10.7,34c-0.1,0.8,0.1,1.5,0.5,2.2
		c0,0.1,0.1,0.1,0.2,0.1c0,0,0,0,0.1-0.1c0.4-0.6,0.6-1.4,0.7-2.2c0-0.6-0.2-1.1-0.4-1.7c0-0.1-0.2-0.1-0.2,0l0,0l0.2,0.1l0,0
		l-0.3,0.1l0,0c0,0.1,0.1,0.1,0.2,0c0,0,0,0,0,0c0.3-0.5,0.6-1,0.8-1.5c0.1-0.8,0.1-1.5-0.2-2.3c0-0.1-0.1-0.1-0.2-0.1
		c0,0-0.1,0-0.1,0.1C11.6,29.1,11.3,29.6,11.2,30.1c-0.1,0.2,0.2,0.3,0.2,0.1c0.2-0.5,0.5-1,0.9-1.5L12,28.7c0.2,0.7,0.3,1.4,0.2,2
		c-0.1,0.5-0.4,1.1-0.7,1.5h0.2l0,0c-0.1-0.1-0.3-0.1-0.3,0.1l0,0c0,0.1,0.1,0.1,0.2,0.1c0,0,0.1,0,0.1,0l0,0h-0.2
		c0.2,0.5,0.4,1.1,0.4,1.7c-0.1,0.7-0.3,1.4-0.7,1.9h0.2c-0.4-0.6-0.5-1.3-0.5-2c0-0.1-0.1-0.1-0.1-0.1c0,0-0.1,0-0.1,0
		c-0.7,0.7-1.7,1-2.6,0.9L8.3,35c0.3-0.7,0.8-1.3,1.3-1.8c0.1,0,0.1-0.1,0-0.2c0,0-0.1,0-0.1,0c-1.1-0.2-2.1-0.7-3-1.4l-0.1,0.2
		c1-0.3,2.1-0.5,3.2-0.4c0.1,0,0.1,0,0.1-0.1c0,0,0-0.1,0-0.1c-0.5-0.7-0.7-1.4-0.6-2.2L9,29.1c0.9,0.3,1.6,1,2.1,1.8
		c0.1,0.1,0.2,0.1,0.3,0c0-0.2,0-0.4,0.1-0.6C11.5,30,11.2,30,11.2,30.1z"/>
	<path class="st0" d="M10.3,32.4c1,0.3,2.1,0.3,3.1,0.1c0.2,0,0.1-0.3,0-0.3c-1,0.2-2.1,0.1-3.1-0.1C10.2,32.1,10.2,32.3,10.3,32.4z
		"/>
	<path class="st0" d="M15.3,35.4c0.1,0.1,0.3,0.1,0.4,0.2c-0.3,0-0.5,0.1-0.8,0.3c-0.4,0.3-0.7,0.6-1,0.9l0,0c0.5,0.2,1,0.2,1.6,0.1
		c0.1,0,0.2-0.1,0.3-0.1c0,0.1-0.1,0.2-0.1,0.3c-0.2,0.7-0.2,1.5-0.3,2.2c0.7-0.5,1.2-1.1,1.6-1.8c0,0,0-0.1,0.1-0.1
		c0,0.1,0.1,0.3,0.2,0.4c0.2,0.4,0.5,0.7,0.9,1l0,0c0.2-0.5,0.2-1.1,0.1-1.6c0-0.2-0.1-0.5-0.3-0.7c0.1,0,0.2,0.1,0.3,0.1
		c0.4,0.1,0.9,0.1,1.3,0l0,0c-0.3-0.3-0.6-0.5-0.9-0.7c-0.3-0.2-0.7-0.3-1.1-0.3c-0.2,0-0.5,0-0.7,0l0,0c-0.2-0.2-0.3-0.4-0.5-0.5
		c-0.3-0.3-0.6-0.4-1-0.5c-0.4-0.1-0.8-0.1-1.2-0.1h0C14.6,34.8,15,35.2,15.3,35.4z"/>
	<path class="st0" d="M15.3,35.5c0.1,0.1,0.3,0.1,0.4,0.2v-0.2c-0.8,0.2-1.4,0.6-1.9,1.3c0,0,0,0.1,0,0.1c0,0,0,0,0,0
		c0.6,0.2,1.3,0.2,1.9,0l-0.1-0.1c-0.2,0.8-0.4,1.7-0.4,2.5c0,0.1,0,0.1,0.1,0.1c0,0,0.1,0,0.1,0c0.7-0.5,1.3-1.2,1.7-2H17
		c0.3,0.6,0.7,1.1,1.1,1.4c0,0,0.1,0,0.1,0c0,0,0,0,0,0c0.3-0.8,0.2-1.6-0.2-2.3l-0.1,0.2c0.5,0.2,1.1,0.2,1.7,0.1
		c0.1,0,0.1-0.1,0.1-0.1c0,0,0,0,0-0.1c-0.4-0.4-0.9-0.8-1.4-1c-0.4-0.1-0.9-0.1-1.3-0.1c-0.1,0-0.1,0.1-0.1,0.2l0,0l0.1-0.2l0,0
		v0.2l0,0c0.1,0,0.1-0.1,0.1-0.1c0,0,0,0,0,0c-0.3-0.3-0.6-0.6-1-0.9c-0.5-0.3-1.1-0.4-1.7-0.3c-0.1,0-0.1,0-0.1,0.1c0,0,0,0,0,0.1
		C14.6,34.9,14.9,35.3,15.3,35.5c0.1,0.1,0.2-0.1,0.1-0.2c-0.4-0.2-0.7-0.6-0.9-1l-0.1,0.2c0.5,0,1.1,0.1,1.6,0.3
		c0.4,0.2,0.7,0.5,1,0.9l0.1-0.2l0,0c-0.1,0-0.1,0-0.1,0.1c0,0.1,0,0.1,0.1,0.1l0,0c0.1,0,0.1,0,0.1-0.1c0,0,0-0.1,0-0.1l0,0
		l-0.1,0.2c0.4-0.1,0.9,0,1.3,0.1c0.5,0.2,0.9,0.5,1.3,0.9l0-0.2c-0.5,0.1-1.1,0.1-1.6-0.1c-0.1,0-0.2,0.1-0.1,0.2
		c0.3,0.7,0.4,1.4,0.1,2.1l0.2,0c-0.5-0.4-0.8-0.8-1.1-1.3c0-0.1-0.1-0.1-0.1-0.1c0,0,0,0-0.1,0.1c-0.4,0.8-1,1.4-1.7,1.9l0.2,0.1
		c0-0.8,0.1-1.7,0.4-2.5c0-0.1,0-0.1-0.1-0.1c0,0,0,0-0.1,0c-0.6,0.2-1.2,0.2-1.8,0l0,0.2c0.4-0.6,1.1-1,1.8-1.2
		c0.1,0,0.1-0.1,0.1-0.1c0,0,0-0.1-0.1-0.1c-0.1-0.1-0.3-0.1-0.4-0.2C15.3,35.3,15.2,35.5,15.3,35.5z"/>
	<path class="st0" d="M16.8,36.7c0.4-0.7,0.7-1.5,0.8-2.3c0-0.1-0.1-0.1-0.1-0.1c0,0-0.1,0-0.1,0.1c-0.1,0.8-0.3,1.6-0.8,2.2
		C16.6,36.7,16.7,36.8,16.8,36.7L16.8,36.7z"/>
	<path class="st0" d="M18.5,27.3c0.1,0.1,0.2,0.1,0.3,0.1c-0.2,0-0.3,0.1-0.5,0.2c-0.2,0.2-0.5,0.4-0.7,0.6l0,0
		c0.3,0.1,0.7,0.1,1,0.1l0.2-0.1l-0.1,0.2c-0.1,0.5-0.2,1-0.2,1.4c0.4-0.3,0.8-0.7,1-1.2l0-0.1c0,0.1,0.1,0.2,0.1,0.2
		c0.2,0.2,0.3,0.5,0.6,0.7l0,0c0.1-0.3,0.1-0.7,0.1-1c0-0.1-0.1-0.3-0.2-0.4c0.1,0,0.1,0.1,0.2,0.1c0.3,0.1,0.6,0.1,0.9,0l0,0
		c-0.2-0.2-0.4-0.3-0.6-0.5c-0.2-0.1-0.4-0.2-0.7-0.2c-0.2,0-0.3,0-0.5,0l0,0c-0.2-0.2-0.2-0.2-0.3-0.3c-0.2-0.2-0.4-0.3-0.6-0.3
		c-0.2-0.1-0.5-0.1-0.7-0.1l0,0C18.1,27,18.3,27.2,18.5,27.3z"/>
	<path class="st0" d="M18.5,27.4c0.1,0,0.2,0.1,0.3,0.1v-0.1c-0.5,0.1-0.9,0.4-1.2,0.8c0,0,0,0.1,0,0.1c0.4,0.1,0.8,0.1,1.3,0
		l-0.1-0.1c-0.2,0.5-0.2,1.1-0.2,1.6c0,0,0,0.1,0.1,0.1c0,0,0,0,0,0c0.5-0.3,0.8-0.8,1.1-1.3h-0.1c0.2,0.4,0.4,0.7,0.7,0.9
		c0,0,0.1,0,0.1,0c0,0,0,0,0,0c0.2-0.5,0.2-1-0.1-1.5l-0.1,0.1c0.3,0.1,0.7,0.1,1.1,0c0,0,0-0.1,0-0.1c0,0,0,0,0,0
		c-0.2-0.3-0.6-0.5-0.9-0.6c-0.3,0-0.5-0.1-0.8,0c0,0-0.1,0-0.1,0.1c0,0,0,0,0,0l0,0l0.1-0.1l0,0v0.1l0,0c0,0,0.1-0.1,0-0.1
		c-0.2-0.2-0.4-0.4-0.6-0.6c-0.3-0.2-0.7-0.2-1.1-0.2c0,0-0.1,0-0.1,0.1c0,0,0,0,0,0C18,27,18.2,27.2,18.5,27.4
		c0.1,0,0.2-0.1,0.1-0.1c-0.2-0.2-0.4-0.4-0.6-0.6l-0.1,0.1c0.3,0,0.7,0,1,0.2c0.3,0.1,0.5,0.3,0.7,0.6l0-0.1l0,0
		c-0.1,0-0.1,0.1,0,0.1l0,0c0,0,0.1,0,0.1-0.1c0,0,0,0,0,0l0,0l0,0.1c0.3,0,0.6,0,0.9,0c0.3,0.1,0.6,0.3,0.8,0.6v-0.1
		c-0.4,0.1-0.7,0.1-1.1,0c-0.1,0-0.1,0.1-0.1,0.1c0.2,0.4,0.3,0.9,0.1,1.4h0.1c-0.3-0.2-0.5-0.5-0.7-0.9c0,0-0.1,0-0.1,0
		c0,0,0,0,0,0c-0.3,0.5-0.6,0.9-1.1,1.2l0.1,0.1c0-0.5,0.1-1.1,0.2-1.6c0,0,0-0.1,0-0.1c0,0,0,0,0,0c-0.4,0.1-0.8,0.1-1.2-0.1v0.1
		c0.3-0.4,0.7-0.7,1.2-0.8c0.1,0,0.1-0.1,0-0.1c-0.1,0-0.2-0.1-0.3-0.1C18.4,27.2,18.4,27.4,18.5,27.4z"/>
	<path class="st0" d="M19.4,28.1c0.3-0.4,0.4-1,0.5-1.5c0,0,0-0.1-0.1,0c0,0,0,0,0,0c-0.1,0.5-0.2,1-0.5,1.4
		C19.3,28.2,19.4,28.2,19.4,28.1L19.4,28.1z"/>
	<path class="st0" d="M35.1,19.6L35.1,19.6c0,0.8,0.1,1.5,0.4,2.2c0.2,0.7,0.6,1.2,1.1,1.7c0.4,0.3,0.7,0.6,1.1,0.9l0,0
		c0,0.5,0,0.9,0,1.4c0.1,0.7,0.3,1.4,0.7,2c0.4,0.6,0.9,1.1,1.5,1.6l0.1,0c0.2-0.8,0.2-1.7-0.1-2.5c-0.1-0.2-0.2-0.4-0.3-0.6
		c0.4,0.2,0.8,0.3,1.2,0.4c1,0.1,2-0.1,3-0.5h-0.1c-0.6-0.6-1.3-1.1-2-1.5c-0.2-0.1-0.5-0.2-0.7-0.3l0.2-0.2c1.3-0.9,2.4-2,3.2-3.3
		c-1.4,0.1-2.8,0.4-4.2,0.8l-0.5,0.2c0.1-0.2,0.1-0.4,0.1-0.6c0.1-1,0-2-0.4-2.9l-0.1,0.1c-0.6,0.6-1.1,1.3-1.6,2
		c-0.2,0.5-0.4,1-0.4,1.5c-0.1-0.2-0.3-0.5-0.4-0.7C36.5,20.5,35.8,20,35.1,19.6z"/>
	<path class="st0" d="M37.2,21.1c0.2,0.2,0.3,0.5,0.4,0.8l-0.4,0.1c0.2-1.5,1.1-2.6,2.1-3.7c0.1-0.1,0.2-0.1,0.3,0c0,0,0,0,0,0
		c0.5,1.2,0.6,2.4,0.3,3.7l-0.3-0.2c1.5-0.6,3.1-0.9,4.7-1c0.1,0,0.2,0,0.2,0.2c0,0,0,0.1,0,0.1c-0.9,1.4-2.1,2.6-3.5,3.5l0-0.3
		c1.1,0.4,2.1,1.1,2.9,1.9c0.1,0.1,0.1,0.2,0,0.3c0,0,0,0,0,0c-1.4,0.6-3,0.6-4.4,0l0.3-0.3c0.5,1,0.6,2.1,0.4,3.2
		c0,0.1-0.1,0.2-0.2,0.2c0,0-0.1,0-0.1-0.1c-0.9-0.7-1.6-1.6-2-2.6c-0.2-0.8-0.3-1.7-0.3-2.5c0-0.2,0.2-0.2,0.3-0.1l0,0l-0.3,0.2
		l0,0h0.4l0,0c0,0.1-0.2,0.2-0.3,0.1c-0.7-0.5-1.3-1.1-1.8-1.7c-0.6-1-0.8-2.1-0.8-3.2c0-0.1,0.1-0.2,0.2-0.2c0,0,0.1,0,0.1,0
		C36,19.8,36.6,20.4,37.2,21.1c0.1,0.2-0.2,0.4-0.3,0.2c-0.5-0.7-1.1-1.2-1.9-1.6l0.3-0.2c0,1,0.2,2,0.7,2.9
		c0.5,0.7,1.1,1.3,1.8,1.8l-0.3,0.1l0,0c0-0.2,0.3-0.3,0.4,0l0,0c0,0.1-0.1,0.2-0.2,0.2c0,0-0.1,0-0.1,0l0,0l0.3-0.1
		c-0.1,0.8,0.1,1.7,0.3,2.5c0.4,0.9,1.1,1.7,1.9,2.3l-0.3,0.1c0.2-1,0.1-2.1-0.3-3c-0.1-0.2,0.1-0.3,0.3-0.2c1.3,0.6,2.7,0.5,4,0
		l-0.1,0.3c-0.7-0.8-1.7-1.4-2.7-1.8c-0.1,0-0.1-0.2-0.1-0.3c0,0,0.1-0.1,0.1-0.1c1.4-0.9,2.5-2,3.3-3.4l0.2,0.3
		c-1.6,0.1-3.1,0.4-4.6,1c-0.1,0.1-0.2,0-0.3-0.1c0,0,0-0.1,0-0.2c0.3-1.1,0.2-2.3-0.3-3.3l0.3,0.1c-1,1-1.8,2-2,3.5
		c0,0.1-0.1,0.2-0.2,0.2c-0.1,0-0.1,0-0.2-0.1c-0.1-0.3-0.3-0.5-0.4-0.8C36.7,21.1,37.1,20.9,37.2,21.1z"/>
	<path class="st0" d="M39.5,23.7c-1.3,0.9-2.7,1.5-4.2,1.8c-0.1,0-0.2,0-0.2-0.2c0-0.1,0-0.2,0.2-0.2c1.5-0.3,2.9-0.8,4.1-1.7
		C39.5,23.3,39.7,23.6,39.5,23.7L39.5,23.7z"/>
	<path class="st0" d="M27.3,12.5L27.3,12.5c0.6,0.6,1.1,1.2,1.8,1.6c0.6,0.4,1.4,0.6,2.1,0.7c0.5,0,1,0,1.5,0l0,0
		c0.3,0.4,0.6,0.8,0.9,1.1c0.5,0.5,1.2,0.9,1.9,1.2c0.7,0.2,1.5,0.3,2.3,0.4h0.1c-0.4-0.8-1-1.5-1.7-2c-0.2-0.1-0.4-0.2-0.6-0.3
		c0.5-0.1,0.9-0.2,1.3-0.5c0.9-0.6,1.7-1.4,2.2-2.3h-0.1c-0.9-0.1-1.8-0.1-2.7,0c-0.3,0.1-0.5,0.1-0.8,0.2c0-0.1,0.1-0.2,0.1-0.3
		c0.5-1.6,0.7-3.2,0.5-4.9c-1.1,1-2.1,2.2-3,3.4c-0.1,0.2-0.2,0.3-0.3,0.5c-0.1-0.2-0.2-0.4-0.3-0.6c-0.5-0.9-1.3-1.7-2.3-2.2v0.1
		c-0.1,0.9-0.1,1.8,0,2.7c0.1,0.6,0.3,1.1,0.6,1.6c-0.3-0.2-0.5-0.3-0.8-0.4C29.1,12.3,28.1,12.3,27.3,12.5z"/>
	<path class="st0" d="M30,12.4c0.3,0.1,0.6,0.2,0.9,0.4l-0.3,0.3c-0.8-1.4-0.8-3-0.7-4.6c0-0.1,0.1-0.2,0.3-0.2c0,0,0,0,0,0
		c1.2,0.6,2.1,1.7,2.6,2.9h-0.4c0.9-1.5,2-2.8,3.3-4c0.1-0.1,0.2-0.1,0.3,0c0,0,0.1,0.1,0.1,0.1c0.2,1.8-0.1,3.6-0.7,5.3l-0.3-0.3
		c1.2-0.4,2.5-0.5,3.7-0.3c0.1,0,0.2,0.1,0.2,0.2c0,0,0,0,0,0.1c-0.9,1.4-2,2.6-3.7,2.9l0.1-0.4c1.1,0.5,1.9,1.4,2.5,2.5
		c0.1,0.1,0,0.2-0.1,0.3c0,0-0.1,0-0.1,0c-1.2,0-2.4-0.3-3.4-0.9c-0.7-0.5-1.4-1.2-1.9-1.9c-0.1-0.1,0-0.3,0.2-0.3l0,0L32.5,15l0,0
		l0.3-0.3l0,0c0.1,0.1,0,0.3-0.2,0.3c-0.9,0.1-1.8,0-2.7-0.3c-1.1-0.5-2.1-1.2-2.8-2.1c-0.1-0.1-0.1-0.2,0-0.3c0,0,0.1-0.1,0.1-0.1
		C28.2,12.1,29.1,12.1,30,12.4c0.2,0.1,0.1,0.5-0.1,0.4c-0.9-0.2-1.8-0.3-2.6-0.1l0.1-0.4c0.7,0.9,1.5,1.5,2.5,2
		c0.9,0.3,1.8,0.4,2.7,0.3L32.4,15l0,0c-0.1-0.2,0.1-0.4,0.3-0.3l0,0c0.1,0.1,0.1,0.2,0,0.3c0,0-0.1,0.1-0.1,0.1l0,0l0.2-0.3
		c0.5,0.7,1.2,1.4,1.9,1.9c1,0.5,2,0.7,3.1,0.7l-0.2,0.3c-0.5-1-1.3-1.8-2.3-2.3c-0.1,0-0.1-0.2-0.1-0.3c0-0.1,0.1-0.1,0.2-0.1
		c1.4-0.4,2.7-1.4,3.3-2.7l0.1,0.3c-1.2-0.2-2.4-0.1-3.5,0.3c-0.1,0-0.2,0-0.3-0.1c0-0.1,0-0.1,0-0.2c0.6-1.6,0.8-3.4,0.6-5.1
		l0.4,0.1c-1.3,1.1-2.4,2.4-3.3,3.9c0,0.1-0.2,0.2-0.3,0.1c0,0-0.1-0.1-0.1-0.1c-0.5-1.1-1.3-2.1-2.4-2.7l0.3-0.2
		c-0.2,1.5-0.2,2.9,0.6,4.2c0.1,0.2-0.1,0.4-0.3,0.3c-0.3-0.1-0.6-0.3-0.8-0.4C29.6,12.7,29.8,12.3,30,12.4z"/>
	<path class="st0" d="M33.7,13.1c-0.8,2.1-1,2.5-2.4,4.2c-0.1,0.1-0.2,0.1-0.3,0c-0.1-0.1-0.1-0.2,0-0.3c1.4-1.7,1.5-2.1,2.3-4.1
		C33.4,12.7,33.8,12.9,33.7,13.1z"/>
	<g>
		<path class="st0" d="M16.8,9.6L16.8,9.6c0.8,0.3,1.6,0.6,2.4,0.7c0.8,0.1,1.6,0,2.3-0.3C22,9.9,22.5,9.7,23,9.4l0,0
			c0.4,0.2,0.9,0.5,1.4,0.7c0.7,0.3,1.5,0.4,2.3,0.3c0.8-0.1,1.6-0.3,2.3-0.7H29c-0.7-0.6-1.6-1-2.5-1.2c-0.2,0-0.5,0-0.7,0
			c0.4-0.3,0.8-0.6,1-1c0.6-1,1-2.1,1-3.2h-0.1c-0.9,0.3-1.8,0.7-2.6,1.2c-0.2,0.2-0.4,0.4-0.6,0.6c0-0.1,0-0.2,0-0.3
			c-0.2-1.7-0.8-3.4-1.7-4.8c-0.6,1.5-1.1,3-1.3,4.6c0,0.2,0,0.4,0,0.6c-0.2-0.2-0.3-0.3-0.5-0.4c-0.9-0.6-2-1-3.1-1.1v0.1
			c0.3,0.9,0.7,1.8,1.3,2.6c0.3,0.5,0.8,0.9,1.3,1.2c-0.3,0-0.6,0-1,0C18.5,8.6,17.6,9,16.8,9.6z"/>
		<path class="st0" d="M19.4,8.3c0.3,0,0.6,0,1,0l-0.1,0.4c-1.4-1-2.1-2.4-2.6-4c0-0.1,0-0.2,0.2-0.3c0,0,0,0,0.1,0
			C19.3,4.5,20.6,5,21.7,6l-0.4,0.2c0.2-1.8,0.7-3.6,1.4-5.2c0-0.1,0.1-0.2,0.3-0.2c0.1,0,0.1,0.1,0.1,0.1c1,1.6,1.6,3.5,1.7,5.4
			L24.4,6c1-0.9,2.1-1.5,3.3-1.9c0.1,0,0.2,0,0.3,0.2c0,0,0,0,0,0.1c-0.2,1.8-0.8,3.3-2.2,4.4l-0.1-0.5c1.2,0,2.4,0.5,3.4,1.3
			c0.1,0.1,0.1,0.2,0.1,0.3c0,0-0.1,0.1-0.1,0.1c-1.1,0.5-2.4,0.8-3.6,0.7c-0.9-0.2-1.8-0.5-2.6-1c-0.2-0.1-0.1-0.3,0-0.4l0,0l0,0.4
			l0,0l0.2-0.4l0,0c0.1,0.1,0.1,0.2,0.1,0.3c0,0,0,0.1-0.1,0.1c-0.8,0.5-1.7,0.8-2.7,0.9c-1.3,0.1-2.5-0.2-3.6-0.8
			c-0.1,0-0.2-0.2-0.1-0.3c0,0,0-0.1,0.1-0.1C17.5,8.8,18.4,8.4,19.4,8.3c0.2,0,0.3,0.4,0.1,0.4c-0.9,0.2-1.8,0.5-2.5,1.1l0-0.4
			c1,0.5,2.1,0.8,3.3,0.8c0.9-0.1,1.8-0.4,2.7-0.9v0.4l0,0c-0.2-0.1-0.1-0.5,0.2-0.4l0,0c0.1,0,0.2,0.2,0.1,0.3c0,0,0,0.1-0.1,0.1
			l0,0V9.3c0.8,0.5,1.7,0.8,2.7,0.9c1.1,0,2.3-0.2,3.3-0.7L29,9.9c-0.9-0.7-2-1.1-3.2-1.2c-0.1,0-0.2-0.1-0.2-0.2
			c0-0.1,0-0.1,0.1-0.2c1.2-1,1.9-2.5,2-4L28,4.5c-1.2,0.3-2.3,0.9-3.2,1.8c-0.1,0.1-0.2,0.1-0.3,0c0,0-0.1-0.1-0.1-0.1
			c-0.2-1.8-0.7-3.6-1.7-5.1l0.4-0.1c-0.7,1.6-1.2,3.4-1.3,5.1c0,0.1-0.1,0.2-0.2,0.2c-0.1,0-0.1,0-0.2-0.1c-1-0.9-2.2-1.4-3.5-1.5
			l0.2-0.3c0.5,1.5,1.1,2.9,2.4,3.8c0.2,0.1,0.1,0.4-0.1,0.4c-0.3,0-0.7,0-1,0C19.1,8.7,19.1,8.3,19.4,8.3z"/>
	</g>
	<path class="st0" d="M25.7,22.2L25.7,22.2c0.3,0.4,0.7,0.7,1,0.9c0.4,0.2,0.8,0.4,1.3,0.4c0.3,0,0.6,0,0.9,0l0,0
		c0.2,0.2,0.4,0.5,0.6,0.7c0.3,0.3,0.7,0.6,1.1,0.7c0.5,0.1,0.9,0.2,1.4,0.2h0c-0.3-0.5-0.6-0.9-1.1-1.2c-0.1-0.1-0.2-0.1-0.4-0.2
		c0.3-0.1,0.5-0.1,0.8-0.3c0.6-0.3,1-0.8,1.3-1.4h0c-0.5-0.1-1.1-0.1-1.6,0c-0.2,0-0.3,0.1-0.5,0.1l0.1-0.2c0.3-1,0.4-2,0.3-2.9
		c-0.7,0.6-1.2,1.3-1.8,2.1c-0.1,0.1-0.1,0.2-0.2,0.3c0-0.1-0.1-0.2-0.2-0.3c-0.3-0.5-0.8-1-1.4-1.3v0c-0.1,0.5-0.1,1.1,0,1.6
		c0.1,0.3,0.2,0.6,0.4,0.9c-0.2-0.1-0.3-0.2-0.5-0.2C26.8,22.1,26.3,22.1,25.7,22.2z"/>
	<path class="st0" d="M27.4,22.1c0.2,0.1,0.3,0.1,0.5,0.2l-0.2,0.2c-0.4-0.8-0.6-1.8-0.4-2.7c0-0.1,0.1-0.1,0.1-0.1c0,0,0,0,0,0
		c0.7,0.4,1.3,1,1.6,1.7h-0.2c0.5-0.9,1.2-1.7,1.9-2.4c0-0.1,0.1-0.1,0.2,0c0,0,0,0,0,0.1c0.1,1.1,0,2.2-0.3,3.2l-0.2-0.2
		c0.7-0.2,1.5-0.3,2.2-0.2c0.1,0,0.1,0.1,0.1,0.1c0,0,0,0,0,0c-0.4,0.9-1.2,1.5-2.2,1.8l0-0.2c0.6,0.3,1.1,0.8,1.5,1.5
		c0,0.1,0,0.1,0,0.2c0,0-0.1,0-0.1,0c-0.7,0-1.4-0.1-2.1-0.5c-0.4-0.3-0.8-0.7-1.1-1.1c0-0.1,0-0.1,0-0.2c0,0,0,0,0.1,0l0,0
		l-0.1,0.2l0,0l0.2-0.2l0,0c0,0.1,0,0.2-0.1,0.2c-0.5,0-1.1,0-1.6-0.1c-0.7-0.3-1.3-0.7-1.7-1.3c-0.1,0-0.1-0.1,0-0.2
		c0,0,0.1,0,0.1,0C26.3,22,26.8,22,27.4,22.1c0.1,0,0.1,0.3-0.1,0.2c-0.5-0.1-1.1-0.1-1.6,0l0.1-0.2c0.4,0.5,0.9,0.9,1.5,1.2
		c0.5,0.2,1.1,0.2,1.6,0.2l-0.1,0.2l0,0c-0.1-0.1,0.1-0.3,0.2-0.2l0,0c0.1,0,0.1,0.1,0,0.2c0,0-0.1,0-0.1,0l0,0l0.1-0.2
		c0.3,0.4,0.7,0.8,1.2,1.1c0.6,0.3,1.2,0.4,1.9,0.4L32,25.2c-0.3-0.6-0.8-1-1.4-1.3c-0.1,0-0.1-0.1-0.1-0.2c0,0,0.1-0.1,0.1-0.1
		c0.9-0.2,1.6-0.8,2-1.6l0.1,0.2c-0.7-0.1-1.4,0-2.1,0.2c-0.1,0-0.1,0-0.2-0.1c0,0,0-0.1,0-0.1c0.3-1,0.4-2,0.3-3.1l0.2,0.1
		c-0.7,0.7-1.4,1.5-1.9,2.3c0,0.1-0.1,0.1-0.2,0.1c0,0-0.1,0-0.1-0.1c-0.3-0.7-0.8-1.2-1.5-1.6l0.2-0.1c-0.2,0.9,0,1.8,0.4,2.5
		c0.1,0.1,0,0.2-0.2,0.2c-0.2-0.1-0.3-0.2-0.5-0.2C27.1,22.3,27.3,22.1,27.4,22.1z"/>
	<path class="st0" d="M29.6,22.5c-0.3,0.9-0.7,1.8-1.4,2.6c-0.1,0.1-0.3,0-0.2-0.2c0.6-0.7,1.1-1.6,1.3-2.5
		C29.4,22.3,29.7,22.4,29.6,22.5L29.6,22.5z"/>
	<path class="st0" d="M32.9,28.7L32.9,28.7c-0.2,0.5-0.2,1-0.3,1.5c0,0.5,0.1,1,0.3,1.4c0.1,0.3,0.3,0.5,0.5,0.8l0,0
		c-0.1,0.3-0.2,0.6-0.3,0.9c-0.1,0.5-0.1,1,0,1.4c0.1,0.5,0.3,0.9,0.6,1.4l0,0c0.3-0.5,0.5-1.1,0.5-1.6c0-0.1,0-0.3,0-0.4
		c0.2,0.2,0.4,0.4,0.7,0.6c0.6,0.3,1.3,0.5,2,0.4v0c-0.2-0.5-0.5-1-0.9-1.4c-0.1-0.1-0.2-0.2-0.4-0.3c0.1,0,0.1,0,0.2,0
		c1-0.2,2-0.7,2.9-1.4c-0.9-0.3-1.9-0.4-2.9-0.5c-0.1,0-0.3,0-0.4,0c0.1-0.1,0.2-0.2,0.2-0.3c0.3-0.6,0.5-1.3,0.4-2h0
		c-0.5,0.2-1,0.6-1.5,0.9c-0.3,0.2-0.5,0.5-0.7,0.9c0-0.2,0-0.4-0.1-0.6C33.5,29.6,33.2,29.1,32.9,28.7z"/>
	<path class="st0" d="M33.9,30.1c0,0.2,0.1,0.4,0.1,0.6h-0.3c0.5-0.9,1.3-1.5,2.3-1.9c0.1,0,0.1,0,0.2,0.1c0,0,0,0,0,0
		c0.1,0.9-0.2,1.7-0.7,2.4l-0.1-0.2c1.1,0,2.2,0.1,3.3,0.5c0.1,0,0.1,0.1,0.1,0.1c0,0,0,0.1-0.1,0.1c-0.9,0.7-2,1.2-3.1,1.4l0.1-0.2
		c0.6,0.5,1.1,1.2,1.4,1.9c0,0.1,0,0.1-0.1,0.2c0,0,0,0,0,0c-1.1,0.1-2.1-0.3-2.8-1l0.2-0.1c0.1,0.8-0.1,1.5-0.5,2.2
		c0,0.1-0.1,0.1-0.2,0.1c0,0,0,0-0.1-0.1c-0.4-0.6-0.6-1.4-0.7-2.2c0-0.6,0.2-1.1,0.4-1.7c0-0.1,0.2-0.1,0.2,0l0,0l-0.2,0.1l0,0
		l0.3,0.1l0,0c0,0.1-0.1,0.1-0.2,0c0,0,0,0,0,0c-0.3-0.5-0.6-1-0.8-1.5c-0.1-0.8-0.1-1.5,0.2-2.3c0-0.1,0.1-0.1,0.2-0.1
		c0,0,0.1,0,0.1,0.1C33.4,29,33.7,29.5,33.9,30.1c0,0.1-0.2,0.2-0.3,0.1c-0.2-0.5-0.5-1-0.9-1.5l0.2-0.1c-0.2,0.7-0.3,1.4-0.2,2
		c0.2,0.6,0.4,1.1,0.7,1.6h-0.2l0,0c0.1-0.1,0.3-0.1,0.3,0.1l0,0c0,0.1-0.1,0.1-0.2,0.1c0,0-0.1,0-0.1,0l0,0h0.2
		c-0.2,0.5-0.4,1.1-0.4,1.7c0.1,0.7,0.3,1.4,0.7,1.9h-0.2c0.4-0.6,0.5-1.3,0.5-2c0-0.1,0-0.1,0.1-0.2c0.1,0,0.1,0,0.1,0.1
		c0.7,0.7,1.6,1,2.6,0.9L36.8,35c-0.3-0.7-0.8-1.3-1.3-1.8c-0.1,0-0.1-0.1,0-0.2c0,0,0.1,0,0.1,0c1.1-0.2,2.1-0.7,3-1.4l0.1,0.2
		c-1-0.3-2.1-0.5-3.2-0.4c-0.1,0-0.1,0-0.1-0.1c0,0,0-0.1,0-0.1c0.5-0.7,0.7-1.4,0.6-2.2l0.2,0.1c-0.9,0.3-1.6,1-2.1,1.8
		c-0.1,0.1-0.3,0.1-0.3,0c0-0.2,0-0.4-0.1-0.6C33.6,30,33.8,30,33.9,30.1z"/>
	<path class="st0" d="M34.7,32.4c-1,0.3-2.1,0.3-3.1,0.1c-0.2,0-0.1-0.3,0-0.3c1,0.2,2.1,0.1,3.1-0.1C34.9,32.1,34.9,32.3,34.7,32.4
		L34.7,32.4z"/>
	<path class="st0" d="M30.6,34.5L30.6,34.5c-0.4,0-0.8,0-1.2,0.1c-0.4,0.1-0.7,0.3-1,0.5c-0.2,0.2-0.3,0.3-0.5,0.5l0,0
		c-0.2,0-0.5,0-0.7,0c-0.4,0-0.7,0.1-1.1,0.3c-0.3,0.2-0.6,0.4-0.9,0.7l0,0c0.4,0.1,0.9,0.1,1.3,0c0.1,0,0.2,0,0.3-0.1
		c-0.1,0.2-0.2,0.4-0.3,0.7c-0.1,0.5-0.1,1.1,0.1,1.6l0,0c0.3-0.3,0.6-0.6,0.9-1c0.1-0.1,0.1-0.2,0.2-0.4l0.1,0.1
		c0.4,0.7,1,1.3,1.6,1.8c0-0.7-0.1-1.5-0.3-2.2c0-0.1-0.1-0.2-0.1-0.3c0.1,0,0.2,0.1,0.3,0.1c0.5,0.1,1.1,0,1.6-0.2l0,0
		c-0.3-0.3-0.6-0.7-1-0.9c-0.2-0.1-0.5-0.2-0.8-0.3c0.1,0,0.3-0.1,0.4-0.2C30.1,35.2,30.4,34.9,30.6,34.5z"/>
	<path class="st0" d="M29.7,35.5c-0.1,0.1-0.3,0.1-0.4,0.2v-0.2c0.8,0.2,1.4,0.6,1.9,1.3c0,0,0,0.1,0,0.1c0,0,0,0,0,0
		c-0.6,0.2-1.3,0.2-1.9,0l0.1-0.1c0.2,0.8,0.4,1.7,0.4,2.5c0,0.1,0,0.1-0.1,0.1c0,0-0.1,0-0.1,0c-0.7-0.5-1.3-1.2-1.7-2H28
		c-0.3,0.6-0.7,1.1-1.1,1.4c0,0-0.1,0-0.1,0c0,0,0,0,0,0c-0.3-0.8-0.2-1.6,0.1-2.3l0.1,0.2c-0.5,0.2-1.1,0.2-1.7,0.1
		c-0.1,0-0.1-0.1-0.1-0.1c0,0,0,0,0-0.1c0.4-0.4,0.9-0.8,1.4-1c0.4-0.1,0.9-0.1,1.3-0.1c0.1,0,0.1,0.1,0.1,0.2l0,0L28,35.5l0,0v0.2
		l0,0c-0.1,0-0.1-0.1-0.1-0.1c0,0,0,0,0,0c0.3-0.3,0.6-0.6,1-0.9c0.5-0.3,1.1-0.4,1.7-0.3c0.1,0,0.1,0,0.1,0.1c0,0,0,0,0,0.1
		C30.5,34.9,30.1,35.3,29.7,35.5c-0.1,0.1-0.2-0.1-0.1-0.2c0.4-0.2,0.7-0.6,0.9-1l0.1,0.2c-0.5,0-1.1,0.1-1.6,0.3
		c-0.4,0.2-0.7,0.5-1,0.9L28,35.6l0,0c0.1,0,0.1,0,0.1,0.1c0,0.1,0,0.1-0.1,0.1l0,0c-0.1,0-0.1,0-0.1-0.1c0,0,0,0,0-0.1l0,0l0.1,0.2
		c-0.4-0.1-0.9,0-1.3,0.1c-0.5,0.2-0.9,0.5-1.3,0.9l-0.1-0.2c0.5,0.1,1.1,0.1,1.6-0.1c0.1,0,0.1,0,0.1,0.1c0,0,0,0.1,0,0.1
		c-0.3,0.7-0.4,1.4-0.1,2.1l-0.2,0c0.5-0.4,0.8-0.8,1.1-1.3c0-0.1,0.1-0.1,0.1-0.1c0,0,0,0,0.1,0.1c0.4,0.7,1,1.4,1.7,1.9l-0.2,0.1
		c0-0.8-0.1-1.7-0.4-2.5c0-0.1,0-0.1,0-0.1c0,0,0.1,0,0.1,0c0.6,0.2,1.2,0.2,1.8,0l0,0.2c-0.4-0.6-1.1-1-1.8-1.2
		c-0.1,0-0.1-0.2,0-0.2c0.1-0.1,0.3-0.1,0.4-0.2C29.8,35.3,29.8,35.5,29.7,35.5z"/>
	<path class="st0" d="M28.2,36.7c-0.4-0.7-0.7-1.5-0.8-2.3c0-0.1,0-0.1,0.1-0.1c0.1,0,0.1,0,0.1,0.1c0,0,0,0,0,0
		c0.1,0.8,0.3,1.6,0.8,2.2C28.5,36.7,28.3,36.8,28.2,36.7L28.2,36.7z"/>
	<path class="st0" d="M27.4,26.6L27.4,26.6c-0.2,0-0.5,0-0.7,0.1c-0.2,0.1-0.4,0.2-0.6,0.3c-0.1,0.1-0.1,0.2-0.3,0.3l0,0
		c-0.2,0-0.3,0-0.5,0c-0.2,0-0.5,0.1-0.7,0.2c-0.2,0.1-0.4,0.3-0.6,0.5l0,0c0.3,0.1,0.6,0.1,0.9,0c0.1,0,0.1,0,0.2-0.1
		C25,28,25,28.2,25,28.3c-0.1,0.3,0,0.7,0.1,1l0,0c0.2-0.2,0.4-0.4,0.6-0.7c0-0.1,0.1-0.2,0.1-0.2l0,0.1c0.3,0.5,0.6,0.9,1.1,1.2
		c0-0.5-0.1-1-0.2-1.4c0-0.1,0-0.1-0.1-0.2l0.2,0.1c0.3,0.1,0.7,0,1-0.1l0,0c-0.2-0.2-0.4-0.4-0.7-0.6c-0.2-0.1-0.3-0.2-0.5-0.2
		c0.1,0,0.2-0.1,0.3-0.1C27.1,27,27.3,26.8,27.4,26.6z"/>
	<path class="st0" d="M26.9,27.2c-0.1,0-0.2,0.1-0.3,0.1v-0.1c0.5,0.1,0.9,0.4,1.2,0.8c0,0,0,0.1,0,0.1c-0.4,0.1-0.8,0.1-1.2,0
		l0.1-0.1c0.2,0.5,0.2,1.1,0.2,1.6c0,0,0,0.1-0.1,0.1c0,0,0,0,0,0c-0.5-0.3-0.9-0.8-1.2-1.3h0.1c-0.2,0.4-0.4,0.7-0.7,0.9
		c0,0-0.1,0-0.1,0c-0.2-0.5-0.2-1,0.1-1.5l0.1,0.1c-0.4,0.1-0.7,0.2-1.1,0.1c0,0,0-0.1,0-0.1c0,0,0,0,0,0c0.2-0.3,0.6-0.5,0.9-0.6
		c0.3-0.1,0.6-0.1,0.9,0c0,0,0.1,0,0.1,0.1c0,0,0,0,0,0l0,0l-0.1-0.1l0,0v0.1l0,0c0,0-0.1,0-0.1-0.1c0,0,0,0,0,0
		c0.2-0.2,0.4-0.4,0.6-0.6c0.3-0.2,0.7-0.2,1.1-0.2c0,0,0.1,0,0.1,0.1c0,0,0,0,0,0C27.4,26.9,27.2,27.1,26.9,27.2
		C26.8,27.3,26.8,27.2,26.9,27.2c0.2-0.2,0.4-0.4,0.5-0.7l0.1,0.1c-0.3,0-0.7,0-1,0.2c-0.2,0.2-0.5,0.3-0.6,0.6l0-0.1l0,0
		c0.1,0,0.1,0.1,0,0.1l0,0c0,0-0.1,0-0.1-0.1c0,0,0,0,0,0l0,0l0,0.1c-0.3,0-0.6,0-0.9,0c-0.3,0.1-0.6,0.3-0.8,0.6V28
		c0.3,0.1,0.7,0.1,1,0c0.1,0,0.1,0.1,0.1,0.1c-0.2,0.4-0.2,0.9-0.1,1.3H25c0.3-0.2,0.5-0.5,0.7-0.9c0-0.1,0.1,0,0.1,0
		c0.3,0.5,0.6,0.9,1.1,1.2l-0.1,0.1c0-0.5-0.1-1.1-0.2-1.6c0,0,0-0.1,0-0.1c0,0,0,0,0,0c0.4,0.1,0.8,0.1,1.2,0v0.1
		c-0.3-0.4-0.7-0.6-1.1-0.8c-0.1,0-0.1-0.1,0-0.1C26.7,27.3,26.8,27.2,26.9,27.2C26.9,27.1,27,27.2,26.9,27.2z"/>
	<path class="st0" d="M25.9,28c-0.3-0.4-0.4-1-0.5-1.5c0-0.1,0.1-0.1,0.1,0c0,0.5,0.2,1,0.5,1.4C26,28,26,28,25.9,28L25.9,28z"/>
</g>
</svg>
