<?xml version="1.0" encoding="utf-8"?>
<!-- Generator: Adobe Illustrator 26.0.1, SVG Export Plug-In . SVG Version: 6.00 Build 0)  -->
<svg version="1.1" id="Camada_1" xmlns="http://www.w3.org/2000/svg" xmlns:xlink="http://www.w3.org/1999/xlink" x="0px" y="0px"
	 viewBox="0 0 44.3 51" style="enable-background:new 0 0 44.3 51;" xml:space="preserve">
<style type="text/css">
	.st0{fill:#EE780A;}
</style>
<g>
	<polygon class="st0" points="35.3,22.8 35.1,22.6 35.1,22.6 34.8,22.3 23.4,32.9 23.1,21.8 29,15.2 28.9,15 28.9,15 28.7,14.9 
		23.1,19.9 22.8,9.2 22,9.2 21.7,20.1 15.9,14.9 15.7,15 15.7,15 15.5,15.2 21.6,22 21.4,33.2 10,22.8 9.8,23 9.8,23 9.5,23.3 
		21.3,36.2 21,50.8 22.3,50.8 23.8,50.8 23.4,35.8 	"/>
	<path class="st0" d="M7.8,20.9c-0.1,0.3-0.3,0.5-0.3,0.8c-0.1-0.5-0.3-1-0.6-1.5c-0.5-0.7-1.1-1.3-1.8-1.9l-0.1-0.1
		c-0.3,1-0.4,2-0.2,3c0,0.2,0.1,0.4,0.2,0.6l-0.5-0.2c-1.4-0.3-2.8-0.4-4.2-0.4c0.9,1.2,2.1,2.3,3.5,3l0.3,0.1
		c-0.2,0.1-0.5,0.2-0.7,0.3c-0.7,0.5-1.3,1-1.9,1.7l-0.1,0.1c1,0.3,2,0.4,3,0.2c0.4-0.1,0.8-0.3,1.2-0.5c-0.1,0.2-0.2,0.4-0.2,0.6
		c-0.2,0.8-0.1,1.7,0.1,2.5l0,0c0.5-0.5,1-1.1,1.3-1.7c0.3-0.6,0.5-1.3,0.5-2c0-0.4,0-0.9-0.1-1.3l0,0c0.3-0.3,0.7-0.6,1-0.9
		c0.5-0.5,0.8-1.1,1-1.8c0.1-0.7,0.2-1.4,0.2-2.2v-0.1C8.9,19.6,8.3,20.2,7.8,20.9z"/>
	<path class="st0" d="M7.6,20.8c-0.1,0.3-0.3,0.5-0.3,0.8l0.4,0c-0.3-1.5-1.3-2.5-2.5-3.5c-0.1-0.1-0.2,0-0.3,0c0,0,0,0,0,0
		c-0.4,1.2-0.4,2.5,0,3.7l0.3-0.3C3.6,21.2,2,21,0.4,21.1c-0.1,0-0.2,0.1-0.2,0.2c0,0,0,0.1,0,0.1c1,1.3,2.3,2.4,3.8,3.2v-0.4
		c-1,0.5-2,1.2-2.7,2.2c-0.1,0.1,0,0.2,0.1,0.3c0,0,0,0,0,0c1.4,0.5,3,0.3,4.3-0.4l-0.3-0.2c-0.4,1-0.4,2.2-0.1,3.2
		c0,0.1,0.1,0.2,0.3,0.1c0,0,0.1,0,0.1-0.1c0.8-0.8,1.4-1.7,1.8-2.8c0.2-0.8,0.2-1.7,0.1-2.5c0-0.2-0.2-0.2-0.3-0.1l0,0l0.3,0.2H7.2
		c0,0.1,0.1,0.2,0.2,0.2c0,0,0.1,0,0.1,0c0.7-0.5,1.2-1.2,1.7-1.9c0.5-1,0.7-2.1,0.6-3.2C9.8,19,9.7,19,9.6,19c0,0-0.1,0-0.1,0
		C8.8,19.4,8.1,20.1,7.6,20.8C7.5,21,7.9,21.2,8,21c0.4-0.7,1.1-1.3,1.8-1.7l-0.3-0.2c0.1,1-0.1,2-0.4,3c-0.4,0.7-1,1.4-1.6,1.9
		l0.3,0.1l0,0c0-0.2-0.4-0.2-0.4,0l0,0c0,0.1,0.1,0.2,0.2,0.2c0,0,0.1,0,0.1,0l0,0l-0.3-0.1c0.1,0.8,0.1,1.7-0.1,2.5
		c-0.4,0.9-0.9,1.8-1.7,2.5l0.3,0.1c-0.3-1-0.3-2.1,0.1-3C6,26,5.7,25.9,5.6,26c-1.2,0.7-2.7,0.8-4,0.3l0.1,0.3
		c0.7-0.9,1.5-1.6,2.5-2c0.1,0,0.1-0.2,0.1-0.3c0,0-0.1-0.1-0.1-0.1c-1.4-0.7-2.7-1.8-3.7-3.1l-0.2,0.3c1.6,0,3.2,0.2,4.7,0.6
		c0.1,0,0.2,0,0.3-0.1c0,0,0-0.1,0-0.2c-0.4-1.1-0.4-2.3,0-3.3l-0.3,0.1c1.1,0.9,2,1.9,2.3,3.3c0,0.1,0.1,0.2,0.2,0.2
		c0.1,0,0.1-0.1,0.1-0.1C7.7,21.5,7.8,21.3,8,21C8.1,20.8,7.7,20.6,7.6,20.8z"/>
	<path class="st0" d="M5.6,23.7c1.3,0.8,2.8,1.3,4.3,1.4c0.1,0,0.2-0.1,0.2-0.2c0-0.1-0.1-0.2-0.2-0.2c-1.5-0.1-2.9-0.6-4.2-1.3
		C5.5,23.2,5.3,23.6,5.6,23.7L5.6,23.7z"/>
	<path class="st0" d="M14.6,12.1c-0.3,0.1-0.6,0.2-0.9,0.4c0.3-0.5,0.5-1,0.6-1.6c0.1-0.9,0.1-1.8,0-2.7V8c-0.9,0.5-1.7,1.3-2.3,2.2
		c-0.1,0.2-0.2,0.4-0.2,0.6c-0.1-0.2-0.2-0.4-0.3-0.5c-0.9-1.2-1.9-2.4-3-3.4c-0.2,1.7,0,3.3,0.5,4.9l0.1,0.3
		c-0.3-0.1-0.5-0.2-0.8-0.2c-0.9-0.1-1.8-0.1-2.7,0H5.6c0.5,0.9,1.3,1.7,2.2,2.3c0.4,0.2,0.9,0.4,1.3,0.5c-0.2,0.1-0.4,0.2-0.6,0.3
		c-0.8,0.5-1.4,1.2-1.8,2.1h0.1c0.8,0,1.6-0.1,2.3-0.4c0.7-0.2,1.3-0.7,1.9-1.2c0.3-0.3,0.4-0.5,0.9-1.1l0,0c0.5,0,1,0,1.5,0
		c0.7-0.1,1.5-0.3,2.1-0.7c0.6-0.5,1.2-1,1.7-1.6l0-0.1C16.3,11.8,15.4,11.8,14.6,12.1z"/>
	<path class="st0" d="M14.5,11.9c-0.3,0.1-0.6,0.2-0.8,0.4l0.3,0.3c0.8-1.4,0.8-3,0.7-4.6c0-0.1-0.1-0.2-0.2-0.2c0,0,0,0-0.1,0
		c-1.2,0.6-2.1,1.7-2.6,2.9H12c-0.9-1.5-2-2.8-3.3-4c-0.1-0.1-0.2-0.1-0.3,0c0,0-0.1,0.1-0.1,0.1C8.2,8.7,8.4,10.5,9,12.2l0.3-0.3
		c-1.2-0.4-2.5-0.5-3.7-0.3c-0.1,0-0.2,0.1-0.2,0.2c0,0,0,0,0,0.1c0.8,1.5,2.1,2.5,3.7,2.9l-0.1-0.4c-1,0.5-1.9,1.4-2.4,2.5
		c-0.1,0.1,0,0.2,0.1,0.3c0,0,0.1,0,0.1,0c1.2,0,2.4-0.3,3.4-0.9c0.7-0.5,1.4-1.2,1.9-1.9c0.1-0.1,0-0.3-0.2-0.3l0,0l0.1,0.4l0,0
		l-0.3-0.3l0,0c-0.1,0.1,0,0.3,0.2,0.3c0.9,0.1,1.8,0,2.7-0.3c1.1-0.5,2.1-1.2,2.8-2.1c0.1-0.1,0.1-0.2,0-0.3c0,0-0.1-0.1-0.1-0.1
		C16.4,11.6,15.4,11.6,14.5,11.9c-0.2,0-0.1,0.5,0.1,0.4c0.9-0.2,1.8-0.3,2.6-0.1l-0.1-0.4c-0.7,0.9-1.5,1.5-2.5,2
		c-0.9,0.3-1.8,0.4-2.7,0.3l0.2,0.3l0,0c0.1-0.2-0.1-0.4-0.3-0.3l0,0c-0.1,0.1-0.1,0.2,0,0.3c0,0,0.1,0.1,0.1,0.1l0,0l-0.2-0.3
		c-0.5,0.7-1.2,1.4-1.9,1.9c-1,0.5-2,0.7-3.1,0.7l0.2,0.3c0.5-1,1.3-1.8,2.3-2.3c0.1,0,0.1-0.2,0.1-0.3c0-0.1-0.1-0.1-0.2-0.1
		c-1.4-0.4-2.7-1.4-3.3-2.7l-0.1,0.3C6.8,11.9,8,12,9.1,12.3c0.1,0,0.2,0,0.3-0.1c0-0.1,0-0.1,0-0.2c-0.6-1.6-0.8-3.4-0.6-5.1
		L8.4,7.1c1.3,1.1,2.4,2.4,3.3,3.9c0,0.1,0.2,0.2,0.3,0.1c0,0,0.1-0.1,0.1-0.1c0.5-1.1,1.3-2.1,2.4-2.7l-0.3-0.1
		c0.2,1.5,0.2,2.9-0.6,4.2c-0.1,0.2,0.1,0.4,0.3,0.3c0.3-0.1,0.6-0.3,0.8-0.4C14.9,12.2,14.7,11.8,14.5,11.9z"/>
	<path class="st0" d="M10.8,12.6c0.8,2.1,1,2.5,2.4,4.2c0.1,0.1,0.2,0.1,0.3,0c0.1-0.1,0.1-0.2,0-0.3l0,0c-1.4-1.7-1.5-2.1-2.3-4.1
		C11.1,12.2,10.7,12.4,10.8,12.6z"/>
	<path class="st0" d="M17.6,21.7c-0.2,0.1-0.4,0.1-0.5,0.2c0.2-0.3,0.3-0.6,0.4-0.9c0.1-0.5,0.1-1.1,0-1.6v0c-0.6,0.3-1,0.8-1.4,1.3
		c-0.1,0.1-0.1,0.2-0.2,0.3c-0.1-0.1-0.1-0.2-0.2-0.3c-0.5-0.7-1.1-1.4-1.8-2.1c-0.1,1,0,2,0.3,2.9l0.1,0.2
		c-0.1-0.1-0.3-0.1-0.5-0.2c-0.5-0.1-1.1-0.1-1.6,0h0c0.3,0.6,0.8,1.1,1.3,1.4c0.2,0.1,0.5,0.2,0.8,0.3c-0.1,0.1-0.3,0.1-0.4,0.2
		c-0.4,0.3-0.8,0.7-1.1,1.2h0c0.5,0,0.9-0.1,1.4-0.2c0.4-0.1,0.8-0.4,1.1-0.7c0.2-0.2,0.4-0.4,0.6-0.7l0,0c0.3,0,0.6,0,0.9,0
		c0.4,0,0.9-0.2,1.3-0.4c0.4-0.3,0.7-0.6,1-0.9v0C18.6,21.6,18.1,21.6,17.6,21.7z"/>
	<path class="st0" d="M17.5,21.6c-0.2,0.1-0.3,0.1-0.5,0.2l0.2,0.2c0.4-0.8,0.6-1.8,0.4-2.7c0-0.1-0.1-0.1-0.1-0.1c0,0,0,0,0,0
		c-0.7,0.4-1.3,1-1.6,1.7H16c-0.5-0.9-1.2-1.7-1.9-2.4c0-0.1-0.1-0.1-0.2,0c0,0,0,0.1,0,0.1c-0.1,1.1,0,2.2,0.3,3.2l0.2-0.2
		c-0.7-0.2-1.5-0.3-2.2-0.2c-0.1,0-0.1,0.1-0.1,0.1c0,0,0,0,0,0c0.4,0.9,1.2,1.5,2.2,1.8l0-0.2c-0.6,0.3-1.2,0.8-1.5,1.4
		c0,0.1,0,0.1,0,0.2c0,0,0.1,0,0.1,0c0.7,0,1.4-0.1,2.1-0.5c0.4-0.3,0.8-0.7,1.1-1.1c0.1-0.1,0-0.2-0.1-0.2l0,0l0.1,0.2l0,0L15.8,23
		l0,0c0,0.1,0,0.1,0,0.2c0,0,0,0,0.1,0c0.5,0,1.1,0,1.6-0.1c0.7-0.3,1.3-0.7,1.7-1.3c0.1,0,0.1-0.1,0-0.2c0,0,0,0-0.1,0
		C18.6,21.4,18.1,21.4,17.5,21.6c-0.1,0-0.1,0.3,0.1,0.2c0.5-0.1,1.1-0.1,1.6,0l-0.1-0.2c-0.4,0.5-0.9,0.9-1.5,1.2
		c-0.5,0.2-1.1,0.2-1.6,0.2l0.1,0.2l0,0c0.1-0.1-0.1-0.3-0.2-0.2l0,0c-0.1,0-0.1,0.1,0,0.2c0,0,0,0,0.1,0l0,0L15.8,23
		c-0.3,0.4-0.7,0.8-1.1,1.1c-0.6,0.3-1.2,0.4-1.9,0.4l0.1,0.2c0.3-0.6,0.8-1,1.3-1.3c0.1,0,0.1-0.1,0.1-0.2c0,0-0.1-0.1-0.1-0.1
		c-0.9-0.2-1.6-0.8-2-1.6l-0.1,0.2c0.7-0.1,1.4,0,2.1,0.2c0.1,0,0.1,0,0.2-0.1c0,0,0-0.1,0-0.1c-0.3-1-0.4-2-0.3-3.1l-0.2,0.1
		c0.7,0.7,1.4,1.5,1.9,2.3c0,0.1,0.1,0.1,0.2,0.1c0,0,0.1,0,0.1-0.1c0.3-0.7,0.8-1.2,1.5-1.6l-0.2-0.1c0.2,0.9,0,1.8-0.4,2.5
		c-0.1,0.1,0,0.2,0.2,0.2c0.2-0.1,0.3-0.2,0.5-0.2C17.8,21.7,17.7,21.5,17.5,21.6z"/>
	<path class="st0" d="M15.3,22c0.3,0.9,0.7,1.8,1.4,2.6c0.1,0.1,0.3,0,0.2-0.2c-0.6-0.7-1.1-1.6-1.3-2.5
		C15.5,21.7,15.3,21.8,15.3,22L15.3,22z"/>
	<path class="st0" d="M10.9,29.8c0,0.2-0.1,0.4-0.1,0.6c-0.2-0.3-0.4-0.6-0.7-0.9c-0.5-0.4-1-0.7-1.5-0.9H8.6c0,0.7,0.1,1.4,0.4,2
		c0.1,0.1,0.1,0.2,0.2,0.3H8.9c-1,0.1-1.9,0.2-2.9,0.5c0.8,0.7,1.8,1.1,2.9,1.4c0.1,0,0.1,0,0.2,0c-0.1,0.1-0.3,0.2-0.4,0.3
		c-0.4,0.4-0.7,0.9-0.9,1.5v0c0.7,0,1.4-0.1,2-0.4c0.3-0.1,0.5-0.3,0.7-0.6c0,0.1,0,0.3,0,0.4c0,0.6,0.2,1.1,0.5,1.6l0,0
		c0.3-0.4,0.5-0.9,0.6-1.4c0.1-0.5,0.1-1,0-1.4c-0.1-0.3-0.2-0.6-0.3-0.9l0,0c0.2-0.3,0.3-0.5,0.5-0.8c0.2-0.5,0.4-1,0.4-1.5
		c0-0.5-0.1-1-0.2-1.5v0C11.4,28.7,11.1,29.2,10.9,29.8z"/>
	<path class="st0" d="M10.8,29.7c0,0.2-0.1,0.4-0.1,0.6h0.3c-0.5-0.9-1.3-1.5-2.3-1.9c-0.1,0-0.2,0-0.2,0.1c0,0,0,0,0,0
		c-0.1,0.9,0.2,1.7,0.7,2.4l0.1-0.2c-1.1,0-2.2,0.1-3.3,0.5c-0.1,0-0.1,0.1-0.1,0.2c0,0,0,0.1,0,0.1c0.9,0.7,2,1.2,3.1,1.4L9,32.6
		c-0.6,0.5-1.1,1.2-1.4,1.9c0,0.1,0,0.1,0.1,0.2c0,0,0,0,0,0c1.1,0.1,2.1-0.3,2.8-1l-0.2-0.1c-0.1,0.8,0.1,1.5,0.5,2.2
		c0,0.1,0.1,0.1,0.2,0.1c0,0,0,0,0.1-0.1c0.4-0.6,0.6-1.4,0.7-2.2c0-0.6-0.2-1.1-0.4-1.7c0-0.1-0.2-0.1-0.2,0l0,0l0.2,0.1l0,0
		l-0.3,0.1l0,0c0,0.1,0.1,0.1,0.2,0c0,0,0,0,0,0c0.3-0.5,0.6-1,0.8-1.5c0.1-0.8,0.1-1.5-0.2-2.3c0-0.1-0.1-0.1-0.2-0.1
		c0,0-0.1,0-0.1,0.1C11.2,28.6,10.9,29.2,10.8,29.7c-0.1,0.2,0.2,0.3,0.2,0.1c0.2-0.5,0.5-1,0.9-1.5l-0.2-0.1c0.2,0.7,0.3,1.4,0.2,2
		c-0.1,0.5-0.4,1.1-0.7,1.5h0.2l0,0c-0.1-0.1-0.3-0.1-0.3,0.1l0,0c0,0.1,0.1,0.1,0.2,0.1c0,0,0.1,0,0.1,0l0,0h-0.2
		c0.2,0.5,0.4,1.1,0.4,1.7c-0.1,0.7-0.3,1.4-0.7,1.9h0.2c-0.4-0.6-0.5-1.3-0.5-2c0-0.1-0.1-0.1-0.1-0.1c0,0-0.1,0-0.1,0
		c-0.7,0.7-1.7,1-2.6,0.9l0.1,0.2c0.3-0.7,0.8-1.3,1.3-1.8c0.1,0,0.1-0.1,0-0.2c0,0-0.1,0-0.1,0c-1.1-0.2-2.1-0.7-3-1.4l-0.1,0.2
		c1-0.3,2.1-0.5,3.2-0.4c0.1,0,0.1,0,0.1-0.1c0,0,0-0.1,0-0.1c-0.5-0.7-0.7-1.4-0.6-2.2l-0.2,0.1c0.9,0.3,1.6,1,2.1,1.8
		c0.1,0.1,0.2,0.1,0.3,0c0-0.2,0-0.4,0.1-0.6C11.1,29.6,10.8,29.6,10.8,29.7z"/>
	<path class="st0" d="M9.9,32c1,0.3,2.1,0.3,3.1,0.1c0.2,0,0.1-0.3,0-0.3C12,32,10.9,32,10,31.7C9.8,31.7,9.7,31.9,9.9,32z"/>
	<path class="st0" d="M14.9,35c0.1,0.1,0.3,0.1,0.4,0.2c-0.3,0-0.5,0.1-0.8,0.3c-0.4,0.3-0.7,0.6-1,0.9l0,0c0.5,0.2,1,0.2,1.6,0.1
		c0.1,0,0.2-0.1,0.3-0.1c0,0.1-0.1,0.2-0.1,0.3c-0.2,0.7-0.2,1.5-0.3,2.2c0.7-0.5,1.2-1.1,1.6-1.8c0,0,0-0.1,0.1-0.1
		c0,0.1,0.1,0.3,0.2,0.4c0.2,0.4,0.5,0.7,0.9,1l0,0c0.2-0.5,0.2-1.1,0.1-1.6c0-0.2-0.1-0.5-0.3-0.7c0.1,0,0.2,0.1,0.3,0.1
		c0.4,0.1,0.9,0.1,1.3,0l0,0c-0.3-0.3-0.6-0.5-0.9-0.7c-0.3-0.2-0.7-0.3-1.1-0.3c-0.2,0-0.5,0-0.7,0l0,0c-0.2-0.2-0.3-0.4-0.5-0.5
		c-0.3-0.3-0.6-0.4-1-0.5C14.8,34,14.4,34,14.1,34h0C14.2,34.4,14.6,34.8,14.9,35z"/>
	<path class="st0" d="M14.9,35.1c0.1,0.1,0.3,0.1,0.4,0.2v-0.2c-0.8,0.2-1.4,0.6-1.9,1.3c0,0,0,0.1,0,0.1c0,0,0,0,0,0
		c0.6,0.2,1.3,0.2,1.9,0l-0.1-0.1c-0.2,0.8-0.4,1.7-0.4,2.5c0,0.1,0,0.1,0.1,0.1c0,0,0.1,0,0.1,0c0.7-0.5,1.3-1.2,1.7-2h-0.2
		c0.3,0.6,0.7,1.1,1.1,1.4c0,0,0.1,0,0.1,0c0,0,0,0,0,0c0.3-0.8,0.2-1.6-0.2-2.3l-0.1,0.2c0.5,0.2,1.1,0.2,1.7,0.1
		c0.1,0,0.1-0.1,0.1-0.1c0,0,0,0,0-0.1c-0.4-0.4-0.9-0.8-1.4-1c-0.4-0.1-0.9-0.1-1.3-0.1c-0.1,0-0.1,0.1-0.1,0.2l0,0l0.1-0.2l0,0
		v0.2l0,0c0.1,0,0.1-0.1,0.1-0.1c0,0,0,0,0,0c-0.3-0.3-0.6-0.6-1-0.9c-0.5-0.3-1.1-0.4-1.7-0.3c-0.1,0-0.1,0-0.1,0.1c0,0,0,0,0,0.1
		C14.2,34.5,14.5,34.9,14.9,35.1C15,35.2,15.1,35,15,35c-0.4-0.2-0.7-0.6-0.9-1L14,34.2c0.5,0,1.1,0.1,1.6,0.3
		c0.4,0.2,0.7,0.5,1,0.9l0.1-0.2l0,0c-0.1,0-0.1,0-0.1,0.1c0,0.1,0,0.1,0.1,0.1l0,0c0.1,0,0.1,0,0.1-0.1c0,0,0-0.1,0-0.1l0,0
		l-0.1,0.2c0.4-0.1,0.9,0,1.3,0.1c0.5,0.2,0.9,0.5,1.3,0.9l0-0.2c-0.5,0.1-1.1,0.1-1.6-0.1c-0.1,0-0.2,0.1-0.1,0.2
		c0.3,0.7,0.4,1.4,0.1,2.1l0.2,0c-0.5-0.4-0.8-0.8-1.1-1.3c0-0.1-0.1-0.1-0.1-0.1c0,0,0,0-0.1,0.1c-0.4,0.8-1,1.4-1.7,1.9l0.2,0.1
		c0-0.8,0.1-1.7,0.4-2.5c0-0.1,0-0.1-0.1-0.1c0,0,0,0-0.1,0c-0.6,0.2-1.2,0.2-1.8,0l0,0.2c0.4-0.6,1.1-1,1.8-1.2
		c0.1,0,0.1-0.1,0.1-0.1c0,0,0-0.1-0.1-0.1c-0.1-0.1-0.3-0.1-0.4-0.2C14.9,34.9,14.8,35.1,14.9,35.1z"/>
	<path class="st0" d="M16.4,36.2c0.4-0.7,0.7-1.5,0.8-2.3c0-0.1-0.1-0.1-0.1-0.1c0,0-0.1,0-0.1,0.1c-0.1,0.8-0.3,1.6-0.8,2.2
		C16.2,36.3,16.3,36.4,16.4,36.2L16.4,36.2z"/>
	<path class="st0" d="M18.1,26.9c0.1,0.1,0.2,0.1,0.3,0.1c-0.2,0-0.3,0.1-0.5,0.2c-0.2,0.2-0.5,0.4-0.7,0.6l0,0
		c0.3,0.1,0.7,0.1,1,0.1l0.2-0.1L18.3,28c-0.1,0.5-0.2,1-0.2,1.4c0.4-0.3,0.8-0.7,1-1.2l0-0.1c0,0.1,0.1,0.2,0.1,0.2
		c0.2,0.2,0.3,0.5,0.6,0.7l0,0c0.1-0.3,0.1-0.7,0.1-1c0-0.1-0.1-0.3-0.2-0.4c0.1,0,0.1,0.1,0.2,0.1c0.3,0.1,0.6,0.1,0.9,0l0,0
		c-0.2-0.2-0.4-0.3-0.6-0.5c-0.2-0.1-0.4-0.2-0.7-0.2c-0.2,0-0.3,0-0.5,0l0,0c-0.2-0.2-0.2-0.2-0.3-0.3c-0.2-0.2-0.4-0.3-0.6-0.3
		c-0.2-0.1-0.5-0.1-0.7-0.1l0,0C17.7,26.6,17.8,26.8,18.1,26.9z"/>
	<path class="st0" d="M18.1,27c0.1,0,0.2,0.1,0.3,0.1V27c-0.5,0.1-0.9,0.4-1.2,0.8c0,0,0,0.1,0,0.1c0.4,0.1,0.8,0.1,1.3,0l-0.1-0.1
		c-0.2,0.5-0.2,1.1-0.2,1.6c0,0,0,0.1,0.1,0.1c0,0,0,0,0,0c0.5-0.3,0.8-0.8,1.1-1.3h-0.1c0.2,0.4,0.4,0.7,0.7,0.9c0,0,0.1,0,0.1,0
		c0,0,0,0,0,0c0.2-0.5,0.2-1-0.1-1.5l-0.1,0.1c0.3,0.1,0.7,0.1,1.1,0c0,0,0-0.1,0-0.1c0,0,0,0,0,0c-0.2-0.3-0.6-0.5-0.9-0.6
		c-0.3,0-0.5-0.1-0.8,0c0,0-0.1,0-0.1,0.1c0,0,0,0,0,0l0,0l0.1-0.1l0,0v0.1l0,0c0,0,0.1-0.1,0-0.1c-0.2-0.2-0.4-0.4-0.6-0.6
		c-0.3-0.2-0.7-0.2-1.1-0.2c0,0-0.1,0-0.1,0.1c0,0,0,0,0,0C17.6,26.6,17.8,26.8,18.1,27c0.1,0,0.2-0.1,0.1-0.1
		c-0.2-0.2-0.4-0.4-0.6-0.6l-0.1,0.1c0.3,0,0.7,0,1,0.2c0.3,0.1,0.5,0.3,0.7,0.6l0-0.1l0,0c-0.1,0-0.1,0.1,0,0.1l0,0
		c0,0,0.1,0,0.1-0.1c0,0,0,0,0,0l0,0l0,0.1c0.3,0,0.6,0,0.9,0c0.3,0.1,0.6,0.3,0.8,0.6v-0.1c-0.4,0.1-0.7,0.1-1.1,0
		c-0.1,0-0.1,0.1-0.1,0.1c0.2,0.4,0.3,0.9,0.1,1.4H20c-0.3-0.2-0.5-0.5-0.7-0.9c0,0-0.1,0-0.1,0c0,0,0,0,0,0
		c-0.3,0.5-0.6,0.9-1.1,1.2l0.1,0.1c0-0.5,0.1-1.1,0.2-1.6c0,0,0-0.1,0-0.1c0,0,0,0,0,0c-0.4,0.1-0.8,0.1-1.2-0.1v0.1
		c0.3-0.4,0.7-0.7,1.2-0.8c0.1,0,0.1-0.1,0-0.1c-0.1,0-0.2-0.1-0.3-0.1C18,26.8,18,26.9,18.1,27z"/>
	<path class="st0" d="M19,27.7c0.3-0.4,0.4-1,0.5-1.5c0,0,0-0.1-0.1,0c0,0,0,0,0,0c-0.1,0.5-0.2,1-0.5,1.4
		C18.8,27.7,19,27.8,19,27.7L19,27.7z"/>
	<path class="st0" d="M34.7,19.2L34.7,19.2c0,0.8,0.1,1.5,0.4,2.2c0.2,0.7,0.6,1.2,1.1,1.7c0.4,0.3,0.7,0.6,1.1,0.9l0,0
		c0,0.5,0,0.9,0,1.4c0.1,0.7,0.3,1.4,0.7,2c0.4,0.6,0.9,1.1,1.5,1.6l0.1,0c0.2-0.8,0.2-1.7-0.1-2.5c-0.1-0.2-0.2-0.4-0.3-0.6
		c0.4,0.2,0.8,0.3,1.2,0.4c1,0.1,2-0.1,3-0.5h-0.1c-0.6-0.6-1.3-1.1-2-1.5c-0.2-0.1-0.5-0.2-0.7-0.3l0.2-0.2c1.3-0.9,2.4-2,3.2-3.3
		c-1.4,0.1-2.8,0.4-4.2,0.8l-0.5,0.2c0.1-0.2,0.1-0.4,0.1-0.6c0.1-1,0-2-0.4-2.9L39,17.9c-0.6,0.6-1.1,1.3-1.6,2
		c-0.2,0.5-0.4,1-0.4,1.5c-0.1-0.2-0.3-0.5-0.4-0.7C36.1,20.1,35.4,19.5,34.7,19.2z"/>
	<path class="st0" d="M36.8,20.7c0.2,0.2,0.3,0.5,0.4,0.8l-0.4,0.1c0.2-1.5,1.1-2.6,2.1-3.7c0.1-0.1,0.2-0.1,0.3,0c0,0,0,0,0,0
		c0.5,1.2,0.6,2.4,0.3,3.7l-0.3-0.2c1.5-0.6,3.1-0.9,4.7-1c0.1,0,0.2,0,0.2,0.2c0,0,0,0.1,0,0.1c-0.9,1.4-2.1,2.6-3.5,3.5l0-0.3
		c1.1,0.4,2.1,1.1,2.9,1.9c0.1,0.1,0.1,0.2,0,0.3c0,0,0,0,0,0c-1.4,0.6-3,0.6-4.4,0l0.3-0.3c0.5,1,0.6,2.1,0.4,3.2
		c0,0.1-0.1,0.2-0.2,0.2c0,0-0.1,0-0.1-0.1c-0.9-0.7-1.6-1.6-2-2.6c-0.2-0.8-0.3-1.7-0.3-2.5c0-0.2,0.2-0.2,0.3-0.1l0,0L37.1,24l0,0
		h0.4l0,0c0,0.1-0.2,0.2-0.3,0.1c-0.7-0.5-1.3-1.1-1.8-1.7c-0.6-1-0.8-2.1-0.8-3.2c0-0.1,0.1-0.2,0.2-0.2c0,0,0.1,0,0.1,0
		C35.6,19.4,36.2,19.9,36.8,20.7c0.1,0.2-0.2,0.4-0.3,0.2c-0.5-0.7-1.1-1.2-1.9-1.6l0.3-0.2c0,1,0.2,2,0.7,2.9
		c0.5,0.7,1.1,1.3,1.8,1.8L37,23.9l0,0c0-0.2,0.3-0.3,0.4,0l0,0c0,0.1-0.1,0.2-0.2,0.2c0,0-0.1,0-0.1,0l0,0l0.3-0.1
		c-0.1,0.8,0.1,1.7,0.3,2.5c0.4,0.9,1.1,1.7,1.9,2.3l-0.3,0.1c0.2-1,0.1-2.1-0.3-3c-0.1-0.2,0.1-0.3,0.3-0.2c1.3,0.6,2.7,0.5,4,0
		l-0.1,0.3c-0.7-0.8-1.7-1.4-2.7-1.8c-0.1,0-0.1-0.2-0.1-0.3c0,0,0.1-0.1,0.1-0.1c1.4-0.9,2.5-2,3.3-3.4l0.2,0.3
		c-1.6,0.1-3.1,0.4-4.6,1c-0.1,0.1-0.2,0-0.3-0.1c0,0,0-0.1,0-0.2c0.3-1.1,0.2-2.3-0.3-3.3l0.3,0.1c-1,1-1.8,2-2,3.5
		c0,0.1-0.1,0.2-0.2,0.2c-0.1,0-0.1,0-0.2-0.1c-0.1-0.3-0.3-0.5-0.4-0.8C36.3,20.6,36.7,20.5,36.8,20.7z"/>
	<path class="st0" d="M39.1,23.3c-1.3,0.9-2.7,1.5-4.2,1.8c-0.1,0-0.2,0-0.2-0.2c0-0.1,0-0.2,0.2-0.2c1.5-0.3,2.9-0.8,4.1-1.7
		C39.1,22.8,39.3,23.2,39.1,23.3L39.1,23.3z"/>
	<path class="st0" d="M26.9,12.1L26.9,12.1c0.6,0.6,1.1,1.2,1.8,1.6c0.6,0.4,1.4,0.6,2.1,0.7c0.5,0,1,0,1.5,0l0,0
		c0.3,0.4,0.6,0.8,0.9,1.1c0.5,0.5,1.2,0.9,1.9,1.2c0.7,0.2,1.5,0.3,2.3,0.4h0.1c-0.4-0.8-1-1.5-1.7-2c-0.2-0.1-0.4-0.2-0.6-0.3
		c0.5-0.1,0.9-0.2,1.3-0.5c0.9-0.6,1.7-1.4,2.2-2.3h-0.1c-0.9-0.1-1.8-0.1-2.7,0c-0.3,0.1-0.5,0.1-0.8,0.2c0-0.1,0.1-0.2,0.1-0.3
		c0.5-1.6,0.7-3.2,0.5-4.9c-1.1,1-2.1,2.2-3,3.4c-0.1,0.2-0.2,0.3-0.3,0.5c-0.1-0.2-0.2-0.4-0.3-0.6c-0.5-0.9-1.3-1.7-2.3-2.2v0.1
		c-0.1,0.9-0.1,1.8,0,2.7c0.1,0.6,0.3,1.1,0.6,1.6c-0.3-0.2-0.5-0.3-0.8-0.4C28.7,11.9,27.7,11.9,26.9,12.1z"/>
	<path class="st0" d="M29.6,12c0.3,0.1,0.6,0.2,0.9,0.4l-0.3,0.3c-0.8-1.4-0.8-3-0.7-4.6c0-0.1,0.1-0.2,0.3-0.2c0,0,0,0,0,0
		c1.2,0.6,2.1,1.7,2.6,2.9h-0.4c0.9-1.5,2-2.8,3.3-4c0.1-0.1,0.2-0.1,0.3,0c0,0,0.1,0.1,0.1,0.1c0.2,1.8-0.1,3.6-0.7,5.3L34.8,12
		c1.2-0.4,2.5-0.5,3.7-0.3c0.1,0,0.2,0.1,0.2,0.2c0,0,0,0,0,0.1c-0.9,1.4-2,2.6-3.7,2.9l0.1-0.4c1.1,0.5,1.9,1.4,2.5,2.5
		c0.1,0.1,0,0.2-0.1,0.3c0,0-0.1,0-0.1,0c-1.2,0-2.4-0.3-3.4-0.9c-0.7-0.5-1.4-1.2-1.9-1.9c-0.1-0.1,0-0.3,0.2-0.3l0,0l-0.1,0.4l0,0
		l0.3-0.3l0,0c0.1,0.1,0,0.3-0.2,0.3c-0.9,0.1-1.8,0-2.7-0.3c-1.1-0.5-2.1-1.2-2.8-2.1c-0.1-0.1-0.1-0.2,0-0.3c0,0,0.1-0.1,0.1-0.1
		C27.8,11.7,28.7,11.7,29.6,12c0.2,0.1,0.1,0.5-0.1,0.4c-0.9-0.2-1.8-0.3-2.6-0.1l0.1-0.4c0.7,0.9,1.5,1.5,2.5,2
		c0.9,0.3,1.8,0.4,2.7,0.3L32,14.6l0,0c-0.1-0.2,0.1-0.4,0.3-0.3l0,0c0.1,0.1,0.1,0.2,0,0.3c0,0-0.1,0.1-0.1,0.1l0,0l0.2-0.3
		c0.5,0.7,1.2,1.4,1.9,1.9c1,0.5,2,0.7,3.1,0.7l-0.2,0.3c-0.5-1-1.3-1.8-2.3-2.3c-0.1,0-0.1-0.2-0.1-0.3c0-0.1,0.1-0.1,0.2-0.1
		c1.4-0.4,2.7-1.4,3.3-2.7l0.1,0.3c-1.2-0.2-2.4-0.1-3.5,0.3c-0.1,0-0.2,0-0.3-0.1c0-0.1,0-0.1,0-0.2c0.6-1.6,0.8-3.4,0.6-5.1
		l0.4,0.1c-1.3,1.1-2.4,2.4-3.3,3.9c0,0.1-0.2,0.2-0.3,0.1c0,0-0.1-0.1-0.1-0.1c-0.5-1.1-1.3-2.1-2.4-2.7L30,8.2
		c-0.2,1.5-0.2,2.9,0.6,4.2c0.1,0.2-0.1,0.4-0.3,0.3c-0.3-0.1-0.6-0.3-0.8-0.4C29.2,12.3,29.4,11.9,29.6,12z"/>
	<path class="st0" d="M33.3,12.7c-0.8,2.1-1,2.5-2.4,4.2c-0.1,0.1-0.2,0.1-0.3,0c-0.1-0.1-0.1-0.2,0-0.3c1.4-1.7,1.5-2.1,2.3-4.1
		C33,12.3,33.4,12.5,33.3,12.7z"/>
	<g>
		<path class="st0" d="M16.4,9.2L16.4,9.2c0.8,0.3,1.6,0.6,2.4,0.7c0.8,0.1,1.6,0,2.3-0.3c0.5-0.2,0.9-0.4,1.4-0.6l0,0
			c0.4,0.2,0.9,0.5,1.4,0.7c0.7,0.3,1.5,0.4,2.3,0.3c0.8-0.1,1.6-0.3,2.3-0.7h0.1c-0.7-0.6-1.6-1-2.5-1.2c-0.2,0-0.5,0-0.7,0
			c0.4-0.3,0.8-0.6,1-1c0.6-1,1-2.1,1-3.2h-0.1c-0.9,0.3-1.8,0.7-2.6,1.2c-0.2,0.2-0.4,0.4-0.6,0.6c0-0.1,0-0.2,0-0.3
			c-0.2-1.7-0.8-3.4-1.7-4.8c-0.6,1.5-1.1,3-1.3,4.6c0,0.2,0,0.4,0,0.6c-0.2-0.2-0.3-0.3-0.5-0.4c-0.9-0.6-2-1-3.1-1.1v0.1
			c0.3,0.9,0.7,1.8,1.3,2.6C19.1,7.3,19.5,7.7,20,8c-0.3,0-0.6,0-1,0C18.1,8.2,17.2,8.6,16.4,9.2z"/>
		<path class="st0" d="M19,7.8c0.3,0,0.6,0,1,0l-0.1,0.4c-1.4-1-2.1-2.4-2.6-4c0-0.1,0-0.2,0.2-0.3c0,0,0,0,0.1,0
			c1.4,0.1,2.7,0.6,3.8,1.6l-0.4,0.2c0.2-1.8,0.7-3.6,1.4-5.2c0-0.1,0.1-0.2,0.3-0.2c0.1,0,0.1,0.1,0.1,0.1c1,1.6,1.6,3.5,1.7,5.4
			L24,5.6c1-0.9,2.1-1.5,3.3-1.9c0.1,0,0.2,0,0.3,0.2c0,0,0,0,0,0.1c-0.2,1.8-0.8,3.3-2.2,4.4l-0.1-0.5c1.2,0,2.4,0.5,3.4,1.3
			c0.1,0.1,0.1,0.2,0.1,0.3c0,0-0.1,0.1-0.1,0.1c-1.1,0.5-2.4,0.8-3.6,0.7c-0.9-0.2-1.8-0.5-2.6-1c-0.2-0.1-0.1-0.3,0-0.4l0,0l0,0.4
			l0,0l0.2-0.4l0,0c0.1,0.1,0.1,0.2,0.1,0.3c0,0,0,0.1-0.1,0.1c-0.8,0.5-1.7,0.8-2.7,0.9c-1.3,0.1-2.5-0.2-3.6-0.8
			c-0.1,0-0.2-0.2-0.1-0.3c0,0,0-0.1,0.1-0.1C17.1,8.4,18,8,19,7.8c0.2,0,0.3,0.4,0.1,0.4c-0.9,0.2-1.8,0.5-2.5,1.1l0-0.4
			c1,0.5,2.1,0.8,3.3,0.8c0.9-0.1,1.8-0.4,2.7-0.9v0.4l0,0c-0.2-0.1-0.1-0.5,0.2-0.4l0,0c0.1,0,0.2,0.2,0.1,0.3c0,0,0,0.1-0.1,0.1
			l0,0V8.8c0.8,0.5,1.7,0.8,2.7,0.9c1.1,0,2.3-0.2,3.3-0.7l-0.1,0.4c-0.9-0.7-2-1.1-3.2-1.2c-0.1,0-0.2-0.1-0.2-0.2
			c0-0.1,0-0.1,0.1-0.2c1.2-1,1.9-2.5,2-4l0.3,0.2c-1.2,0.3-2.3,0.9-3.2,1.8c-0.1,0.1-0.2,0.1-0.3,0c0,0-0.1-0.1-0.1-0.1
			c-0.2-1.8-0.7-3.6-1.7-5.1l0.4-0.1c-0.7,1.6-1.2,3.4-1.3,5.1c0,0.1-0.1,0.2-0.2,0.2c-0.1,0-0.1,0-0.2-0.1c-1-0.9-2.2-1.4-3.5-1.5
			l0.2-0.3c0.5,1.5,1.1,2.9,2.4,3.8c0.2,0.1,0.1,0.4-0.1,0.4c-0.3,0-0.7,0-1,0C18.7,8.3,18.7,7.8,19,7.8z"/>
	</g>
	<path class="st0" d="M25.3,21.8L25.3,21.8c0.3,0.4,0.7,0.7,1,0.9c0.4,0.2,0.8,0.4,1.3,0.4c0.3,0,0.6,0,0.9,0l0,0
		c0.2,0.2,0.4,0.5,0.6,0.7c0.3,0.3,0.7,0.6,1.1,0.7c0.5,0.1,0.9,0.2,1.4,0.2h0c-0.3-0.5-0.6-0.9-1.1-1.2c-0.1-0.1-0.2-0.1-0.4-0.2
		c0.3-0.1,0.5-0.1,0.8-0.3c0.6-0.3,1-0.8,1.3-1.4h0c-0.5-0.1-1.1-0.1-1.6,0c-0.2,0-0.3,0.1-0.5,0.1l0.1-0.2c0.3-1,0.4-2,0.3-2.9
		c-0.7,0.6-1.2,1.3-1.8,2.1c-0.1,0.1-0.1,0.2-0.2,0.3c0-0.1-0.1-0.2-0.2-0.3c-0.3-0.5-0.8-1-1.4-1.3v0c-0.1,0.5-0.1,1.1,0,1.6
		c0.1,0.3,0.2,0.6,0.4,0.9c-0.2-0.1-0.3-0.2-0.5-0.2C26.4,21.7,25.9,21.7,25.3,21.8z"/>
	<path class="st0" d="M27,21.7c0.2,0.1,0.3,0.1,0.5,0.2l-0.2,0.2c-0.4-0.8-0.6-1.8-0.4-2.7c0-0.1,0.1-0.1,0.1-0.1c0,0,0,0,0,0
		c0.7,0.4,1.3,1,1.6,1.7h-0.2c0.5-0.9,1.2-1.7,1.9-2.4c0-0.1,0.1-0.1,0.2,0c0,0,0,0,0,0.1c0.1,1.1,0,2.2-0.3,3.2l-0.2-0.2
		c0.7-0.2,1.5-0.3,2.2-0.2c0.1,0,0.1,0.1,0.1,0.1c0,0,0,0,0,0c-0.4,0.9-1.2,1.5-2.2,1.8l0-0.2c0.6,0.3,1.1,0.8,1.5,1.5
		c0,0.1,0,0.1,0,0.2c0,0-0.1,0-0.1,0c-0.7,0-1.4-0.1-2.1-0.5c-0.4-0.3-0.8-0.7-1.1-1.1c0-0.1,0-0.1,0-0.2c0,0,0,0,0.1,0l0,0
		l-0.1,0.2l0,0l0.2-0.2l0,0c0,0.1,0,0.2-0.1,0.2c-0.5,0-1.1,0-1.6-0.1c-0.7-0.3-1.3-0.7-1.7-1.3c-0.1,0-0.1-0.1,0-0.2
		c0,0,0.1,0,0.1,0C25.9,21.6,26.4,21.6,27,21.7c0.1,0,0.1,0.3-0.1,0.2c-0.5-0.1-1.1-0.1-1.6,0l0.1-0.2c0.4,0.5,0.9,0.9,1.5,1.2
		c0.5,0.2,1.1,0.2,1.6,0.2l-0.1,0.2l0,0c-0.1-0.1,0.1-0.3,0.2-0.2l0,0c0.1,0,0.1,0.1,0,0.2c0,0-0.1,0-0.1,0l0,0l0.1-0.2
		c0.3,0.4,0.7,0.8,1.2,1.1c0.6,0.3,1.2,0.4,1.9,0.4l-0.1,0.2c-0.3-0.6-0.8-1-1.4-1.3c-0.1,0-0.1-0.1-0.1-0.2c0,0,0.1-0.1,0.1-0.1
		c0.9-0.2,1.6-0.8,2-1.6l0.1,0.2c-0.7-0.1-1.4,0-2.1,0.2c-0.1,0-0.1,0-0.2-0.1c0,0,0-0.1,0-0.1c0.3-1,0.4-2,0.3-3.1l0.2,0.1
		c-0.7,0.7-1.4,1.5-1.9,2.3c0,0.1-0.1,0.1-0.2,0.1c0,0-0.1,0-0.1-0.1c-0.3-0.7-0.8-1.2-1.5-1.6l0.2-0.1c-0.2,0.9,0,1.8,0.4,2.5
		c0.1,0.1,0,0.2-0.2,0.2c-0.2-0.1-0.3-0.2-0.5-0.2C26.7,21.9,26.8,21.6,27,21.7z"/>
	<path class="st0" d="M29.2,22.1c-0.3,0.9-0.7,1.8-1.4,2.6c-0.1,0.1-0.3,0-0.2-0.2c0.6-0.7,1.1-1.6,1.3-2.5
		C29,21.8,29.3,21.9,29.2,22.1L29.2,22.1z"/>
	<path class="st0" d="M32.4,28.2L32.4,28.2c-0.2,0.5-0.2,1-0.3,1.5c0,0.5,0.1,1,0.3,1.4c0.1,0.3,0.3,0.5,0.5,0.8l0,0
		c-0.1,0.3-0.2,0.6-0.3,0.9c-0.1,0.5-0.1,1,0,1.4c0.1,0.5,0.3,0.9,0.6,1.4l0,0c0.3-0.5,0.5-1.1,0.5-1.6c0-0.1,0-0.3,0-0.4
		c0.2,0.2,0.4,0.4,0.7,0.6c0.6,0.3,1.3,0.5,2,0.4v0c-0.2-0.5-0.5-1-0.9-1.4c-0.1-0.1-0.2-0.2-0.4-0.3c0.1,0,0.1,0,0.2,0
		c1-0.2,2-0.7,2.9-1.4c-0.9-0.3-1.9-0.4-2.9-0.5c-0.1,0-0.3,0-0.4,0c0.1-0.1,0.2-0.2,0.2-0.3c0.3-0.6,0.5-1.3,0.4-2h0
		c-0.5,0.2-1,0.6-1.5,0.9c-0.3,0.2-0.5,0.5-0.7,0.9c0-0.2,0-0.4-0.1-0.6C33.1,29.1,32.8,28.7,32.4,28.2z"/>
	<path class="st0" d="M33.5,29.7c0,0.2,0.1,0.4,0.1,0.6h-0.3c0.5-0.9,1.3-1.5,2.3-1.9c0.1,0,0.1,0,0.2,0.1c0,0,0,0,0,0
		c0.1,0.9-0.2,1.7-0.7,2.4l-0.1-0.2c1.1,0,2.2,0.1,3.3,0.5c0.1,0,0.1,0.1,0.1,0.1c0,0,0,0.1-0.1,0.1c-0.9,0.7-2,1.2-3.1,1.4l0.1-0.2
		c0.6,0.5,1.1,1.2,1.4,1.9c0,0.1,0,0.1-0.1,0.2c0,0,0,0,0,0c-1.1,0.1-2.1-0.3-2.8-1l0.2-0.1c0.1,0.8-0.1,1.5-0.5,2.2
		c0,0.1-0.1,0.1-0.2,0.1c0,0,0,0-0.1-0.1c-0.4-0.6-0.6-1.4-0.7-2.2c0-0.6,0.2-1.1,0.4-1.7c0-0.1,0.2-0.1,0.2,0l0,0L32.8,32l0,0
		l0.3,0.1l0,0c0,0.1-0.1,0.1-0.2,0c0,0,0,0,0,0c-0.3-0.5-0.6-1-0.8-1.5c-0.1-0.8-0.1-1.5,0.2-2.3c0-0.1,0.1-0.1,0.2-0.1
		c0,0,0.1,0,0.1,0.1C33,28.6,33.3,29.1,33.5,29.7c0,0.1-0.2,0.2-0.3,0.1c-0.2-0.5-0.5-1-0.9-1.5l0.2-0.1c-0.2,0.7-0.3,1.4-0.2,2
		c0.2,0.6,0.4,1.1,0.7,1.6h-0.2l0,0c0.1-0.1,0.3-0.1,0.3,0.1l0,0c0,0.1-0.1,0.1-0.2,0.1c0,0-0.1,0-0.1,0l0,0h0.2
		c-0.2,0.5-0.4,1.1-0.4,1.7c0.1,0.7,0.3,1.4,0.7,1.9h-0.2c0.4-0.6,0.5-1.3,0.5-2c0-0.1,0-0.1,0.1-0.2c0.1,0,0.1,0,0.1,0.1
		c0.7,0.7,1.6,1,2.6,0.9l-0.1,0.2c-0.3-0.7-0.8-1.3-1.3-1.8c-0.1,0-0.1-0.1,0-0.2c0,0,0.1,0,0.1,0c1.1-0.2,2.1-0.7,3-1.4l0.1,0.2
		c-1-0.3-2.1-0.5-3.2-0.4c-0.1,0-0.1,0-0.1-0.1c0,0,0-0.1,0-0.1c0.5-0.7,0.7-1.4,0.6-2.2l0.2,0.1c-0.9,0.3-1.6,1-2.1,1.8
		c-0.1,0.1-0.3,0.1-0.3,0c0-0.2,0-0.4-0.1-0.6C33.1,29.6,33.4,29.6,33.5,29.7z"/>
	<path class="st0" d="M34.3,32c-1,0.3-2.1,0.3-3.1,0.1c-0.2,0-0.1-0.3,0-0.3c1,0.2,2.1,0.1,3.1-0.1C34.4,31.7,34.5,31.9,34.3,32
		L34.3,32z"/>
	<path class="st0" d="M30.2,34.1L30.2,34.1c-0.4,0-0.8,0-1.2,0.1c-0.4,0.1-0.7,0.3-1,0.5c-0.2,0.2-0.3,0.3-0.5,0.5l0,0
		c-0.2,0-0.5,0-0.7,0c-0.4,0-0.7,0.1-1.1,0.3c-0.3,0.2-0.6,0.4-0.9,0.7l0,0c0.4,0.1,0.9,0.1,1.3,0c0.1,0,0.2,0,0.3-0.1
		c-0.1,0.2-0.2,0.4-0.3,0.7c-0.1,0.5-0.1,1.1,0.1,1.6l0,0c0.3-0.3,0.6-0.6,0.9-1c0.1-0.1,0.1-0.2,0.2-0.4l0.1,0.1
		c0.4,0.7,1,1.3,1.6,1.8c0-0.7-0.1-1.5-0.3-2.2c0-0.1-0.1-0.2-0.1-0.3c0.1,0,0.2,0.1,0.3,0.1c0.5,0.1,1.1,0,1.6-0.2l0,0
		c-0.3-0.3-0.6-0.7-1-0.9c-0.2-0.1-0.5-0.2-0.8-0.3c0.1,0,0.3-0.1,0.4-0.2C29.7,34.8,30,34.5,30.2,34.1z"/>
	<path class="st0" d="M29.3,35.1c-0.1,0.1-0.3,0.1-0.4,0.2v-0.2c0.8,0.2,1.4,0.6,1.9,1.3c0,0,0,0.1,0,0.1c0,0,0,0,0,0
		c-0.6,0.2-1.3,0.2-1.9,0l0.1-0.1c0.2,0.8,0.4,1.7,0.4,2.5c0,0.1,0,0.1-0.1,0.1c0,0-0.1,0-0.1,0c-0.7-0.5-1.3-1.2-1.7-2h0.2
		c-0.3,0.6-0.7,1.1-1.1,1.4c0,0-0.1,0-0.1,0c0,0,0,0,0,0c-0.3-0.8-0.2-1.6,0.1-2.3l0.1,0.2c-0.5,0.2-1.1,0.2-1.7,0.1
		c-0.1,0-0.1-0.1-0.1-0.1c0,0,0,0,0-0.1c0.4-0.4,0.9-0.8,1.4-1c0.4-0.1,0.9-0.1,1.3-0.1c0.1,0,0.1,0.1,0.1,0.2l0,0l-0.1-0.2l0,0v0.2
		l0,0c-0.1,0-0.1-0.1-0.1-0.1c0,0,0,0,0,0c0.3-0.3,0.6-0.6,1-0.9c0.5-0.3,1.1-0.4,1.7-0.3c0.1,0,0.1,0,0.1,0.1c0,0,0,0,0,0.1
		C30.1,34.5,29.7,34.9,29.3,35.1c-0.1,0.1-0.2-0.1-0.1-0.2c0.4-0.2,0.7-0.6,0.9-1l0.1,0.2c-0.5,0-1.1,0.1-1.6,0.3
		c-0.4,0.2-0.7,0.5-1,0.9l-0.1-0.2l0,0c0.1,0,0.1,0,0.1,0.1c0,0.1,0,0.1-0.1,0.1l0,0c-0.1,0-0.1,0-0.1-0.1c0,0,0,0,0-0.1l0,0
		l0.1,0.2c-0.4-0.1-0.9,0-1.3,0.1c-0.5,0.2-0.9,0.5-1.3,0.9l-0.1-0.2c0.5,0.1,1.1,0.1,1.6-0.1c0.1,0,0.1,0,0.1,0.1c0,0,0,0.1,0,0.1
		c-0.3,0.7-0.4,1.4-0.1,2.1l-0.2,0c0.5-0.4,0.8-0.8,1.1-1.3c0-0.1,0.1-0.1,0.1-0.1c0,0,0,0,0.1,0.1c0.4,0.7,1,1.4,1.7,1.9L29.1,39
		c0-0.8-0.1-1.7-0.4-2.5c0-0.1,0-0.1,0-0.1c0,0,0.1,0,0.1,0c0.6,0.2,1.2,0.2,1.8,0l0,0.2c-0.4-0.6-1.1-1-1.8-1.2
		c-0.1,0-0.1-0.2,0-0.2c0.1-0.1,0.3-0.1,0.4-0.2C29.4,34.9,29.4,35.1,29.3,35.1z"/>
	<path class="st0" d="M27.8,36.2c-0.4-0.7-0.7-1.5-0.8-2.3c0-0.1,0-0.1,0.1-0.1c0.1,0,0.1,0,0.1,0.1c0,0,0,0,0,0
		c0.1,0.8,0.3,1.6,0.8,2.2C28.1,36.3,27.9,36.4,27.8,36.2L27.8,36.2z"/>
	<path class="st0" d="M27,26.1L27,26.1c-0.2,0-0.5,0-0.7,0.1c-0.2,0.1-0.4,0.2-0.6,0.3c-0.1,0.1-0.1,0.2-0.3,0.3l0,0
		c-0.2,0-0.3,0-0.5,0c-0.2,0-0.5,0.1-0.7,0.2c-0.2,0.1-0.4,0.3-0.6,0.5l0,0c0.3,0.1,0.6,0.1,0.9,0c0.1,0,0.1,0,0.2-0.1
		c-0.1,0.1-0.1,0.3-0.2,0.4c-0.1,0.3,0,0.7,0.1,1l0,0c0.2-0.2,0.4-0.4,0.6-0.7c0-0.1,0.1-0.2,0.1-0.2l0,0.1c0.3,0.5,0.6,0.9,1.1,1.2
		c0-0.5-0.1-1-0.2-1.4c0-0.1,0-0.1-0.1-0.2l0.2,0.1c0.3,0.1,0.7,0,1-0.1l0,0c-0.2-0.2-0.4-0.4-0.7-0.6c-0.2-0.1-0.3-0.2-0.5-0.2
		c0.1,0,0.2-0.1,0.3-0.1C26.7,26.6,26.9,26.4,27,26.1z"/>
	<path class="st0" d="M26.5,26.8c-0.1,0-0.2,0.1-0.3,0.1v-0.1c0.5,0.1,0.9,0.4,1.2,0.8c0,0,0,0.1,0,0.1c-0.4,0.1-0.8,0.1-1.2,0
		l0.1-0.1c0.2,0.5,0.2,1.1,0.2,1.6c0,0,0,0.1-0.1,0.1c0,0,0,0,0,0c-0.5-0.3-0.9-0.8-1.2-1.3h0.1c-0.2,0.4-0.4,0.7-0.7,0.9
		c0,0-0.1,0-0.1,0c-0.2-0.5-0.2-1,0.1-1.5l0.1,0.1c-0.4,0.1-0.7,0.2-1.1,0.1c0,0,0-0.1,0-0.1c0,0,0,0,0,0c0.2-0.3,0.6-0.5,0.9-0.6
		c0.3-0.1,0.6-0.1,0.9,0c0,0,0.1,0,0.1,0.1c0,0,0,0,0,0l0,0l-0.1-0.1l0,0V27l0,0c0,0-0.1,0-0.1-0.1c0,0,0,0,0,0
		c0.2-0.2,0.4-0.4,0.6-0.6c0.3-0.2,0.7-0.2,1.1-0.2c0,0,0.1,0,0.1,0.1c0,0,0,0,0,0C27,26.5,26.8,26.7,26.5,26.8
		C26.4,26.9,26.4,26.8,26.5,26.8c0.2-0.2,0.4-0.4,0.5-0.7l0.1,0.1c-0.3,0-0.7,0-1,0.2c-0.2,0.2-0.5,0.3-0.6,0.6l0-0.1l0,0
		c0.1,0,0.1,0.1,0,0.1l0,0c0,0-0.1,0-0.1-0.1c0,0,0,0,0,0l0,0l0,0.1c-0.3,0-0.6,0-0.9,0c-0.3,0.1-0.6,0.3-0.8,0.6v-0.1
		c0.3,0.1,0.7,0.1,1,0c0.1,0,0.1,0.1,0.1,0.1c-0.2,0.4-0.2,0.9-0.1,1.3h-0.1c0.3-0.2,0.5-0.5,0.7-0.9c0-0.1,0.1,0,0.1,0
		c0.3,0.5,0.6,0.9,1.1,1.2l-0.1,0.1c0-0.5-0.1-1.1-0.2-1.6c0,0,0-0.1,0-0.1c0,0,0,0,0,0c0.4,0.1,0.8,0.1,1.2,0v0.1
		c-0.3-0.4-0.7-0.6-1.1-0.8c-0.1,0-0.1-0.1,0-0.1C26.3,26.9,26.4,26.8,26.5,26.8C26.5,26.7,26.6,26.8,26.5,26.8z"/>
	<path class="st0" d="M25.5,27.5c-0.3-0.4-0.4-1-0.5-1.5c0-0.1,0.1-0.1,0.1,0c0,0.5,0.2,1,0.5,1.4C25.6,27.6,25.6,27.6,25.5,27.5
		L25.5,27.5z"/>
</g>
</svg>
