<?xml version="1.0" encoding="utf-8"?>
<!-- Generator: Adobe Illustrator 26.0.1, SVG Export Plug-In . SVG Version: 6.00 Build 0)  -->
<svg version="1.1" id="Camada_1" xmlns="http://www.w3.org/2000/svg" xmlns:xlink="http://www.w3.org/1999/xlink" x="0px" y="0px"
	 viewBox="0 0 45.5 51.2" style="enable-background:new 0 0 45.5 51.2;" xml:space="preserve">
<style type="text/css">
	.st0{fill:#991F2E;}
</style>
<g>
	<polygon class="st0" points="35.8,22.9 35.6,22.7 35.6,22.7 35.3,22.4 23.9,33 23.6,21.9 29.5,15.3 29.3,15.1 29.3,15.1 29.2,15 
		23.6,20 23.3,9.3 22.4,9.3 22.2,20.2 16.4,15 16.2,15.1 16.2,15.1 16,15.3 22.1,22.1 21.9,33.3 10.5,22.9 10.3,23.1 10.3,23.1 
		10,23.4 21.8,36.3 21.5,50.9 22.8,50.9 24.3,50.9 23.9,35.9 	"/>
	<path class="st0" d="M8.3,21C8.2,21.3,8,21.5,8,21.8c-0.1-0.5-0.3-1-0.6-1.5c-0.5-0.7-1.1-1.3-1.8-1.9l-0.1-0.1c-0.3,1-0.4,2-0.2,3
		c0,0.2,0.1,0.4,0.2,0.6l-0.5-0.2c-1.4-0.3-2.8-0.4-4.2-0.4c0.9,1.2,2.1,2.3,3.5,3l0.3,0.1c-0.2,0.1-0.5,0.2-0.7,0.3
		c-0.7,0.5-1.3,1-1.9,1.7L2,26.6c1,0.3,2,0.4,3,0.2c0.4-0.1,0.8-0.3,1.2-0.5C6.1,26.4,6,26.7,6,26.9c-0.2,0.8-0.1,1.7,0.1,2.5l0,0
		c0.5-0.5,1-1.1,1.3-1.7C7.8,27,8,26.3,8,25.6c0-0.4,0-0.9-0.1-1.3l0,0c0.3-0.3,0.7-0.6,1-0.9c0.5-0.5,0.8-1.1,1-1.8
		c0.1-0.7,0.2-1.4,0.2-2.2v-0.1C9.3,19.7,8.7,20.3,8.3,21z"/>
	<path class="st0" d="M8.1,20.9c-0.1,0.3-0.3,0.5-0.3,0.8l0.4,0c-0.3-1.5-1.3-2.5-2.5-3.5c-0.1-0.1-0.2,0-0.3,0c0,0,0,0,0,0
		C5,19.5,5,20.8,5.4,22l0.3-0.3c-1.6-0.4-3.2-0.6-4.8-0.6c-0.1,0-0.2,0.1-0.2,0.2c0,0,0,0.1,0,0.1c1,1.3,2.3,2.4,3.8,3.2v-0.4
		c-1,0.5-2,1.2-2.7,2.2c-0.1,0.1,0,0.2,0.1,0.3c0,0,0,0,0,0c1.4,0.5,3,0.3,4.3-0.4L6,26.2c-0.4,1-0.4,2.2-0.1,3.2
		c0,0.1,0.1,0.2,0.3,0.1c0,0,0.1,0,0.1-0.1c0.8-0.8,1.4-1.7,1.8-2.8c0.2-0.8,0.2-1.7,0.1-2.5c0-0.2-0.2-0.2-0.3-0.1l0,0l0.3,0.2H7.7
		c0,0.1,0.1,0.2,0.2,0.2c0,0,0.1,0,0.1,0c0.7-0.5,1.2-1.2,1.7-1.9c0.5-1,0.7-2.1,0.6-3.2c0-0.1-0.1-0.2-0.2-0.2c0,0-0.1,0-0.1,0
		C9.2,19.5,8.6,20.2,8.1,20.9c-0.1,0.2,0.2,0.4,0.4,0.2c0.4-0.7,1.1-1.3,1.8-1.7l-0.3-0.2c0.1,1-0.1,2-0.4,3c-0.4,0.7-1,1.4-1.6,1.9
		l0.3,0.1l0,0c0-0.2-0.4-0.2-0.4,0l0,0c0,0.1,0.1,0.2,0.2,0.2c0,0,0.1,0,0.1,0l0,0l-0.3-0.1c0.1,0.8,0.1,1.7-0.1,2.5
		c-0.4,0.9-0.9,1.8-1.7,2.5l0.3,0.1c-0.3-1-0.3-2.1,0.1-3c0.1-0.2-0.2-0.3-0.3-0.2c-1.2,0.7-2.7,0.8-4,0.3l0.1,0.3
		c0.7-0.9,1.5-1.6,2.5-2c0.1,0,0.1-0.2,0.1-0.3c0,0-0.1-0.1-0.1-0.1C3.2,23.6,2,22.5,1,21.2l-0.2,0.3c1.6,0,3.2,0.2,4.7,0.6
		c0.1,0,0.2,0,0.3-0.1c0,0,0-0.1,0-0.2c-0.4-1.1-0.4-2.3,0-3.3l-0.3,0.1c1.1,0.9,2,1.9,2.3,3.3C7.8,22,7.9,22,8,22
		C8,22,8.1,22,8.1,21.9c0.1-0.3,0.2-0.5,0.3-0.8C8.6,20.9,8.2,20.7,8.1,20.9z"/>
	<path class="st0" d="M6.1,23.8c1.3,0.8,2.8,1.3,4.3,1.4c0.1,0,0.2-0.1,0.2-0.2c0-0.1-0.1-0.2-0.2-0.2c-1.5-0.1-2.9-0.6-4.2-1.3
		C6,23.3,5.8,23.7,6.1,23.8L6.1,23.8z"/>
	<path class="st0" d="M15,12.2c-0.3,0.1-0.6,0.2-0.9,0.4c0.3-0.5,0.5-1,0.6-1.6c0.1-0.9,0.1-1.8,0-2.7V8.2c-0.9,0.5-1.7,1.3-2.3,2.2
		c-0.1,0.2-0.2,0.4-0.2,0.6c-0.1-0.2-0.2-0.4-0.3-0.5C11.1,9.2,10.1,8,9,7c-0.2,1.7,0,3.3,0.5,4.9l0.1,0.3C9.4,12.1,9.1,12,8.9,12
		c-0.9-0.1-1.8-0.1-2.7,0H6.1c0.5,0.9,1.3,1.7,2.2,2.3c0.4,0.2,0.9,0.4,1.3,0.5C9.4,14.8,9.2,15,9,15.1c-0.8,0.5-1.4,1.2-1.8,2.1
		h0.1c0.8,0,1.6-0.1,2.3-0.4c0.7-0.2,1.3-0.7,1.9-1.2c0.3-0.3,0.4-0.5,0.9-1.1l0,0c0.5,0,1,0,1.5,0c0.7-0.1,1.5-0.3,2.1-0.7
		c0.6-0.5,1.2-1,1.7-1.6l0-0.1C16.8,11.9,15.9,11.9,15,12.2z"/>
	<path class="st0" d="M15,12c-0.3,0.1-0.6,0.2-0.8,0.4l0.3,0.3c0.8-1.4,0.8-3,0.7-4.6c0-0.1-0.1-0.2-0.2-0.2c0,0,0,0-0.1,0
		c-1.2,0.6-2.1,1.7-2.6,2.9h0.4c-0.9-1.5-2-2.8-3.3-4C9.1,6.8,9,6.8,8.9,6.9c0,0-0.1,0.1-0.1,0.1c-0.2,1.8,0.1,3.6,0.7,5.3L9.8,12
		c-1.2-0.4-2.5-0.5-3.7-0.3c-0.1,0-0.2,0.1-0.2,0.2c0,0,0,0,0,0.1C6.7,13.5,8,14.6,9.6,15l-0.1-0.4c-1,0.5-1.9,1.4-2.4,2.5
		c-0.1,0.1,0,0.2,0.1,0.3c0,0,0.1,0,0.1,0c1.2,0,2.4-0.3,3.4-0.9c0.7-0.5,1.4-1.2,1.9-1.9c0.1-0.1,0-0.3-0.2-0.3l0,0l0.1,0.4l0,0
		l-0.3-0.3l0,0c-0.1,0.1,0,0.3,0.2,0.3c0.9,0.1,1.8,0,2.7-0.3c1.1-0.5,2.1-1.2,2.8-2.1c0.1-0.1,0.1-0.2,0-0.3c0,0-0.1-0.1-0.1-0.1
		C16.8,11.7,15.9,11.7,15,12c-0.2,0-0.1,0.5,0.1,0.4c0.9-0.2,1.8-0.3,2.6-0.1l-0.1-0.4c-0.7,0.9-1.5,1.5-2.5,2
		c-0.9,0.3-1.8,0.4-2.7,0.3l0.2,0.3l0,0c0.1-0.2-0.1-0.4-0.3-0.3l0,0c-0.1,0.1-0.1,0.2,0,0.3c0,0,0.1,0.1,0.1,0.1l0,0l-0.2-0.3
		c-0.5,0.7-1.2,1.4-1.9,1.9c-1,0.5-2,0.7-3.1,0.7l0.2,0.3c0.5-1,1.3-1.8,2.3-2.3c0.1,0,0.1-0.2,0.1-0.3c0-0.1-0.1-0.1-0.2-0.1
		c-1.4-0.4-2.7-1.4-3.3-2.7l-0.1,0.3c1.2-0.2,2.4-0.1,3.5,0.3c0.1,0,0.2,0,0.3-0.1c0-0.1,0-0.1,0-0.2C9.2,10.5,9,8.8,9.2,7L8.8,7.2
		c1.3,1.1,2.4,2.4,3.3,3.9c0,0.1,0.2,0.2,0.3,0.1c0,0,0.1-0.1,0.1-0.1c0.5-1.1,1.3-2.1,2.4-2.7l-0.3-0.1c0.2,1.5,0.2,2.9-0.6,4.2
		c-0.1,0.2,0.1,0.4,0.3,0.3c0.3-0.1,0.6-0.3,0.8-0.4C15.4,12.3,15.2,11.9,15,12z"/>
	<path class="st0" d="M11.3,12.7c0.8,2.1,1,2.5,2.4,4.2c0.1,0.1,0.2,0.1,0.3,0c0.1-0.1,0.1-0.2,0-0.3l0,0c-1.4-1.7-1.5-2.1-2.3-4.1
		C11.6,12.3,11.2,12.5,11.3,12.7z"/>
	<path class="st0" d="M18.1,21.8c-0.2,0.1-0.4,0.1-0.5,0.2c0.2-0.3,0.3-0.6,0.4-0.9c0.1-0.5,0.1-1.1,0-1.6v0c-0.6,0.3-1,0.8-1.4,1.3
		c-0.1,0.1-0.1,0.2-0.2,0.3c-0.1-0.1-0.1-0.2-0.2-0.3c-0.5-0.7-1.1-1.4-1.8-2.1c-0.1,1,0,2,0.3,2.9l0.1,0.2
		c-0.1-0.1-0.3-0.1-0.5-0.2c-0.5-0.1-1.1-0.1-1.6,0h0c0.3,0.6,0.8,1.1,1.3,1.4c0.2,0.1,0.5,0.2,0.8,0.3c-0.1,0.1-0.3,0.1-0.4,0.2
		c-0.4,0.3-0.8,0.7-1.1,1.2h0c0.5,0,0.9-0.1,1.4-0.2c0.4-0.1,0.8-0.4,1.1-0.7c0.2-0.2,0.4-0.4,0.6-0.7l0,0c0.3,0,0.6,0,0.9,0
		c0.4,0,0.9-0.2,1.3-0.4c0.4-0.3,0.7-0.6,1-0.9v0C19.1,21.7,18.6,21.7,18.1,21.8z"/>
	<path class="st0" d="M18,21.7c-0.2,0.1-0.3,0.1-0.5,0.2l0.2,0.2c0.4-0.8,0.6-1.8,0.4-2.7c0-0.1-0.1-0.1-0.1-0.1c0,0,0,0,0,0
		c-0.7,0.4-1.3,1-1.6,1.7h0.2c-0.5-0.9-1.2-1.7-1.9-2.4c0-0.1-0.1-0.1-0.2,0c0,0,0,0.1,0,0.1c-0.1,1.1,0,2.2,0.3,3.2l0.2-0.2
		c-0.7-0.2-1.5-0.3-2.2-0.2c-0.1,0-0.1,0.1-0.1,0.1c0,0,0,0,0,0c0.4,0.9,1.2,1.5,2.2,1.8l0-0.2c-0.6,0.3-1.2,0.8-1.5,1.4
		c0,0.1,0,0.1,0,0.2c0,0,0.1,0,0.1,0c0.7,0,1.4-0.1,2.1-0.5c0.4-0.3,0.8-0.7,1.1-1.1c0.1-0.1,0-0.2-0.1-0.2l0,0l0.1,0.2l0,0
		l-0.2-0.2l0,0c0,0.1,0,0.1,0,0.2c0,0,0,0,0.1,0c0.5,0,1.1,0,1.6-0.1c0.7-0.3,1.3-0.7,1.7-1.3c0.1,0,0.1-0.1,0-0.2c0,0,0,0-0.1,0
		C19.1,21.5,18.5,21.5,18,21.7c-0.1,0-0.1,0.3,0.1,0.2c0.5-0.1,1.1-0.1,1.6,0l-0.1-0.2c-0.4,0.5-0.9,0.9-1.5,1.2
		C17.5,23,17,23.1,16.4,23l0.1,0.2l0,0c0.1-0.1-0.1-0.3-0.2-0.2l0,0c-0.1,0-0.1,0.1,0,0.2c0,0,0,0,0.1,0l0,0l-0.1-0.2
		c-0.3,0.4-0.7,0.8-1.1,1.1c-0.6,0.3-1.2,0.4-1.9,0.4l0.1,0.2c0.3-0.6,0.8-1,1.3-1.3c0.1,0,0.1-0.1,0.1-0.2c0,0-0.1-0.1-0.1-0.1
		c-0.9-0.2-1.6-0.8-2-1.6l-0.1,0.2c0.7-0.1,1.4,0,2.1,0.2c0.1,0,0.1,0,0.2-0.1c0,0,0-0.1,0-0.1c-0.3-1-0.4-2-0.3-3.1l-0.2,0.1
		c0.7,0.7,1.4,1.5,1.9,2.3c0,0.1,0.1,0.1,0.2,0.1c0,0,0.1,0,0.1-0.1c0.3-0.7,0.8-1.2,1.5-1.6l-0.2-0.1c0.2,0.9,0,1.8-0.4,2.5
		c-0.1,0.1,0,0.2,0.2,0.2c0.2-0.1,0.3-0.2,0.5-0.2C18.3,21.8,18.1,21.6,18,21.7z"/>
	<path class="st0" d="M15.8,22.1c0.3,0.9,0.7,1.8,1.4,2.6c0.1,0.1,0.3,0,0.2-0.2c-0.6-0.7-1.1-1.6-1.3-2.5
		C16,21.8,15.8,21.9,15.8,22.1L15.8,22.1z"/>
	<path class="st0" d="M11.4,29.9c0,0.2-0.1,0.4-0.1,0.6c-0.2-0.3-0.4-0.6-0.7-0.9c-0.5-0.4-1-0.7-1.5-0.9H9.1c0,0.7,0.1,1.4,0.4,2
		c0.1,0.1,0.1,0.2,0.2,0.3H9.4c-1,0.1-1.9,0.2-2.9,0.5c0.8,0.7,1.8,1.1,2.9,1.4c0.1,0,0.1,0,0.2,0c-0.1,0.1-0.3,0.2-0.4,0.3
		c-0.4,0.4-0.7,0.9-0.9,1.5v0c0.7,0,1.4-0.1,2-0.4c0.3-0.1,0.5-0.3,0.7-0.6c0,0.1,0,0.3,0,0.4c0,0.6,0.2,1.1,0.5,1.6l0,0
		c0.3-0.4,0.5-0.9,0.6-1.4c0.1-0.5,0.1-1,0-1.4c-0.1-0.3-0.2-0.6-0.3-0.9l0,0c0.2-0.3,0.3-0.5,0.5-0.8c0.2-0.5,0.4-1,0.4-1.5
		c0-0.5-0.1-1-0.2-1.5v0C11.9,28.8,11.6,29.3,11.4,29.9z"/>
	<path class="st0" d="M11.3,29.8c0,0.2-0.1,0.4-0.1,0.6h0.3c-0.5-0.9-1.3-1.5-2.3-1.9c-0.1,0-0.2,0-0.2,0.1c0,0,0,0,0,0
		c-0.1,0.9,0.2,1.7,0.7,2.4l0.1-0.2c-1.1,0-2.2,0.1-3.3,0.5c-0.1,0-0.1,0.1-0.1,0.2c0,0,0,0.1,0,0.1c0.9,0.7,2,1.2,3.1,1.4l-0.1-0.2
		c-0.6,0.5-1.1,1.2-1.4,1.9c0,0.1,0,0.1,0.1,0.2c0,0,0,0,0,0c1.1,0.1,2.1-0.3,2.8-1l-0.2-0.1c-0.1,0.8,0.1,1.5,0.5,2.2
		c0,0.1,0.1,0.1,0.2,0.1c0,0,0,0,0.1-0.1c0.4-0.6,0.6-1.4,0.7-2.2c0-0.6-0.2-1.1-0.4-1.7c0-0.1-0.2-0.1-0.2,0l0,0l0.2,0.1l0,0
		l-0.3,0.1l0,0c0,0.1,0.1,0.1,0.2,0c0,0,0,0,0,0c0.3-0.5,0.6-1,0.8-1.5c0.1-0.8,0.1-1.5-0.2-2.3c0-0.1-0.1-0.1-0.2-0.1
		c0,0-0.1,0-0.1,0.1C11.7,28.7,11.4,29.3,11.3,29.8c-0.1,0.2,0.2,0.3,0.2,0.1c0.2-0.5,0.5-1,0.9-1.5l-0.2-0.1c0.2,0.7,0.3,1.4,0.2,2
		C12.2,31,12,31.5,11.6,32h0.2l0,0c-0.1-0.1-0.3-0.1-0.3,0.1l0,0c0,0.1,0.1,0.1,0.2,0.1c0,0,0.1,0,0.1,0l0,0h-0.2
		c0.2,0.5,0.4,1.1,0.4,1.7c-0.1,0.7-0.3,1.4-0.7,1.9h0.2c-0.4-0.6-0.5-1.3-0.5-2c0-0.1-0.1-0.1-0.1-0.1c0,0-0.1,0-0.1,0
		c-0.7,0.7-1.7,1-2.6,0.9l0.1,0.2c0.3-0.7,0.8-1.3,1.3-1.8c0.1,0,0.1-0.1,0-0.2c0,0-0.1,0-0.1,0c-1.1-0.2-2.1-0.7-3-1.4l-0.1,0.2
		c1-0.3,2.1-0.5,3.2-0.4c0.1,0,0.1,0,0.1-0.1c0,0,0-0.1,0-0.1c-0.5-0.7-0.7-1.4-0.6-2.2l-0.2,0.1c0.9,0.3,1.6,1,2.1,1.8
		c0.1,0.1,0.2,0.1,0.3,0c0-0.2,0-0.4,0.1-0.6C11.6,29.7,11.3,29.7,11.3,29.8z"/>
	<path class="st0" d="M10.4,32.1c1,0.3,2.1,0.3,3.1,0.1c0.2,0,0.1-0.3,0-0.3c-1,0.2-2.1,0.1-3.1-0.1C10.3,31.8,10.2,32,10.4,32.1z"
		/>
	<path class="st0" d="M15.4,35.1c0.1,0.1,0.3,0.1,0.4,0.2c-0.3,0-0.5,0.1-0.8,0.3c-0.4,0.3-0.7,0.6-1,0.9l0,0c0.5,0.2,1,0.2,1.6,0.1
		c0.1,0,0.2-0.1,0.3-0.1c0,0.1-0.1,0.2-0.1,0.3c-0.2,0.7-0.2,1.5-0.3,2.2c0.7-0.5,1.2-1.1,1.6-1.8c0,0,0-0.1,0.1-0.1
		c0,0.1,0.1,0.3,0.2,0.4c0.2,0.4,0.5,0.7,0.9,1l0,0c0.2-0.5,0.2-1.1,0.1-1.6c0-0.2-0.1-0.5-0.3-0.7c0.1,0,0.2,0.1,0.3,0.1
		c0.4,0.1,0.9,0.1,1.3,0l0,0c-0.3-0.3-0.6-0.5-0.9-0.7c-0.3-0.2-0.7-0.3-1.1-0.3c-0.2,0-0.5,0-0.7,0l0,0c-0.2-0.2-0.3-0.4-0.5-0.5
		c-0.3-0.3-0.6-0.4-1-0.5c-0.4-0.1-0.8-0.1-1.2-0.1h0C14.7,34.5,15,34.9,15.4,35.1z"/>
	<path class="st0" d="M15.4,35.2c0.1,0.1,0.3,0.1,0.4,0.2v-0.2c-0.8,0.2-1.4,0.6-1.9,1.3c0,0,0,0.1,0,0.1c0,0,0,0,0,0
		c0.6,0.2,1.3,0.2,1.9,0l-0.1-0.1c-0.2,0.8-0.4,1.7-0.4,2.5c0,0.1,0,0.1,0.1,0.1c0,0,0.1,0,0.1,0c0.7-0.5,1.3-1.2,1.7-2h-0.2
		c0.3,0.6,0.7,1.1,1.1,1.4c0,0,0.1,0,0.1,0c0,0,0,0,0,0c0.3-0.8,0.2-1.6-0.2-2.3l-0.1,0.2c0.5,0.2,1.1,0.2,1.7,0.1
		c0.1,0,0.1-0.1,0.1-0.1c0,0,0,0,0-0.1c-0.4-0.4-0.9-0.8-1.4-1c-0.4-0.1-0.9-0.1-1.3-0.1c-0.1,0-0.1,0.1-0.1,0.2l0,0l0.1-0.2l0,0
		v0.2l0,0c0.1,0,0.1-0.1,0.1-0.1c0,0,0,0,0,0c-0.3-0.3-0.6-0.6-1-0.9c-0.5-0.3-1.1-0.4-1.7-0.3c-0.1,0-0.1,0-0.1,0.1c0,0,0,0,0,0.1
		C14.7,34.6,15,35,15.4,35.2c0.1,0.1,0.2-0.1,0.1-0.2c-0.4-0.2-0.7-0.6-0.9-1l-0.1,0.2c0.5,0,1.1,0.1,1.6,0.3c0.4,0.2,0.7,0.5,1,0.9
		l0.1-0.2l0,0c-0.1,0-0.1,0-0.1,0.1c0,0.1,0,0.1,0.1,0.1l0,0c0.1,0,0.1,0,0.1-0.1c0,0,0-0.1,0-0.1l0,0l-0.1,0.2
		c0.4-0.1,0.9,0,1.3,0.1c0.5,0.2,0.9,0.5,1.3,0.9l0-0.2c-0.5,0.1-1.1,0.1-1.6-0.1c-0.1,0-0.2,0.1-0.1,0.2c0.3,0.7,0.4,1.4,0.1,2.1
		l0.2,0c-0.5-0.4-0.8-0.8-1.1-1.3c0-0.1-0.1-0.1-0.1-0.1c0,0,0,0-0.1,0.1c-0.4,0.8-1,1.4-1.7,1.9l0.2,0.1c0-0.8,0.1-1.7,0.4-2.5
		c0-0.1,0-0.1-0.1-0.1c0,0,0,0-0.1,0c-0.6,0.2-1.2,0.2-1.8,0l0,0.2c0.4-0.6,1.1-1,1.8-1.2c0.1,0,0.1-0.1,0.1-0.1c0,0,0-0.1-0.1-0.1
		c-0.1-0.1-0.3-0.1-0.4-0.2C15.4,35,15.3,35.2,15.4,35.2z"/>
	<path class="st0" d="M16.9,36.3c0.4-0.7,0.7-1.5,0.8-2.3c0-0.1-0.1-0.1-0.1-0.1c0,0-0.1,0-0.1,0.1c-0.1,0.8-0.3,1.6-0.8,2.2
		C16.6,36.4,16.8,36.5,16.9,36.3L16.9,36.3z"/>
	<path class="st0" d="M18.6,27c0.1,0.1,0.2,0.1,0.3,0.1c-0.2,0-0.3,0.1-0.5,0.2c-0.2,0.2-0.5,0.4-0.7,0.6l0,0c0.3,0.1,0.7,0.1,1,0.1
		l0.2-0.1l-0.1,0.2c-0.1,0.5-0.2,1-0.2,1.4c0.4-0.3,0.8-0.7,1-1.2l0-0.1c0,0.1,0.1,0.2,0.1,0.2c0.2,0.2,0.3,0.5,0.6,0.7l0,0
		c0.1-0.3,0.1-0.7,0.1-1c0-0.1-0.1-0.3-0.2-0.4c0.1,0,0.1,0.1,0.2,0.1c0.3,0.1,0.6,0.1,0.9,0l0,0c-0.2-0.2-0.4-0.3-0.6-0.5
		c-0.2-0.1-0.4-0.2-0.7-0.2c-0.2,0-0.3,0-0.5,0l0,0c-0.2-0.2-0.2-0.2-0.3-0.3c-0.2-0.2-0.4-0.3-0.6-0.3c-0.2-0.1-0.5-0.1-0.7-0.1
		l0,0C18.1,26.7,18.3,26.9,18.6,27z"/>
	<path class="st0" d="M18.5,27.1c0.1,0,0.2,0.1,0.3,0.1v-0.1c-0.5,0.1-0.9,0.4-1.2,0.8c0,0,0,0.1,0,0.1c0.4,0.1,0.8,0.1,1.3,0
		l-0.1-0.1c-0.2,0.5-0.2,1.1-0.2,1.6c0,0,0,0.1,0.1,0.1c0,0,0,0,0,0c0.5-0.3,0.8-0.8,1.1-1.3h-0.1c0.2,0.4,0.4,0.7,0.7,0.9
		c0,0,0.1,0,0.1,0c0,0,0,0,0,0c0.2-0.5,0.2-1-0.1-1.5l-0.1,0.1c0.3,0.1,0.7,0.1,1.1,0c0,0,0-0.1,0-0.1c0,0,0,0,0,0
		c-0.2-0.3-0.6-0.5-0.9-0.6c-0.3,0-0.5-0.1-0.8,0c0,0-0.1,0-0.1,0.1c0,0,0,0,0,0l0,0l0.1-0.1l0,0v0.1l0,0c0,0,0.1-0.1,0-0.1
		c-0.2-0.2-0.4-0.4-0.6-0.6c-0.3-0.2-0.7-0.2-1.1-0.2c0,0-0.1,0-0.1,0.1c0,0,0,0,0,0C18.1,26.7,18.3,26.9,18.5,27.1
		c0.1,0,0.2-0.1,0.1-0.1c-0.2-0.2-0.4-0.4-0.6-0.6L18,26.5c0.3,0,0.7,0,1,0.2c0.3,0.1,0.5,0.3,0.7,0.6l0-0.1l0,0
		c-0.1,0-0.1,0.1,0,0.1l0,0c0,0,0.1,0,0.1-0.1c0,0,0,0,0,0l0,0l0,0.1c0.3,0,0.6,0,0.9,0c0.3,0.1,0.6,0.3,0.8,0.6v-0.1
		c-0.4,0.1-0.7,0.1-1.1,0c-0.1,0-0.1,0.1-0.1,0.1c0.2,0.4,0.3,0.9,0.1,1.4h0.1c-0.3-0.2-0.5-0.5-0.7-0.9c0,0-0.1,0-0.1,0
		c0,0,0,0,0,0c-0.3,0.5-0.6,0.9-1.1,1.2l0.1,0.1c0-0.5,0.1-1.1,0.2-1.6c0,0,0-0.1,0-0.1c0,0,0,0,0,0C18.4,28,18,28,17.7,27.9V28
		c0.3-0.4,0.7-0.7,1.2-0.8c0.1,0,0.1-0.1,0-0.1c-0.1,0-0.2-0.1-0.3-0.1C18.5,26.9,18.5,27,18.5,27.1z"/>
	<path class="st0" d="M19.5,27.8c0.3-0.4,0.4-1,0.5-1.5c0,0,0-0.1-0.1,0c0,0,0,0,0,0c-0.1,0.5-0.2,1-0.5,1.4
		C19.3,27.8,19.5,27.9,19.5,27.8L19.5,27.8z"/>
	<path class="st0" d="M35.2,19.3L35.2,19.3c0,0.8,0.1,1.5,0.4,2.2c0.2,0.7,0.6,1.2,1.1,1.7c0.4,0.3,0.7,0.6,1.1,0.9l0,0
		c0,0.5,0,0.9,0,1.4c0.1,0.7,0.3,1.4,0.7,2c0.4,0.6,0.9,1.1,1.5,1.6l0.1,0c0.2-0.8,0.2-1.7-0.1-2.5c-0.1-0.2-0.2-0.4-0.3-0.6
		c0.4,0.2,0.8,0.3,1.2,0.4c1,0.1,2-0.1,3-0.5h-0.1c-0.6-0.6-1.3-1.1-2-1.5c-0.2-0.1-0.5-0.2-0.7-0.3l0.2-0.2c1.3-0.9,2.4-2,3.2-3.3
		c-1.4,0.1-2.8,0.4-4.2,0.8l-0.5,0.2c0.1-0.2,0.1-0.4,0.1-0.6c0.1-1,0-2-0.4-2.9L39.5,18c-0.6,0.6-1.1,1.3-1.6,2
		c-0.2,0.5-0.4,1-0.4,1.5c-0.1-0.2-0.3-0.5-0.4-0.7C36.6,20.2,35.9,19.6,35.2,19.3z"/>
	<path class="st0" d="M37.3,20.8c0.2,0.2,0.3,0.5,0.4,0.8l-0.4,0.1c0.2-1.5,1.1-2.6,2.1-3.7c0.1-0.1,0.2-0.1,0.3,0c0,0,0,0,0,0
		c0.5,1.2,0.6,2.4,0.3,3.7l-0.3-0.2c1.5-0.6,3.1-0.9,4.7-1c0.1,0,0.2,0,0.2,0.2c0,0,0,0.1,0,0.1c-0.9,1.4-2.1,2.6-3.5,3.5l0-0.3
		c1.1,0.4,2.1,1.1,2.9,1.9C44,25.8,44,26,44,26c0,0,0,0,0,0c-1.4,0.6-3,0.6-4.4,0l0.3-0.3c0.5,1,0.6,2.1,0.4,3.2
		c0,0.1-0.1,0.2-0.2,0.2c0,0-0.1,0-0.1-0.1c-0.9-0.7-1.6-1.6-2-2.6c-0.2-0.8-0.3-1.7-0.3-2.5c0-0.2,0.2-0.2,0.3-0.1l0,0l-0.3,0.2
		l0,0h0.4l0,0c0,0.1-0.2,0.2-0.3,0.1c-0.7-0.5-1.3-1.1-1.8-1.7c-0.6-1-0.8-2.1-0.8-3.2c0-0.1,0.1-0.2,0.2-0.2c0,0,0.1,0,0.1,0
		C36,19.5,36.7,20,37.3,20.8c0.1,0.2-0.2,0.4-0.3,0.2c-0.5-0.7-1.1-1.2-1.9-1.6l0.3-0.2c0,1,0.2,2,0.7,2.9c0.5,0.7,1.1,1.3,1.8,1.8
		L37.5,24l0,0c0-0.2,0.3-0.3,0.4,0l0,0c0,0.1-0.1,0.2-0.2,0.2c0,0-0.1,0-0.1,0l0,0l0.3-0.1c-0.1,0.8,0.1,1.7,0.3,2.5
		c0.4,0.9,1.1,1.7,1.9,2.3L39.8,29c0.2-1,0.1-2.1-0.3-3c-0.1-0.2,0.1-0.3,0.3-0.2c1.3,0.6,2.7,0.5,4,0L43.7,26
		c-0.7-0.8-1.7-1.4-2.7-1.8c-0.1,0-0.1-0.2-0.1-0.3c0,0,0.1-0.1,0.1-0.1c1.4-0.9,2.5-2,3.3-3.4l0.2,0.3c-1.6,0.1-3.1,0.4-4.6,1
		c-0.1,0.1-0.2,0-0.3-0.1c0,0,0-0.1,0-0.2c0.3-1.1,0.2-2.3-0.3-3.3l0.3,0.1c-1,1-1.8,2-2,3.5c0,0.1-0.1,0.2-0.2,0.2
		c-0.1,0-0.1,0-0.2-0.1c-0.1-0.3-0.3-0.5-0.4-0.8C36.8,20.7,37.1,20.6,37.3,20.8z"/>
	<path class="st0" d="M39.6,23.4c-1.3,0.9-2.7,1.5-4.2,1.8c-0.1,0-0.2,0-0.2-0.2c0-0.1,0-0.2,0.2-0.2c1.5-0.3,2.9-0.8,4.1-1.7
		C39.6,22.9,39.8,23.3,39.6,23.4L39.6,23.4z"/>
	<path class="st0" d="M27.3,12.2L27.3,12.2c0.6,0.6,1.1,1.2,1.8,1.6c0.6,0.4,1.4,0.6,2.1,0.7c0.5,0,1,0,1.5,0l0,0
		c0.3,0.4,0.6,0.8,0.9,1.1c0.5,0.5,1.2,0.9,1.9,1.2c0.7,0.2,1.5,0.3,2.3,0.4h0.1c-0.4-0.8-1-1.5-1.7-2c-0.2-0.1-0.4-0.2-0.6-0.3
		c0.5-0.1,0.9-0.2,1.3-0.5c0.9-0.6,1.7-1.4,2.2-2.3H39c-0.9-0.1-1.8-0.1-2.7,0c-0.3,0.1-0.5,0.1-0.8,0.2c0-0.1,0.1-0.2,0.1-0.3
		c0.5-1.6,0.7-3.2,0.5-4.9c-1.1,1-2.1,2.2-3,3.4c-0.1,0.2-0.2,0.3-0.3,0.5c-0.1-0.2-0.2-0.4-0.3-0.6c-0.5-0.9-1.3-1.7-2.3-2.2v0.1
		c-0.1,0.9-0.1,1.8,0,2.7c0.1,0.6,0.3,1.1,0.6,1.6c-0.3-0.2-0.5-0.3-0.8-0.4C29.1,12,28.2,12,27.3,12.2z"/>
	<path class="st0" d="M30.1,12.1c0.3,0.1,0.6,0.2,0.9,0.4l-0.3,0.3c-0.8-1.4-0.8-3-0.7-4.6c0-0.1,0.1-0.2,0.3-0.2c0,0,0,0,0,0
		c1.2,0.6,2.1,1.7,2.6,2.9h-0.4c0.9-1.5,2-2.8,3.3-4c0.1-0.1,0.2-0.1,0.3,0c0,0,0.1,0.1,0.1,0.1c0.2,1.8-0.1,3.6-0.7,5.3l-0.3-0.3
		c1.2-0.4,2.5-0.5,3.7-0.3c0.1,0,0.2,0.1,0.2,0.2c0,0,0,0,0,0.1c-0.9,1.4-2,2.6-3.7,2.9l0.1-0.4c1.1,0.5,1.9,1.4,2.5,2.5
		c0.1,0.1,0,0.2-0.1,0.3c0,0-0.1,0-0.1,0c-1.2,0-2.4-0.3-3.4-0.9c-0.7-0.5-1.4-1.2-1.9-1.9c-0.1-0.1,0-0.3,0.2-0.3l0,0l-0.1,0.4l0,0
		l0.3-0.3l0,0c0.1,0.1,0,0.3-0.2,0.3c-0.9,0.1-1.8,0-2.7-0.3c-1.1-0.5-2.1-1.2-2.8-2.1c-0.1-0.1-0.1-0.2,0-0.3c0,0,0.1-0.1,0.1-0.1
		C28.3,11.8,29.2,11.8,30.1,12.1c0.2,0.1,0.1,0.5-0.1,0.4c-0.9-0.2-1.8-0.3-2.6-0.1l0.1-0.4c0.7,0.9,1.5,1.5,2.5,2
		c0.9,0.3,1.8,0.4,2.7,0.3l-0.2,0.3l0,0c-0.1-0.2,0.1-0.4,0.3-0.3l0,0c0.1,0.1,0.1,0.2,0,0.3c0,0-0.1,0.1-0.1,0.1l0,0l0.2-0.3
		c0.5,0.7,1.2,1.4,1.9,1.9c1,0.5,2,0.7,3.1,0.7l-0.2,0.3c-0.5-1-1.3-1.8-2.3-2.3c-0.1,0-0.1-0.2-0.1-0.3c0-0.1,0.1-0.1,0.2-0.1
		c1.4-0.4,2.7-1.4,3.3-2.7l0.1,0.3c-1.2-0.2-2.4-0.1-3.5,0.3c-0.1,0-0.2,0-0.3-0.1c0-0.1,0-0.1,0-0.2c0.6-1.6,0.8-3.4,0.6-5.1
		l0.4,0.1C35,8.4,33.9,9.7,33,11.1c0,0.1-0.2,0.2-0.3,0.1c0,0-0.1-0.1-0.1-0.1C32.1,10,31.3,9,30.2,8.4l0.3-0.2
		c-0.2,1.5-0.2,2.9,0.6,4.2c0.1,0.2-0.1,0.4-0.3,0.3c-0.3-0.1-0.6-0.3-0.8-0.4C29.7,12.4,29.9,12,30.1,12.1z"/>
	<path class="st0" d="M33.8,12.8c-0.8,2.1-1,2.5-2.4,4.2c-0.1,0.1-0.2,0.1-0.3,0c-0.1-0.1-0.1-0.2,0-0.3c1.4-1.7,1.5-2.1,2.3-4.1
		C33.5,12.4,33.9,12.6,33.8,12.8z"/>
	<g>
		<path class="st0" d="M16.9,9.3L16.9,9.3c0.8,0.3,1.6,0.6,2.4,0.7c0.8,0.1,1.6,0,2.3-0.3c0.5-0.2,0.9-0.4,1.4-0.6l0,0
			c0.4,0.2,0.9,0.5,1.4,0.7c0.7,0.3,1.5,0.4,2.3,0.3c0.8-0.1,1.6-0.3,2.3-0.7h0.1c-0.7-0.6-1.6-1-2.5-1.2c-0.2,0-0.5,0-0.7,0
			c0.4-0.3,0.8-0.6,1-1c0.6-1,1-2.1,1-3.2h-0.1c-0.9,0.3-1.8,0.7-2.6,1.2c-0.2,0.2-0.4,0.4-0.6,0.6c0-0.1,0-0.2,0-0.3
			C24.4,3.7,23.9,2,23,0.6c-0.6,1.5-1.1,3-1.3,4.6c0,0.2,0,0.4,0,0.6c-0.2-0.2-0.3-0.3-0.5-0.4c-0.9-0.6-2-1-3.1-1.1v0.1
			c0.3,0.9,0.7,1.8,1.3,2.6c0.3,0.5,0.8,0.9,1.3,1.2c-0.3,0-0.6,0-1,0C18.6,8.3,17.7,8.7,16.9,9.3z"/>
		<path class="st0" d="M19.5,7.9c0.3,0,0.6,0,1,0l-0.1,0.4c-1.4-1-2.1-2.4-2.6-4c0-0.1,0-0.2,0.2-0.3c0,0,0,0,0.1,0
			c1.4,0.1,2.7,0.6,3.8,1.6l-0.4,0.2C21.6,4,22,2.2,22.8,0.5c0-0.1,0.1-0.2,0.3-0.2c0.1,0,0.1,0.1,0.1,0.1c1,1.6,1.6,3.5,1.7,5.4
			l-0.4-0.2c1-0.9,2.1-1.5,3.3-1.9c0.1,0,0.2,0,0.3,0.2c0,0,0,0,0,0.1c-0.2,1.8-0.8,3.3-2.2,4.4l-0.1-0.5c1.2,0,2.4,0.5,3.4,1.3
			c0.1,0.1,0.1,0.2,0.1,0.3c0,0-0.1,0.1-0.1,0.1c-1.1,0.5-2.4,0.8-3.6,0.7c-0.9-0.2-1.8-0.5-2.6-1c-0.2-0.1-0.1-0.3,0-0.4l0,0l0,0.4
			l0,0l0.2-0.4l0,0c0.1,0.1,0.1,0.2,0.1,0.3c0,0,0,0.1-0.1,0.1c-0.8,0.5-1.7,0.8-2.7,0.9c-1.3,0.1-2.5-0.2-3.6-0.8
			c-0.1,0-0.2-0.2-0.1-0.3c0,0,0-0.1,0.1-0.1C17.6,8.5,18.5,8.1,19.5,7.9c0.2,0,0.3,0.4,0.1,0.4c-0.9,0.2-1.8,0.5-2.5,1.1l0-0.4
			c1,0.5,2.1,0.8,3.3,0.8c0.9-0.1,1.8-0.4,2.7-0.9v0.4l0,0c-0.2-0.1-0.1-0.5,0.2-0.4l0,0c0.1,0,0.2,0.2,0.1,0.3c0,0,0,0.1-0.1,0.1
			l0,0V8.9c0.8,0.5,1.7,0.8,2.7,0.9c1.1,0,2.3-0.2,3.3-0.7l-0.1,0.4c-0.9-0.7-2-1.1-3.2-1.2c-0.1,0-0.2-0.1-0.2-0.2
			c0-0.1,0-0.1,0.1-0.2c1.2-1,1.9-2.5,2-4l0.3,0.2c-1.2,0.3-2.3,0.9-3.2,1.8c-0.1,0.1-0.2,0.1-0.3,0c0,0-0.1-0.1-0.1-0.1
			c-0.2-1.8-0.7-3.6-1.7-5.1l0.4-0.1C22.5,2.2,22,4,21.8,5.7c0,0.1-0.1,0.2-0.2,0.2c-0.1,0-0.1,0-0.2-0.1c-1-0.9-2.2-1.4-3.5-1.5
			l0.2-0.3c0.5,1.5,1.1,2.9,2.4,3.8c0.2,0.1,0.1,0.4-0.1,0.4c-0.3,0-0.7,0-1,0C19.2,8.4,19.2,7.9,19.5,7.9z"/>
	</g>
	<path class="st0" d="M25.8,21.9L25.8,21.9c0.3,0.4,0.7,0.7,1,0.9c0.4,0.2,0.8,0.4,1.3,0.4c0.3,0,0.6,0,0.9,0l0,0
		c0.2,0.2,0.4,0.5,0.6,0.7c0.3,0.3,0.7,0.6,1.1,0.7c0.5,0.1,0.9,0.2,1.4,0.2h0c-0.3-0.5-0.6-0.9-1.1-1.2c-0.1-0.1-0.2-0.1-0.4-0.2
		c0.3-0.1,0.5-0.1,0.8-0.3c0.6-0.3,1-0.8,1.3-1.4h0c-0.5-0.1-1.1-0.1-1.6,0c-0.2,0-0.3,0.1-0.5,0.1l0.1-0.2c0.3-1,0.4-2,0.3-2.9
		c-0.7,0.6-1.2,1.3-1.8,2.1c-0.1,0.1-0.1,0.2-0.2,0.3c0-0.1-0.1-0.2-0.2-0.3c-0.3-0.5-0.8-1-1.4-1.3v0c-0.1,0.5-0.1,1.1,0,1.6
		c0.1,0.3,0.2,0.6,0.4,0.9c-0.2-0.1-0.3-0.2-0.5-0.2C26.9,21.8,26.3,21.8,25.8,21.9z"/>
	<path class="st0" d="M27.5,21.8c0.2,0.1,0.3,0.1,0.5,0.2l-0.2,0.2c-0.4-0.8-0.6-1.8-0.4-2.7c0-0.1,0.1-0.1,0.1-0.1c0,0,0,0,0,0
		c0.7,0.4,1.3,1,1.6,1.7H29c0.5-0.9,1.2-1.7,1.9-2.4c0-0.1,0.1-0.1,0.2,0c0,0,0,0,0,0.1c0.1,1.1,0,2.2-0.3,3.2l-0.2-0.2
		c0.7-0.2,1.5-0.3,2.2-0.2c0.1,0,0.1,0.1,0.1,0.1c0,0,0,0,0,0c-0.4,0.9-1.2,1.5-2.2,1.8l0-0.2c0.6,0.3,1.1,0.8,1.5,1.5
		c0,0.1,0,0.1,0,0.2c0,0-0.1,0-0.1,0c-0.7,0-1.4-0.1-2.1-0.5c-0.4-0.3-0.8-0.7-1.1-1.1c0-0.1,0-0.1,0-0.2c0,0,0,0,0.1,0l0,0L29,23.4
		l0,0l0.2-0.2l0,0c0,0.1,0,0.2-0.1,0.2c-0.5,0-1.1,0-1.6-0.1c-0.7-0.3-1.3-0.7-1.7-1.3c-0.1,0-0.1-0.1,0-0.2c0,0,0.1,0,0.1,0
		C26.4,21.7,26.9,21.7,27.5,21.8c0.1,0,0.1,0.3-0.1,0.2c-0.5-0.1-1.1-0.1-1.6,0l0.1-0.2c0.4,0.5,0.9,0.9,1.5,1.2
		c0.5,0.2,1.1,0.2,1.6,0.2l-0.1,0.2l0,0c-0.1-0.1,0.1-0.3,0.2-0.2l0,0c0.1,0,0.1,0.1,0,0.2c0,0-0.1,0-0.1,0l0,0l0.1-0.2
		c0.3,0.4,0.7,0.8,1.2,1.1c0.6,0.3,1.2,0.4,1.9,0.4l-0.1,0.2c-0.3-0.6-0.8-1-1.4-1.3c-0.1,0-0.1-0.1-0.1-0.2c0,0,0.1-0.1,0.1-0.1
		c0.9-0.2,1.6-0.8,2-1.6l0.1,0.2c-0.7-0.1-1.4,0-2.1,0.2c-0.1,0-0.1,0-0.2-0.1c0,0,0-0.1,0-0.1c0.3-1,0.4-2,0.3-3.1l0.2,0.1
		c-0.7,0.7-1.4,1.5-1.9,2.3c0,0.1-0.1,0.1-0.2,0.1c0,0-0.1,0-0.1-0.1c-0.3-0.7-0.8-1.2-1.5-1.6l0.2-0.1c-0.2,0.9,0,1.8,0.4,2.5
		c0.1,0.1,0,0.2-0.2,0.2c-0.2-0.1-0.3-0.2-0.5-0.2C27.2,22,27.3,21.7,27.5,21.8z"/>
	<path class="st0" d="M29.7,22.2c-0.3,0.9-0.7,1.8-1.4,2.6c-0.1,0.1-0.3,0-0.2-0.2c0.6-0.7,1.1-1.6,1.3-2.5
		C29.5,21.9,29.8,22,29.7,22.2L29.7,22.2z"/>
	<path class="st0" d="M32.9,28.3L32.9,28.3c-0.2,0.5-0.2,1-0.3,1.5c0,0.5,0.1,1,0.3,1.4c0.1,0.3,0.3,0.5,0.5,0.8l0,0
		c-0.1,0.3-0.2,0.6-0.3,0.9c-0.1,0.5-0.1,1,0,1.4c0.1,0.5,0.3,0.9,0.6,1.4l0,0c0.3-0.5,0.5-1.1,0.5-1.6c0-0.1,0-0.3,0-0.4
		c0.2,0.2,0.4,0.4,0.7,0.6c0.6,0.3,1.3,0.5,2,0.4v0c-0.2-0.5-0.5-1-0.9-1.4c-0.1-0.1-0.2-0.2-0.4-0.3c0.1,0,0.1,0,0.2,0
		c1-0.2,2-0.7,2.9-1.4c-0.9-0.3-1.9-0.4-2.9-0.5c-0.1,0-0.3,0-0.4,0c0.1-0.1,0.2-0.2,0.2-0.3c0.3-0.6,0.5-1.3,0.4-2h0
		c-0.5,0.2-1,0.6-1.5,0.9c-0.3,0.2-0.5,0.5-0.7,0.9c0-0.2,0-0.4-0.1-0.6C33.6,29.2,33.3,28.8,32.9,28.3z"/>
	<path class="st0" d="M33.9,29.8c0,0.2,0.1,0.4,0.1,0.6h-0.3c0.5-0.9,1.3-1.5,2.3-1.9c0.1,0,0.1,0,0.2,0.1c0,0,0,0,0,0
		c0.1,0.9-0.2,1.7-0.7,2.4l-0.1-0.2c1.1,0,2.2,0.1,3.3,0.5c0.1,0,0.1,0.1,0.1,0.1c0,0,0,0.1-0.1,0.1c-0.9,0.7-2,1.2-3.1,1.4l0.1-0.2
		c0.6,0.5,1.1,1.2,1.4,1.9c0,0.1,0,0.1-0.1,0.2c0,0,0,0,0,0c-1.1,0.1-2.1-0.3-2.8-1l0.2-0.1c0.1,0.8-0.1,1.5-0.5,2.2
		c0,0.1-0.1,0.1-0.2,0.1c0,0,0,0-0.1-0.1c-0.4-0.6-0.6-1.4-0.7-2.2c0-0.6,0.2-1.1,0.4-1.7c0-0.1,0.2-0.1,0.2,0l0,0l-0.2,0.1l0,0
		l0.3,0.1l0,0c0,0.1-0.1,0.1-0.2,0c0,0,0,0,0,0c-0.3-0.5-0.6-1-0.8-1.5c-0.1-0.8-0.1-1.5,0.2-2.3c0-0.1,0.1-0.1,0.2-0.1
		c0,0,0.1,0,0.1,0.1C33.5,28.7,33.8,29.2,33.9,29.8c0,0.1-0.2,0.2-0.3,0.1c-0.2-0.5-0.5-1-0.9-1.5l0.2-0.1c-0.2,0.7-0.3,1.4-0.2,2
		c0.2,0.6,0.4,1.1,0.7,1.6h-0.2l0,0c0.1-0.1,0.3-0.1,0.3,0.1l0,0c0,0.1-0.1,0.1-0.2,0.1c0,0-0.1,0-0.1,0l0,0h0.2
		c-0.2,0.5-0.4,1.1-0.4,1.7c0.1,0.7,0.3,1.4,0.7,1.9h-0.2c0.4-0.6,0.5-1.3,0.5-2c0-0.1,0-0.1,0.1-0.2c0.1,0,0.1,0,0.1,0.1
		c0.7,0.7,1.6,1,2.6,0.9l-0.1,0.2c-0.3-0.7-0.8-1.3-1.3-1.8c-0.1,0-0.1-0.1,0-0.2c0,0,0.1,0,0.1,0c1.1-0.2,2.1-0.7,3-1.4l0.1,0.2
		c-1-0.3-2.1-0.5-3.2-0.4c-0.1,0-0.1,0-0.1-0.1c0,0,0-0.1,0-0.1c0.5-0.7,0.7-1.4,0.6-2.2l0.2,0.1c-0.9,0.3-1.6,1-2.1,1.8
		c-0.1,0.1-0.3,0.1-0.3,0c0-0.2,0-0.4-0.1-0.6C33.6,29.7,33.9,29.7,33.9,29.8z"/>
	<path class="st0" d="M34.8,32.1c-1,0.3-2.1,0.3-3.1,0.1c-0.2,0-0.1-0.3,0-0.3c1,0.2,2.1,0.1,3.1-0.1C34.9,31.8,35,32,34.8,32.1
		L34.8,32.1z"/>
	<path class="st0" d="M30.7,34.2L30.7,34.2c-0.4,0-0.8,0-1.2,0.1c-0.4,0.1-0.7,0.3-1,0.5c-0.2,0.2-0.3,0.3-0.5,0.5l0,0
		c-0.2,0-0.5,0-0.7,0c-0.4,0-0.7,0.1-1.1,0.3c-0.3,0.2-0.6,0.4-0.9,0.7l0,0c0.4,0.1,0.9,0.1,1.3,0c0.1,0,0.2,0,0.3-0.1
		c-0.1,0.2-0.2,0.4-0.3,0.7c-0.1,0.5-0.1,1.1,0.1,1.6l0,0c0.3-0.3,0.6-0.6,0.9-1c0.1-0.1,0.1-0.2,0.2-0.4l0.1,0.1
		c0.4,0.7,1,1.3,1.6,1.8c0-0.7-0.1-1.5-0.3-2.2c0-0.1-0.1-0.2-0.1-0.3c0.1,0,0.2,0.1,0.3,0.1c0.5,0.1,1.1,0,1.6-0.2l0,0
		c-0.3-0.3-0.6-0.7-1-0.9c-0.2-0.1-0.5-0.2-0.8-0.3c0.1,0,0.3-0.1,0.4-0.2C30.2,34.9,30.5,34.6,30.7,34.2z"/>
	<path class="st0" d="M29.8,35.2c-0.1,0.1-0.3,0.1-0.4,0.2v-0.2c0.8,0.2,1.4,0.6,1.9,1.3c0,0,0,0.1,0,0.1c0,0,0,0,0,0
		c-0.6,0.2-1.3,0.2-1.9,0l0.1-0.1c0.2,0.8,0.4,1.7,0.4,2.5c0,0.1,0,0.1-0.1,0.1c0,0-0.1,0-0.1,0c-0.7-0.5-1.3-1.2-1.7-2h0.2
		c-0.3,0.6-0.7,1.1-1.1,1.4c0,0-0.1,0-0.1,0c0,0,0,0,0,0c-0.3-0.8-0.2-1.6,0.1-2.3l0.1,0.2c-0.5,0.2-1.1,0.2-1.7,0.1
		c-0.1,0-0.1-0.1-0.1-0.1c0,0,0,0,0-0.1c0.4-0.4,0.9-0.8,1.4-1c0.4-0.1,0.9-0.1,1.3-0.1c0.1,0,0.1,0.1,0.1,0.2l0,0L28,35.2l0,0v0.2
		l0,0c-0.1,0-0.1-0.1-0.1-0.1c0,0,0,0,0,0c0.3-0.3,0.6-0.6,1-0.9c0.5-0.3,1.1-0.4,1.7-0.3c0.1,0,0.1,0,0.1,0.1c0,0,0,0,0,0.1
		C30.5,34.6,30.2,35,29.8,35.2c-0.1,0.1-0.2-0.1-0.1-0.2c0.4-0.2,0.7-0.6,0.9-1l0.1,0.2c-0.5,0-1.1,0.1-1.6,0.3
		c-0.4,0.2-0.7,0.5-1,0.9l-0.1-0.2l0,0c0.1,0,0.1,0,0.1,0.1c0,0.1,0,0.1-0.1,0.1l0,0c-0.1,0-0.1,0-0.1-0.1c0,0,0,0,0-0.1l0,0
		l0.1,0.2c-0.4-0.1-0.9,0-1.3,0.1c-0.5,0.2-0.9,0.5-1.3,0.9l-0.1-0.2c0.5,0.1,1.1,0.1,1.6-0.1c0.1,0,0.1,0,0.1,0.1c0,0,0,0.1,0,0.1
		c-0.3,0.7-0.4,1.4-0.1,2.1l-0.2,0c0.5-0.4,0.8-0.8,1.1-1.3c0-0.1,0.1-0.1,0.1-0.1c0,0,0,0,0.1,0.1c0.4,0.7,1,1.4,1.7,1.9l-0.2,0.1
		c0-0.8-0.1-1.7-0.4-2.5c0-0.1,0-0.1,0-0.1c0,0,0.1,0,0.1,0c0.6,0.2,1.2,0.2,1.8,0l0,0.2c-0.4-0.6-1.1-1-1.8-1.2
		c-0.1,0-0.1-0.2,0-0.2c0.1-0.1,0.3-0.1,0.4-0.2C29.8,35,29.9,35.2,29.8,35.2z"/>
	<path class="st0" d="M28.3,36.3c-0.4-0.7-0.7-1.5-0.8-2.3c0-0.1,0-0.1,0.1-0.1c0.1,0,0.1,0,0.1,0.1c0,0,0,0,0,0
		c0.1,0.8,0.3,1.6,0.8,2.2C28.6,36.4,28.4,36.5,28.3,36.3L28.3,36.3z"/>
	<path class="st0" d="M27.5,26.2L27.5,26.2c-0.2,0-0.5,0-0.7,0.1c-0.2,0.1-0.4,0.2-0.6,0.3c-0.1,0.1-0.1,0.2-0.3,0.3l0,0
		c-0.2,0-0.3,0-0.5,0c-0.2,0-0.5,0.1-0.7,0.2c-0.2,0.1-0.4,0.3-0.6,0.5l0,0c0.3,0.1,0.6,0.1,0.9,0c0.1,0,0.1,0,0.2-0.1
		c-0.1,0.1-0.1,0.3-0.2,0.4c-0.1,0.3,0,0.7,0.1,1l0,0c0.2-0.2,0.4-0.4,0.6-0.7c0-0.1,0.1-0.2,0.1-0.2l0,0.1c0.3,0.5,0.6,0.9,1.1,1.2
		c0-0.5-0.1-1-0.2-1.4c0-0.1,0-0.1-0.1-0.2l0.2,0.1c0.3,0.1,0.7,0,1-0.1l0,0c-0.2-0.2-0.4-0.4-0.7-0.6C27,27.1,26.9,27,26.7,27
		c0.1,0,0.2-0.1,0.3-0.1C27.2,26.7,27.4,26.5,27.5,26.2z"/>
	<path class="st0" d="M27,26.9c-0.1,0-0.2,0.1-0.3,0.1v-0.1c0.5,0.1,0.9,0.4,1.2,0.8c0,0,0,0.1,0,0.1c-0.4,0.1-0.8,0.1-1.2,0
		l0.1-0.1c0.2,0.5,0.2,1.1,0.2,1.6c0,0,0,0.1-0.1,0.1c0,0,0,0,0,0c-0.5-0.3-0.9-0.8-1.2-1.3h0.1c-0.2,0.4-0.4,0.7-0.7,0.9
		c0,0-0.1,0-0.1,0c-0.2-0.5-0.2-1,0.1-1.5l0.1,0.1c-0.4,0.1-0.7,0.2-1.1,0.1c0,0,0-0.1,0-0.1c0,0,0,0,0,0c0.2-0.3,0.6-0.5,0.9-0.6
		c0.3-0.1,0.6-0.1,0.9,0c0,0,0.1,0,0.1,0.1c0,0,0,0,0,0l0,0L25.8,27l0,0v0.1l0,0c0,0-0.1,0-0.1-0.1c0,0,0,0,0,0
		c0.2-0.2,0.4-0.4,0.6-0.6c0.3-0.2,0.7-0.2,1.1-0.2c0,0,0.1,0,0.1,0.1c0,0,0,0,0,0C27.5,26.6,27.2,26.8,27,26.9
		C26.9,27,26.8,26.9,27,26.9c0.2-0.2,0.4-0.4,0.5-0.7l0.1,0.1c-0.3,0-0.7,0-1,0.2c-0.2,0.2-0.5,0.3-0.6,0.6l0-0.1l0,0
		c0.1,0,0.1,0.1,0,0.1l0,0c0,0-0.1,0-0.1-0.1c0,0,0,0,0,0l0,0l0,0.1c-0.3,0-0.6,0-0.9,0c-0.3,0.1-0.6,0.3-0.8,0.6v-0.1
		c0.3,0.1,0.7,0.1,1,0c0.1,0,0.1,0.1,0.1,0.1c-0.2,0.4-0.2,0.9-0.1,1.3h-0.1c0.3-0.2,0.5-0.5,0.7-0.9c0-0.1,0.1,0,0.1,0
		c0.3,0.5,0.6,0.9,1.1,1.2l-0.1,0.1c0-0.5-0.1-1.1-0.2-1.6c0,0,0-0.1,0-0.1c0,0,0,0,0,0c0.4,0.1,0.8,0.1,1.2,0v0.1
		c-0.3-0.4-0.7-0.6-1.1-0.8c-0.1,0-0.1-0.1,0-0.1C26.8,27,26.9,26.9,27,26.9C27,26.8,27,26.9,27,26.9z"/>
	<path class="st0" d="M26,27.6c-0.3-0.4-0.4-1-0.5-1.5c0-0.1,0.1-0.1,0.1,0c0,0.5,0.2,1,0.5,1.4C26.1,27.7,26,27.7,26,27.6L26,27.6z
		"/>
</g>
</svg>
