<?xml version="1.0" encoding="utf-8"?>
<!-- Generator: Adobe Illustrator 26.0.1, SVG Export Plug-In . SVG Version: 6.00 Build 0)  -->
<svg version="1.1" id="Camada_1" xmlns="http://www.w3.org/2000/svg" xmlns:xlink="http://www.w3.org/1999/xlink" x="0px" y="0px"
	 viewBox="0 0 44.7 51.2" style="enable-background:new 0 0 44.7 51.2;" xml:space="preserve">
<style type="text/css">
	.st0{fill:#974B41;}
</style>
<g>
	<polygon class="st0" points="35.6,22.9 35.3,22.6 35.3,22.6 35.1,22.4 23.6,32.9 23.3,21.8 29.3,15.2 29.1,15.1 29.1,15.1 
		28.9,14.9 23.3,20 23,9.3 22.2,9.3 21.9,20.1 16.1,14.9 15.9,15.1 15.9,15.1 15.8,15.2 21.9,22 21.6,33.3 10.2,22.8 10,23.1 
		10,23.1 9.7,23.3 21.5,36.2 21.2,50.9 22.6,50.9 24,50.9 23.7,35.8 	"/>
	<path class="st0" d="M8,21c-0.1,0.3-0.3,0.5-0.3,0.8c-0.1-0.5-0.3-1-0.6-1.5C6.6,19.6,6,19,5.4,18.4l-0.1-0.1c-0.3,1-0.4,2-0.2,3
		c0,0.2,0.1,0.4,0.2,0.6l-0.5-0.2c-1.4-0.3-2.8-0.4-4.2-0.4c0.9,1.2,2.1,2.3,3.5,3l0.3,0.1c-0.2,0.1-0.5,0.2-0.7,0.3
		c-0.7,0.5-1.3,1-1.9,1.7l-0.1,0.1c1,0.3,2,0.4,3,0.2c0.4-0.1,0.8-0.3,1.2-0.5c-0.1,0.2-0.2,0.4-0.2,0.6c-0.2,0.8-0.1,1.7,0.1,2.5
		l0,0c0.5-0.5,1-1.1,1.3-1.7c0.3-0.6,0.5-1.3,0.5-2c0-0.4,0-0.9-0.1-1.3l0,0c0.3-0.3,0.7-0.6,1-0.9c0.5-0.5,0.8-1.1,1-1.8
		c0.1-0.7,0.2-1.4,0.2-2.2v-0.1C9.1,19.6,8.5,20.2,8,21z"/>
	<path class="st0" d="M7.8,20.9c-0.1,0.3-0.3,0.5-0.3,0.8l0.4,0c-0.3-1.5-1.3-2.5-2.5-3.5c-0.1-0.1-0.2,0-0.3,0c0,0,0,0,0,0
		c-0.4,1.2-0.4,2.5,0,3.7l0.3-0.3c-1.6-0.4-3.2-0.6-4.8-0.6c-0.1,0-0.2,0.1-0.2,0.2c0,0,0,0.1,0,0.1c1,1.3,2.3,2.4,3.8,3.2v-0.4
		c-1,0.5-2,1.2-2.7,2.2c-0.1,0.1,0,0.2,0.1,0.3c0,0,0,0,0,0c1.4,0.5,3,0.3,4.3-0.4l-0.3-0.2c-0.4,1-0.4,2.2-0.1,3.2
		c0,0.1,0.1,0.2,0.3,0.1c0,0,0.1,0,0.1-0.1c0.8-0.8,1.4-1.7,1.8-2.8C7.9,25.8,8,25,7.8,24.2C7.8,24,7.6,24,7.5,24l0,0l0.3,0.2H7.4
		c0,0.1,0.1,0.2,0.2,0.2c0,0,0.1,0,0.1,0c0.7-0.5,1.2-1.2,1.7-1.9c0.5-1,0.7-2.1,0.6-3.2C10,19.1,10,19,9.8,19c0,0-0.1,0-0.1,0
		C9,19.5,8.4,20.1,7.8,20.9c-0.1,0.2,0.2,0.4,0.4,0.2c0.4-0.7,1.1-1.3,1.8-1.7l-0.3-0.2c0.1,1-0.1,2-0.4,3c-0.4,0.7-1,1.4-1.6,1.9
		l0.3,0.1l0,0c0-0.2-0.4-0.2-0.4,0l0,0c0,0.1,0.1,0.2,0.2,0.2c0,0,0.1,0,0.1,0l0,0l-0.3-0.1c0.1,0.8,0.1,1.7-0.1,2.5
		c-0.4,0.9-0.9,1.8-1.7,2.5L6,29.3c-0.3-1-0.3-2.1,0.1-3C6.2,26.1,6,25.9,5.8,26c-1.2,0.7-2.7,0.8-4,0.3l0.1,0.3
		c0.7-0.9,1.5-1.6,2.5-2c0.1,0,0.1-0.2,0.1-0.3c0,0-0.1-0.1-0.1-0.1c-1.4-0.7-2.7-1.8-3.7-3.1l-0.2,0.3c1.6,0,3.2,0.2,4.7,0.6
		c0.1,0,0.2,0,0.3-0.1c0,0,0-0.1,0-0.2c-0.4-1.1-0.4-2.3,0-3.3l-0.3,0.1c1.1,0.9,2,1.9,2.3,3.3c0,0.1,0.1,0.2,0.2,0.2
		c0.1,0,0.1-0.1,0.1-0.1c0.1-0.3,0.2-0.5,0.3-0.8C8.3,20.8,8,20.7,7.8,20.9z"/>
	<path class="st0" d="M5.8,23.7c1.3,0.8,2.8,1.3,4.3,1.4c0.1,0,0.2-0.1,0.2-0.2c0-0.1-0.1-0.2-0.2-0.2c-1.5-0.1-2.9-0.6-4.2-1.3
		C5.7,23.3,5.6,23.6,5.8,23.7L5.8,23.7z"/>
	<path class="st0" d="M14.8,12.1c-0.3,0.1-0.6,0.2-0.9,0.4c0.3-0.5,0.5-1,0.6-1.6c0.1-0.9,0.1-1.8,0-2.7V8.1
		c-0.9,0.5-1.7,1.3-2.3,2.2c-0.1,0.2-0.2,0.4-0.2,0.6c-0.1-0.2-0.2-0.4-0.3-0.5C10.9,9.1,9.9,8,8.8,7c-0.2,1.7,0,3.3,0.5,4.9
		l0.1,0.3c-0.3-0.1-0.5-0.2-0.8-0.2c-0.9-0.1-1.8-0.1-2.7,0H5.8c0.5,0.9,1.3,1.7,2.2,2.3c0.4,0.2,0.9,0.4,1.3,0.5
		C9.2,14.8,9,14.9,8.8,15C8,15.6,7.4,16.3,7,17.1h0.1c0.8,0,1.6-0.1,2.3-0.4c0.7-0.2,1.3-0.7,1.9-1.2c0.3-0.3,0.4-0.5,0.9-1.1l0,0
		c0.5,0,1,0,1.5,0c0.7-0.1,1.5-0.3,2.1-0.7c0.6-0.5,1.2-1,1.7-1.6l0-0.1C16.6,11.8,15.7,11.9,14.8,12.1z"/>
	<path class="st0" d="M14.7,11.9c-0.3,0.1-0.6,0.2-0.8,0.4l0.3,0.3c0.8-1.4,0.8-3,0.7-4.6c0-0.1-0.1-0.2-0.2-0.2c0,0,0,0-0.1,0
		c-1.2,0.6-2.1,1.7-2.6,2.9h0.4c-0.9-1.5-2-2.8-3.3-4c-0.1-0.1-0.2-0.1-0.3,0c0,0-0.1,0.1-0.1,0.1c-0.2,1.8,0.1,3.6,0.7,5.3L9.5,12
		c-1.2-0.4-2.5-0.5-3.7-0.3c-0.1,0-0.2,0.1-0.2,0.2c0,0,0,0,0,0.1c0.8,1.5,2.1,2.5,3.7,2.9l-0.1-0.4c-1,0.5-1.9,1.4-2.4,2.5
		c-0.1,0.1,0,0.2,0.1,0.3c0,0,0.1,0,0.1,0c1.2,0,2.4-0.3,3.4-0.9c0.7-0.5,1.4-1.2,1.9-1.9c0.1-0.1,0-0.3-0.2-0.3l0,0l0.1,0.4l0,0
		L12,14.3l0,0c-0.1,0.1,0,0.3,0.2,0.3c0.9,0.1,1.8,0,2.7-0.3c1.1-0.5,2.1-1.2,2.8-2.1c0.1-0.1,0.1-0.2,0-0.3c0,0-0.1-0.1-0.1-0.1
		C16.6,11.6,15.6,11.7,14.7,11.9c-0.2,0-0.1,0.5,0.1,0.4c0.9-0.2,1.8-0.3,2.6-0.1l-0.1-0.4c-0.7,0.9-1.5,1.5-2.5,2
		c-0.9,0.3-1.8,0.4-2.7,0.3l0.2,0.3l0,0c0.1-0.2-0.1-0.4-0.3-0.3l0,0c-0.1,0.1-0.1,0.2,0,0.3c0,0,0.1,0.1,0.1,0.1l0,0L12,14.3
		c-0.5,0.7-1.2,1.4-1.9,1.9c-1,0.5-2,0.7-3.1,0.7l0.2,0.3c0.5-1,1.3-1.8,2.3-2.3c0.1,0,0.1-0.2,0.1-0.3c0-0.1-0.1-0.1-0.2-0.1
		c-1.4-0.4-2.7-1.4-3.3-2.7l-0.1,0.3C7,11.9,8.2,12,9.3,12.4c0.1,0,0.2,0,0.3-0.1c0-0.1,0-0.1,0-0.2C9,10.4,8.8,8.7,9,7L8.6,7.1
		C9.9,8.2,11,9.5,11.8,11c0,0.1,0.2,0.2,0.3,0.1c0,0,0.1-0.1,0.1-0.1c0.5-1.1,1.3-2.1,2.4-2.7l-0.3-0.1c0.2,1.5,0.2,2.9-0.6,4.2
		c-0.1,0.2,0.1,0.4,0.3,0.3c0.3-0.1,0.6-0.3,0.8-0.4C15.1,12.2,14.9,11.8,14.7,11.9z"/>
	<path class="st0" d="M11,12.7c0.8,2.1,1,2.5,2.4,4.2c0.1,0.1,0.2,0.1,0.3,0c0.1-0.1,0.1-0.2,0-0.3l0,0c-1.4-1.7-1.5-2.1-2.3-4.1
		C11.3,12.2,10.9,12.4,11,12.7z"/>
	<path class="st0" d="M17.8,21.8c-0.2,0.1-0.4,0.1-0.5,0.2c0.2-0.3,0.3-0.6,0.4-0.9c0.1-0.5,0.1-1.1,0-1.6v0c-0.6,0.3-1,0.8-1.4,1.3
		c-0.1,0.1-0.1,0.2-0.2,0.3c-0.1-0.1-0.1-0.2-0.2-0.3c-0.5-0.7-1.1-1.4-1.8-2.1c-0.1,1,0,2,0.3,2.9l0.1,0.2
		c-0.1-0.1-0.3-0.1-0.5-0.2c-0.5-0.1-1.1-0.1-1.6,0h0c0.3,0.6,0.8,1.1,1.3,1.4c0.2,0.1,0.5,0.2,0.8,0.3c-0.1,0.1-0.3,0.1-0.4,0.2
		c-0.4,0.3-0.8,0.7-1.1,1.2h0c0.5,0,0.9-0.1,1.4-0.2c0.4-0.1,0.8-0.4,1.1-0.7c0.2-0.2,0.4-0.4,0.6-0.7l0,0c0.3,0,0.6,0,0.9,0
		c0.4,0,0.9-0.2,1.3-0.4c0.4-0.3,0.7-0.6,1-0.9v0C18.8,21.6,18.3,21.6,17.8,21.8z"/>
	<path class="st0" d="M17.7,21.6c-0.2,0.1-0.3,0.1-0.5,0.2l0.2,0.2c0.4-0.8,0.6-1.8,0.4-2.7c0-0.1-0.1-0.1-0.1-0.1c0,0,0,0,0,0
		c-0.7,0.4-1.3,1-1.6,1.7h0.2c-0.5-0.9-1.2-1.7-1.9-2.4c0-0.1-0.1-0.1-0.2,0c0,0,0,0.1,0,0.1c-0.1,1.1,0,2.2,0.3,3.2l0.2-0.2
		c-0.7-0.2-1.5-0.3-2.2-0.2c-0.1,0-0.1,0.1-0.1,0.1c0,0,0,0,0,0c0.4,0.9,1.2,1.5,2.2,1.8l0-0.2c-0.6,0.3-1.2,0.8-1.5,1.4
		c0,0.1,0,0.1,0,0.2c0,0,0.1,0,0.1,0c0.7,0,1.4-0.1,2.1-0.5c0.4-0.3,0.8-0.7,1.1-1.1c0.1-0.1,0-0.2-0.1-0.2l0,0l0.1,0.2l0,0L16.1,23
		l0,0c0,0.1,0,0.1,0,0.2c0,0,0,0,0.1,0c0.5,0,1.1,0,1.6-0.1c0.7-0.3,1.3-0.7,1.7-1.3c0.1,0,0.1-0.1,0-0.2c0,0,0,0-0.1,0
		C18.8,21.5,18.3,21.5,17.7,21.6c-0.1,0-0.1,0.3,0.1,0.2c0.5-0.1,1.1-0.1,1.6,0l-0.1-0.2c-0.4,0.5-0.9,0.9-1.5,1.2
		c-0.5,0.2-1.1,0.2-1.6,0.2l0.1,0.2l0,0c0.1-0.1-0.1-0.3-0.2-0.2l0,0c-0.1,0-0.1,0.1,0,0.2c0,0,0,0,0.1,0l0,0L16.1,23
		c-0.3,0.4-0.7,0.8-1.1,1.1c-0.6,0.3-1.2,0.4-1.9,0.4l0.1,0.2c0.3-0.6,0.8-1,1.3-1.3c0.1,0,0.1-0.1,0.1-0.2c0,0-0.1-0.1-0.1-0.1
		c-0.9-0.2-1.6-0.8-2-1.6l-0.1,0.2c0.7-0.1,1.4,0,2.1,0.2c0.1,0,0.1,0,0.2-0.1c0,0,0-0.1,0-0.1c-0.3-1-0.4-2-0.3-3.1l-0.2,0.1
		c0.7,0.7,1.4,1.5,1.9,2.3c0,0.1,0.1,0.1,0.2,0.1c0,0,0.1,0,0.1-0.1c0.3-0.7,0.8-1.2,1.5-1.6l-0.2-0.1c0.2,0.9,0,1.8-0.4,2.5
		c-0.1,0.1,0,0.2,0.2,0.2c0.2-0.1,0.3-0.2,0.5-0.2C18,21.8,17.9,21.6,17.7,21.6z"/>
	<path class="st0" d="M15.5,22c0.3,0.9,0.7,1.8,1.4,2.6c0.1,0.1,0.3,0,0.2-0.2c-0.6-0.7-1.1-1.6-1.3-2.5
		C15.7,21.8,15.5,21.9,15.5,22L15.5,22z"/>
	<path class="st0" d="M11.1,29.8c0,0.2-0.1,0.4-0.1,0.6c-0.2-0.3-0.4-0.6-0.7-0.9c-0.5-0.4-1-0.7-1.5-0.9H8.8c0,0.7,0.1,1.4,0.4,2
		c0.1,0.1,0.1,0.2,0.2,0.3H9.1c-1,0.1-1.9,0.2-2.9,0.5c0.8,0.7,1.8,1.1,2.9,1.4c0.1,0,0.1,0,0.2,0C9.2,32.9,9,33,8.9,33.2
		c-0.4,0.4-0.7,0.9-0.9,1.5v0c0.7,0,1.4-0.1,2-0.4c0.3-0.1,0.5-0.3,0.7-0.6c0,0.1,0,0.3,0,0.4c0,0.6,0.2,1.1,0.5,1.6l0,0
		c0.3-0.4,0.5-0.9,0.6-1.4c0.1-0.5,0.1-1,0-1.4c-0.1-0.3-0.2-0.6-0.3-0.9l0,0c0.2-0.3,0.3-0.5,0.5-0.8c0.2-0.5,0.4-1,0.4-1.5
		c0-0.5-0.1-1-0.2-1.5v0C11.6,28.7,11.3,29.2,11.1,29.8z"/>
	<path class="st0" d="M11,29.8c0,0.2-0.1,0.4-0.1,0.6h0.3c-0.5-0.9-1.3-1.5-2.3-1.9c-0.1,0-0.2,0-0.2,0.1c0,0,0,0,0,0
		c-0.1,0.9,0.2,1.7,0.7,2.4l0.1-0.2c-1.1,0-2.2,0.1-3.3,0.5c-0.1,0-0.1,0.1-0.1,0.2c0,0,0,0.1,0,0.1c0.9,0.7,2,1.2,3.1,1.4l-0.1-0.2
		c-0.6,0.5-1.1,1.2-1.4,1.9c0,0.1,0,0.1,0.1,0.2c0,0,0,0,0,0c1.1,0.1,2.1-0.3,2.8-1l-0.2-0.1c-0.1,0.8,0.1,1.5,0.5,2.2
		c0,0.1,0.1,0.1,0.2,0.1c0,0,0,0,0.1-0.1c0.4-0.6,0.6-1.4,0.7-2.2c0-0.6-0.2-1.1-0.4-1.7c0-0.1-0.2-0.1-0.2,0l0,0l0.2,0.1l0,0
		l-0.3,0.1l0,0c0,0.1,0.1,0.1,0.2,0c0,0,0,0,0,0c0.3-0.5,0.6-1,0.8-1.5c0.1-0.8,0.1-1.5-0.2-2.3c0-0.1-0.1-0.1-0.2-0.1
		c0,0-0.1,0-0.1,0.1C11.4,28.7,11.1,29.2,11,29.8c-0.1,0.2,0.2,0.3,0.2,0.1c0.2-0.5,0.5-1,0.9-1.5l-0.2-0.1c0.2,0.7,0.3,1.4,0.2,2
		c-0.1,0.5-0.4,1.1-0.7,1.5h0.2l0,0c-0.1-0.1-0.3-0.1-0.3,0.1l0,0c0,0.1,0.1,0.1,0.2,0.1c0,0,0.1,0,0.1,0l0,0h-0.2
		c0.2,0.5,0.4,1.1,0.4,1.7c-0.1,0.7-0.3,1.4-0.7,1.9h0.2c-0.4-0.6-0.5-1.3-0.5-2c0-0.1-0.1-0.1-0.1-0.1c0,0-0.1,0-0.1,0
		c-0.7,0.7-1.7,1-2.6,0.9l0.1,0.2c0.3-0.7,0.8-1.3,1.3-1.8c0.1,0,0.1-0.1,0-0.2c0,0-0.1,0-0.1,0c-1.1-0.2-2.1-0.7-3-1.4l-0.1,0.2
		c1-0.3,2.1-0.5,3.2-0.4c0.1,0,0.1,0,0.1-0.1c0,0,0-0.1,0-0.1C9.2,30.2,9,29.4,9,28.6l-0.2,0.1c0.9,0.3,1.6,1,2.1,1.8
		c0.1,0.1,0.2,0.1,0.3,0c0-0.2,0-0.4,0.1-0.6C11.3,29.6,11,29.6,11,29.8z"/>
	<path class="st0" d="M10.1,32c1,0.3,2.1,0.3,3.1,0.1c0.2,0,0.1-0.3,0-0.3c-1,0.2-2.1,0.1-3.1-0.1C10,31.7,10,32,10.1,32z"/>
	<path class="st0" d="M15.2,35.1c0.1,0.1,0.3,0.1,0.4,0.2c-0.3,0-0.5,0.1-0.8,0.3c-0.4,0.3-0.7,0.6-1,0.9l0,0c0.5,0.2,1,0.2,1.6,0.1
		c0.1,0,0.2-0.1,0.3-0.1c0,0.1-0.1,0.2-0.1,0.3c-0.2,0.7-0.2,1.5-0.3,2.2c0.7-0.5,1.2-1.1,1.6-1.8c0,0,0-0.1,0.1-0.1
		c0,0.1,0.1,0.3,0.2,0.4c0.2,0.4,0.5,0.7,0.9,1l0,0c0.2-0.5,0.2-1.1,0.1-1.6c0-0.2-0.1-0.5-0.3-0.7c0.1,0,0.2,0.1,0.3,0.1
		c0.4,0.1,0.9,0.1,1.3,0l0,0c-0.3-0.3-0.6-0.5-0.9-0.7c-0.3-0.2-0.7-0.3-1.1-0.3c-0.2,0-0.5,0-0.7,0l0,0c-0.2-0.2-0.3-0.4-0.5-0.5
		c-0.3-0.3-0.6-0.4-1-0.5c-0.4-0.1-0.8-0.1-1.2-0.1h0C14.5,34.5,14.8,34.8,15.2,35.1z"/>
	<path class="st0" d="M15.1,35.2c0.1,0.1,0.3,0.1,0.4,0.2v-0.2c-0.8,0.2-1.4,0.6-1.9,1.3c0,0,0,0.1,0,0.1c0,0,0,0,0,0
		c0.6,0.2,1.3,0.2,1.9,0l-0.1-0.1c-0.2,0.8-0.4,1.7-0.4,2.5c0,0.1,0,0.1,0.1,0.1c0,0,0.1,0,0.1,0c0.7-0.5,1.3-1.2,1.7-2h-0.2
		c0.3,0.6,0.7,1.1,1.1,1.4c0,0,0.1,0,0.1,0c0,0,0,0,0,0c0.3-0.8,0.2-1.6-0.2-2.3l-0.1,0.2c0.5,0.2,1.1,0.2,1.7,0.1
		c0.1,0,0.1-0.1,0.1-0.1c0,0,0,0,0-0.1c-0.4-0.4-0.9-0.8-1.4-1c-0.4-0.1-0.9-0.1-1.3-0.1c-0.1,0-0.1,0.1-0.1,0.2l0,0l0.1-0.2l0,0
		v0.2l0,0c0.1,0,0.1-0.1,0.1-0.1c0,0,0,0,0,0c-0.3-0.3-0.6-0.6-1-0.9c-0.5-0.3-1.1-0.4-1.7-0.3c-0.1,0-0.1,0-0.1,0.1c0,0,0,0,0,0.1
		C14.4,34.5,14.7,34.9,15.1,35.2c0.1,0.1,0.2-0.1,0.1-0.2c-0.4-0.2-0.7-0.6-0.9-1l-0.1,0.2c0.5,0,1.1,0.1,1.6,0.3
		c0.4,0.2,0.7,0.5,1,0.9l0.1-0.2l0,0c-0.1,0-0.1,0-0.1,0.1c0,0.1,0,0.1,0.1,0.1l0,0c0.1,0,0.1,0,0.1-0.1c0,0,0-0.1,0-0.1l0,0
		l-0.1,0.2c0.4-0.1,0.9,0,1.3,0.1c0.5,0.2,0.9,0.5,1.3,0.9l0-0.2c-0.5,0.1-1.1,0.1-1.6-0.1c-0.1,0-0.2,0.1-0.1,0.2
		c0.3,0.7,0.4,1.4,0.1,2.1l0.2,0c-0.5-0.4-0.8-0.8-1.1-1.3C17.1,37,17,37,17,37c0,0,0,0-0.1,0.1c-0.4,0.8-1,1.4-1.7,1.9l0.2,0.1
		c0-0.8,0.1-1.7,0.4-2.5c0-0.1,0-0.1-0.1-0.1c0,0,0,0-0.1,0c-0.6,0.2-1.2,0.2-1.8,0l0,0.2c0.4-0.6,1.1-1,1.8-1.2
		c0.1,0,0.1-0.1,0.1-0.1c0,0,0-0.1-0.1-0.1c-0.1-0.1-0.3-0.1-0.4-0.2C15.1,34.9,15,35.1,15.1,35.2z"/>
	<path class="st0" d="M16.6,36.3c0.4-0.7,0.7-1.5,0.8-2.3c0-0.1-0.1-0.1-0.1-0.1c0,0-0.1,0-0.1,0.1c-0.1,0.8-0.3,1.6-0.8,2.2
		C16.4,36.3,16.6,36.4,16.6,36.3L16.6,36.3z"/>
	<path class="st0" d="M18.3,27c0.1,0.1,0.2,0.1,0.3,0.1c-0.2,0-0.3,0.1-0.5,0.2c-0.2,0.2-0.5,0.4-0.7,0.6l0,0c0.3,0.1,0.7,0.1,1,0.1
		l0.2-0.1L18.5,28c-0.1,0.5-0.2,1-0.2,1.4c0.4-0.3,0.8-0.7,1-1.2l0-0.1c0,0.1,0.1,0.2,0.1,0.2c0.2,0.2,0.3,0.5,0.6,0.7l0,0
		c0.1-0.3,0.1-0.7,0.1-1c0-0.1-0.1-0.3-0.2-0.4c0.1,0,0.1,0.1,0.2,0.1c0.3,0.1,0.6,0.1,0.9,0l0,0c-0.2-0.2-0.4-0.3-0.6-0.5
		c-0.2-0.1-0.4-0.2-0.7-0.2c-0.2,0-0.3,0-0.5,0l0,0c-0.2-0.2-0.2-0.2-0.3-0.3c-0.2-0.2-0.4-0.3-0.6-0.3c-0.2-0.1-0.5-0.1-0.7-0.1
		l0,0C17.9,26.6,18.1,26.8,18.3,27z"/>
	<path class="st0" d="M18.3,27c0.1,0,0.2,0.1,0.3,0.1V27c-0.5,0.1-0.9,0.4-1.2,0.8c0,0,0,0.1,0,0.1c0.4,0.1,0.8,0.1,1.3,0l-0.1-0.1
		c-0.2,0.5-0.2,1.1-0.2,1.6c0,0,0,0.1,0.1,0.1c0,0,0,0,0,0c0.5-0.3,0.8-0.8,1.1-1.3h-0.1c0.2,0.4,0.4,0.7,0.7,0.9c0,0,0.1,0,0.1,0
		c0,0,0,0,0,0c0.2-0.5,0.2-1-0.1-1.5l-0.1,0.1c0.3,0.1,0.7,0.1,1.1,0c0,0,0-0.1,0-0.1c0,0,0,0,0,0c-0.2-0.3-0.6-0.5-0.9-0.6
		c-0.3,0-0.5-0.1-0.8,0c0,0-0.1,0-0.1,0.1c0,0,0,0,0,0l0,0l0.1-0.1l0,0v0.1l0,0c0,0,0.1-0.1,0-0.1c-0.2-0.2-0.4-0.4-0.6-0.6
		c-0.3-0.2-0.7-0.2-1.1-0.2c0,0-0.1,0-0.1,0.1c0,0,0,0,0,0C17.8,26.6,18,26.8,18.3,27c0.1,0,0.2-0.1,0.1-0.1
		c-0.2-0.2-0.4-0.4-0.6-0.6l-0.1,0.1c0.3,0,0.7,0,1,0.2c0.3,0.1,0.5,0.3,0.7,0.6l0-0.1l0,0c-0.1,0-0.1,0.1,0,0.1l0,0
		c0,0,0.1,0,0.1-0.1c0,0,0,0,0,0l0,0l0,0.1c0.3,0,0.6,0,0.9,0c0.3,0.1,0.6,0.3,0.8,0.6v-0.1c-0.4,0.1-0.7,0.1-1.1,0
		c-0.1,0-0.1,0.1-0.1,0.1c0.2,0.4,0.3,0.9,0.1,1.4h0.1c-0.3-0.2-0.5-0.5-0.7-0.9c0,0-0.1,0-0.1,0c0,0,0,0,0,0
		c-0.3,0.5-0.6,0.9-1.1,1.2l0.1,0.1c0-0.5,0.1-1.1,0.2-1.6c0,0,0-0.1,0-0.1c0,0,0,0,0,0c-0.4,0.1-0.8,0.1-1.2-0.1v0.1
		c0.3-0.4,0.7-0.7,1.2-0.8c0.1,0,0.1-0.1,0-0.1c-0.1,0-0.2-0.1-0.3-0.1C18.3,26.9,18.2,27,18.3,27z"/>
	<path class="st0" d="M19.2,27.7c0.3-0.4,0.4-1,0.5-1.5c0,0,0-0.1-0.1,0c0,0,0,0,0,0c-0.1,0.5-0.2,1-0.5,1.4
		C19.1,27.8,19.2,27.8,19.2,27.7L19.2,27.7z"/>
	<path class="st0" d="M34.9,19.2L34.9,19.2c0,0.8,0.1,1.5,0.4,2.2c0.2,0.7,0.6,1.2,1.1,1.7c0.4,0.3,0.7,0.6,1.1,0.9l0,0
		c0,0.5,0,0.9,0,1.4c0.1,0.7,0.3,1.4,0.7,2c0.4,0.6,0.9,1.1,1.5,1.6l0.1,0c0.2-0.8,0.2-1.7-0.1-2.5c-0.1-0.2-0.2-0.4-0.3-0.6
		c0.4,0.2,0.8,0.3,1.2,0.4c1,0.1,2-0.1,3-0.5h-0.1c-0.6-0.6-1.3-1.1-2-1.5C41.3,24.1,41,24,40.8,24l0.2-0.2c1.3-0.9,2.4-2,3.2-3.3
		c-1.4,0.1-2.8,0.4-4.2,0.8l-0.5,0.2c0.1-0.2,0.1-0.4,0.1-0.6c0.1-1,0-2-0.4-2.9L39.3,18c-0.6,0.6-1.1,1.3-1.6,2
		c-0.2,0.5-0.4,1-0.4,1.5c-0.1-0.2-0.3-0.5-0.4-0.7C36.3,20.1,35.7,19.6,34.9,19.2z"/>
	<path class="st0" d="M37,20.7c0.2,0.2,0.3,0.5,0.4,0.8l-0.4,0.1c0.2-1.5,1.1-2.6,2.1-3.7c0.1-0.1,0.2-0.1,0.3,0c0,0,0,0,0,0
		c0.5,1.2,0.6,2.4,0.3,3.7l-0.3-0.2c1.5-0.6,3.1-0.9,4.7-1c0.1,0,0.2,0,0.2,0.2c0,0,0,0.1,0,0.1c-0.9,1.4-2.1,2.6-3.5,3.5l0-0.3
		c1.1,0.4,2.1,1.1,2.9,1.9c0.1,0.1,0.1,0.2,0,0.3c0,0,0,0,0,0c-1.4,0.6-3,0.6-4.4,0l0.3-0.3c0.5,1,0.6,2.1,0.4,3.2
		c0,0.1-0.1,0.2-0.2,0.2c0,0-0.1,0-0.1-0.1c-0.9-0.7-1.6-1.6-2-2.6c-0.2-0.8-0.3-1.7-0.3-2.5c0-0.2,0.2-0.2,0.3-0.1l0,0L37.3,24l0,0
		h0.4l0,0c0,0.1-0.2,0.2-0.3,0.1c-0.7-0.5-1.3-1.1-1.8-1.7c-0.6-1-0.8-2.1-0.8-3.2c0-0.1,0.1-0.2,0.2-0.2c0,0,0.1,0,0.1,0
		C35.8,19.4,36.5,20,37,20.7c0.1,0.2-0.2,0.4-0.3,0.2c-0.5-0.7-1.1-1.2-1.9-1.6l0.3-0.2c0,1,0.2,2,0.7,2.9c0.5,0.7,1.1,1.3,1.8,1.8
		L37.3,24l0,0c0-0.2,0.3-0.3,0.4,0l0,0c0,0.1-0.1,0.2-0.2,0.2c0,0-0.1,0-0.1,0l0,0l0.3-0.1c-0.1,0.8,0.1,1.7,0.3,2.5
		c0.4,0.9,1.1,1.7,1.9,2.3L39.6,29c0.2-1,0.1-2.1-0.3-3c-0.1-0.2,0.1-0.3,0.3-0.2c1.3,0.6,2.7,0.5,4,0L43.4,26
		c-0.7-0.8-1.7-1.4-2.7-1.8c-0.1,0-0.1-0.2-0.1-0.3c0,0,0.1-0.1,0.1-0.1c1.4-0.9,2.5-2,3.3-3.4l0.2,0.3c-1.6,0.1-3.1,0.4-4.6,1
		c-0.1,0.1-0.2,0-0.3-0.1c0,0,0-0.1,0-0.2c0.3-1.1,0.2-2.3-0.3-3.3l0.3,0.1c-1,1-1.8,2-2,3.5c0,0.1-0.1,0.2-0.2,0.2
		c-0.1,0-0.1,0-0.2-0.1c-0.1-0.3-0.3-0.5-0.4-0.8C36.5,20.7,36.9,20.5,37,20.7z"/>
	<path class="st0" d="M39.3,23.4c-1.3,0.9-2.7,1.5-4.2,1.8c-0.1,0-0.2,0-0.2-0.2c0-0.1,0-0.2,0.2-0.2c1.5-0.3,2.9-0.8,4.1-1.7
		C39.3,22.9,39.5,23.2,39.3,23.4L39.3,23.4z"/>
	<path class="st0" d="M27.1,12.1L27.1,12.1c0.6,0.6,1.1,1.2,1.8,1.6c0.6,0.4,1.4,0.6,2.1,0.7c0.5,0,1,0,1.5,0l0,0
		c0.3,0.4,0.6,0.8,0.9,1.1c0.5,0.5,1.2,0.9,1.9,1.2c0.7,0.2,1.5,0.3,2.3,0.4h0.1c-0.4-0.8-1-1.5-1.7-2c-0.2-0.1-0.4-0.2-0.6-0.3
		c0.5-0.1,0.9-0.2,1.3-0.5c0.9-0.6,1.7-1.4,2.2-2.3h-0.1c-0.9-0.1-1.8-0.1-2.7,0c-0.3,0.1-0.5,0.1-0.8,0.2c0-0.1,0.1-0.2,0.1-0.3
		c0.5-1.6,0.7-3.2,0.5-4.9c-1.1,1-2.1,2.2-3,3.4c-0.1,0.2-0.2,0.3-0.3,0.5c-0.1-0.2-0.2-0.4-0.3-0.6c-0.5-0.9-1.3-1.7-2.3-2.2v0.1
		c-0.1,0.9-0.1,1.8,0,2.7c0.1,0.6,0.3,1.1,0.6,1.6c-0.3-0.2-0.5-0.3-0.8-0.4C28.9,12,28,11.9,27.1,12.1z"/>
	<path class="st0" d="M29.9,12c0.3,0.1,0.6,0.2,0.9,0.4l-0.3,0.3c-0.8-1.4-0.8-3-0.7-4.6C29.8,8,29.9,8,30,8c0,0,0,0,0,0
		c1.2,0.6,2.1,1.7,2.6,2.9h-0.4c0.9-1.5,2-2.8,3.3-4c0.1-0.1,0.2-0.1,0.3,0C36,7,36,7,36,7.1c0.2,1.8-0.1,3.6-0.7,5.3l-0.3-0.3
		c1.2-0.4,2.5-0.5,3.7-0.3c0.1,0,0.2,0.1,0.2,0.2c0,0,0,0,0,0.1c-0.9,1.4-2,2.6-3.7,2.9l0.1-0.4c1.1,0.5,1.9,1.4,2.5,2.5
		c0.1,0.1,0,0.2-0.1,0.3c0,0-0.1,0-0.1,0c-1.2,0-2.4-0.3-3.4-0.9c-0.7-0.5-1.4-1.2-1.9-1.9c-0.1-0.1,0-0.3,0.2-0.3l0,0l-0.1,0.4l0,0
		l0.3-0.3l0,0c0.1,0.1,0,0.3-0.2,0.3c-0.9,0.1-1.8,0-2.7-0.3c-1.1-0.5-2.1-1.2-2.8-2.1c-0.1-0.1-0.1-0.2,0-0.3c0,0,0.1-0.1,0.1-0.1
		C28,11.7,28.9,11.8,29.9,12c0.2,0.1,0.1,0.5-0.1,0.4c-0.9-0.2-1.8-0.3-2.6-0.1l0.1-0.4c0.7,0.9,1.5,1.5,2.5,2
		c0.9,0.3,1.8,0.4,2.7,0.3l-0.2,0.3l0,0c-0.1-0.2,0.1-0.4,0.3-0.3l0,0c0.1,0.1,0.1,0.2,0,0.3c0,0-0.1,0.1-0.1,0.1l0,0l0.2-0.3
		c0.5,0.7,1.2,1.4,1.9,1.9c1,0.5,2,0.7,3.1,0.7l-0.2,0.3c-0.5-1-1.3-1.8-2.3-2.3c-0.1,0-0.1-0.2-0.1-0.3c0-0.1,0.1-0.1,0.2-0.1
		c1.4-0.4,2.7-1.4,3.3-2.7l0.1,0.3c-1.2-0.2-2.4-0.1-3.5,0.3c-0.1,0-0.2,0-0.3-0.1c0-0.1,0-0.1,0-0.2c0.6-1.6,0.8-3.4,0.6-5.1
		L36,7.2c-1.3,1.1-2.4,2.4-3.3,3.9c0,0.1-0.2,0.2-0.3,0.1c0,0-0.1-0.1-0.1-0.1C31.9,9.9,31,9,29.9,8.4l0.3-0.2
		c-0.2,1.5-0.2,2.9,0.6,4.2c0.1,0.2-0.1,0.4-0.3,0.3c-0.3-0.1-0.6-0.3-0.8-0.4C29.5,12.3,29.6,11.9,29.9,12z"/>
	<path class="st0" d="M33.5,12.8c-0.8,2.1-1,2.5-2.4,4.2c-0.1,0.1-0.2,0.1-0.3,0c-0.1-0.1-0.1-0.2,0-0.3c1.4-1.7,1.5-2.1,2.3-4.1
		C33.2,12.3,33.6,12.5,33.5,12.8z"/>
	<g>
		<path class="st0" d="M16.7,9.2L16.7,9.2c0.8,0.3,1.6,0.6,2.4,0.7c0.8,0.1,1.6,0,2.3-0.3c0.5-0.2,0.9-0.4,1.4-0.6l0,0
			c0.4,0.2,0.9,0.5,1.4,0.7c0.7,0.3,1.5,0.4,2.3,0.3c0.8-0.1,1.6-0.3,2.3-0.7h0.1c-0.7-0.6-1.6-1-2.5-1.2c-0.2,0-0.5,0-0.7,0
			c0.4-0.3,0.8-0.6,1-1c0.6-1,1-2.1,1-3.2h-0.1c-0.9,0.3-1.8,0.7-2.6,1.2c-0.2,0.2-0.4,0.4-0.6,0.6c0-0.1,0-0.2,0-0.3
			c-0.2-1.7-0.8-3.4-1.7-4.8c-0.6,1.5-1.1,3-1.3,4.6c0,0.2,0,0.4,0,0.6c-0.2-0.2-0.3-0.3-0.5-0.4c-0.9-0.6-2-1-3.1-1.1v0.1
			C18,5.2,18.4,6.1,19,6.9c0.3,0.5,0.8,0.9,1.3,1.2c-0.3,0-0.6,0-1,0C18.3,8.2,17.4,8.6,16.7,9.2z"/>
		<path class="st0" d="M19.3,7.9c0.3,0,0.6,0,1,0l-0.1,0.4c-1.4-1-2.1-2.4-2.6-4c0-0.1,0-0.2,0.2-0.3c0,0,0,0,0.1,0
			c1.4,0.1,2.7,0.6,3.8,1.6l-0.4,0.2c0.2-1.8,0.7-3.6,1.4-5.2c0-0.1,0.1-0.2,0.3-0.2c0.1,0,0.1,0.1,0.1,0.1c1,1.6,1.6,3.5,1.7,5.4
			l-0.4-0.2c1-0.9,2.1-1.5,3.3-1.9c0.1,0,0.2,0,0.3,0.2c0,0,0,0,0,0.1c-0.2,1.8-0.8,3.3-2.2,4.4l-0.1-0.5c1.2,0,2.4,0.5,3.4,1.3
			c0.1,0.1,0.1,0.2,0.1,0.3c0,0-0.1,0.1-0.1,0.1c-1.1,0.5-2.4,0.8-3.6,0.7c-0.9-0.2-1.8-0.5-2.6-1c-0.2-0.1-0.1-0.3,0-0.4l0,0l0,0.4
			l0,0l0.2-0.4l0,0C23,8.9,23,9.1,23,9.2c0,0,0,0.1-0.1,0.1c-0.8,0.5-1.7,0.8-2.7,0.9c-1.3,0.1-2.5-0.2-3.6-0.8
			c-0.1,0-0.2-0.2-0.1-0.3c0,0,0-0.1,0.1-0.1C17.3,8.4,18.2,8.1,19.3,7.9c0.2,0,0.3,0.4,0.1,0.4c-0.9,0.2-1.8,0.5-2.5,1.1l0-0.4
			c1,0.5,2.1,0.8,3.3,0.8c0.9-0.1,1.8-0.4,2.7-0.9v0.4l0,0c-0.2-0.1-0.1-0.5,0.2-0.4l0,0C23,8.9,23,9,23,9.2c0,0,0,0.1-0.1,0.1l0,0
			V8.9c0.8,0.5,1.7,0.8,2.7,0.9c1.1,0,2.3-0.2,3.3-0.7l-0.1,0.4c-0.9-0.7-2-1.1-3.2-1.2c-0.1,0-0.2-0.1-0.2-0.2c0-0.1,0-0.1,0.1-0.2
			c1.2-1,1.9-2.5,2-4l0.3,0.2c-1.2,0.3-2.3,0.9-3.2,1.8c-0.1,0.1-0.2,0.1-0.3,0c0,0-0.1-0.1-0.1-0.1c-0.2-1.8-0.7-3.6-1.7-5.1
			l0.4-0.1c-0.7,1.6-1.2,3.4-1.3,5.1c0,0.1-0.1,0.2-0.2,0.2c-0.1,0-0.1,0-0.2-0.1c-1-0.9-2.2-1.4-3.5-1.5l0.2-0.3
			C18.4,5.6,19,7,20.4,7.9c0.2,0.1,0.1,0.4-0.1,0.4c-0.3,0-0.7,0-1,0C19,8.3,19,7.9,19.3,7.9z"/>
	</g>
	<path class="st0" d="M25.6,21.8L25.6,21.8c0.3,0.4,0.7,0.7,1,0.9c0.4,0.2,0.8,0.4,1.3,0.4c0.3,0,0.6,0,0.9,0l0,0
		c0.2,0.2,0.4,0.5,0.6,0.7c0.3,0.3,0.7,0.6,1.1,0.7c0.5,0.1,0.9,0.2,1.4,0.2h0c-0.3-0.5-0.6-0.9-1.1-1.2c-0.1-0.1-0.2-0.1-0.4-0.2
		c0.3-0.1,0.5-0.1,0.8-0.3c0.6-0.3,1-0.8,1.3-1.4h0c-0.5-0.1-1.1-0.1-1.6,0c-0.2,0-0.3,0.1-0.5,0.1l0.1-0.2c0.3-1,0.4-2,0.3-2.9
		c-0.7,0.6-1.2,1.3-1.8,2.1c-0.1,0.1-0.1,0.2-0.2,0.3c0-0.1-0.1-0.2-0.2-0.3c-0.3-0.5-0.8-1-1.4-1.3v0c-0.1,0.5-0.1,1.1,0,1.6
		c0.1,0.3,0.2,0.6,0.4,0.9c-0.2-0.1-0.3-0.2-0.5-0.2C26.6,21.7,26.1,21.7,25.6,21.8z"/>
	<path class="st0" d="M27.2,21.8c0.2,0.1,0.3,0.1,0.5,0.2l-0.2,0.2c-0.4-0.8-0.6-1.8-0.4-2.7c0-0.1,0.1-0.1,0.1-0.1c0,0,0,0,0,0
		c0.7,0.4,1.3,1,1.6,1.7h-0.2c0.5-0.9,1.2-1.7,1.9-2.4c0-0.1,0.1-0.1,0.2,0c0,0,0,0,0,0.1c0.1,1.1,0,2.2-0.3,3.2l-0.2-0.2
		c0.7-0.2,1.5-0.3,2.2-0.2c0.1,0,0.1,0.1,0.1,0.1c0,0,0,0,0,0c-0.4,0.9-1.2,1.5-2.2,1.8l0-0.2c0.6,0.3,1.1,0.8,1.5,1.5
		c0,0.1,0,0.1,0,0.2c0,0-0.1,0-0.1,0c-0.7,0-1.4-0.1-2.1-0.5c-0.4-0.3-0.8-0.7-1.1-1.1c0-0.1,0-0.1,0-0.2c0,0,0,0,0.1,0l0,0
		l-0.1,0.2l0,0l0.2-0.2l0,0c0,0.1,0,0.2-0.1,0.2c-0.5,0-1.1,0-1.6-0.1c-0.7-0.3-1.3-0.7-1.7-1.3c-0.1,0-0.1-0.1,0-0.2
		c0,0,0.1,0,0.1,0C26.1,21.6,26.7,21.6,27.2,21.8c0.1,0,0.1,0.3-0.1,0.2c-0.5-0.1-1.1-0.1-1.6,0l0.1-0.2c0.4,0.5,0.9,0.9,1.5,1.2
		c0.5,0.2,1.1,0.2,1.6,0.2l-0.1,0.2l0,0c-0.1-0.1,0.1-0.3,0.2-0.2l0,0c0.1,0,0.1,0.1,0,0.2c0,0-0.1,0-0.1,0l0,0l0.1-0.2
		c0.3,0.4,0.7,0.8,1.2,1.1c0.6,0.3,1.2,0.4,1.9,0.4l-0.1,0.2c-0.3-0.6-0.8-1-1.4-1.3c-0.1,0-0.1-0.1-0.1-0.2c0,0,0.1-0.1,0.1-0.1
		c0.9-0.2,1.6-0.8,2-1.6l0.1,0.2c-0.7-0.1-1.4,0-2.1,0.2c-0.1,0-0.1,0-0.2-0.1c0,0,0-0.1,0-0.1c0.3-1,0.4-2,0.3-3.1l0.2,0.1
		c-0.7,0.7-1.4,1.5-1.9,2.3c0,0.1-0.1,0.1-0.2,0.1c0,0-0.1,0-0.1-0.1c-0.3-0.7-0.8-1.2-1.5-1.6l0.2-0.1c-0.2,0.9,0,1.8,0.4,2.5
		c0.1,0.1,0,0.2-0.2,0.2c-0.2-0.1-0.3-0.2-0.5-0.2C27,21.9,27.1,21.7,27.2,21.8z"/>
	<path class="st0" d="M29.5,22.1c-0.3,0.9-0.7,1.8-1.4,2.6c-0.1,0.1-0.3,0-0.2-0.2c0.6-0.7,1.1-1.6,1.3-2.5
		C29.3,21.9,29.5,22,29.5,22.1L29.5,22.1z"/>
	<path class="st0" d="M32.7,28.3L32.7,28.3c-0.2,0.5-0.2,1-0.3,1.5c0,0.5,0.1,1,0.3,1.4c0.1,0.3,0.3,0.5,0.5,0.8l0,0
		c-0.1,0.3-0.2,0.6-0.3,0.9c-0.1,0.5-0.1,1,0,1.4c0.1,0.5,0.3,0.9,0.6,1.4l0,0c0.3-0.5,0.5-1.1,0.5-1.6c0-0.1,0-0.3,0-0.4
		c0.2,0.2,0.4,0.4,0.7,0.6c0.6,0.3,1.3,0.5,2,0.4v0c-0.2-0.5-0.5-1-0.9-1.4c-0.1-0.1-0.2-0.2-0.4-0.3c0.1,0,0.1,0,0.2,0
		c1-0.2,2-0.7,2.9-1.4c-0.9-0.3-1.9-0.4-2.9-0.5c-0.1,0-0.3,0-0.4,0c0.1-0.1,0.2-0.2,0.2-0.3c0.3-0.6,0.5-1.3,0.4-2h0
		c-0.5,0.2-1,0.6-1.5,0.9c-0.3,0.2-0.5,0.5-0.7,0.9c0-0.2,0-0.4-0.1-0.6C33.4,29.2,33.1,28.7,32.7,28.3z"/>
	<path class="st0" d="M33.7,29.8c0,0.2,0.1,0.4,0.1,0.6h-0.3c0.5-0.9,1.3-1.5,2.3-1.9c0.1,0,0.1,0,0.2,0.1c0,0,0,0,0,0
		c0.1,0.9-0.2,1.7-0.7,2.4l-0.1-0.2c1.1,0,2.2,0.1,3.3,0.5c0.1,0,0.1,0.1,0.1,0.1c0,0,0,0.1-0.1,0.1c-0.9,0.7-2,1.2-3.1,1.4l0.1-0.2
		c0.6,0.5,1.1,1.2,1.4,1.9c0,0.1,0,0.1-0.1,0.2c0,0,0,0,0,0c-1.1,0.1-2.1-0.3-2.8-1l0.2-0.1c0.1,0.8-0.1,1.5-0.5,2.2
		c0,0.1-0.1,0.1-0.2,0.1c0,0,0,0-0.1-0.1c-0.4-0.6-0.6-1.4-0.7-2.2c0-0.6,0.2-1.1,0.4-1.7c0-0.1,0.2-0.1,0.2,0l0,0L33.1,32l0,0
		l0.3,0.1l0,0c0,0.1-0.1,0.1-0.2,0c0,0,0,0,0,0c-0.3-0.5-0.6-1-0.8-1.5c-0.1-0.8-0.1-1.5,0.2-2.3c0-0.1,0.1-0.1,0.2-0.1
		c0,0,0.1,0,0.1,0.1C33.2,28.6,33.5,29.2,33.7,29.8c0,0.1-0.2,0.2-0.3,0.1c-0.2-0.5-0.5-1-0.9-1.5l0.2-0.1c-0.2,0.7-0.3,1.4-0.2,2
		c0.2,0.6,0.4,1.1,0.7,1.6h-0.2l0,0c0.1-0.1,0.3-0.1,0.3,0.1l0,0c0,0.1-0.1,0.1-0.2,0.1c0,0-0.1,0-0.1,0l0,0h0.2
		c-0.2,0.5-0.4,1.1-0.4,1.7c0.1,0.7,0.3,1.4,0.7,1.9h-0.2c0.4-0.6,0.5-1.3,0.5-2c0-0.1,0-0.1,0.1-0.2c0.1,0,0.1,0,0.1,0.1
		c0.7,0.7,1.6,1,2.6,0.9l-0.1,0.2c-0.3-0.7-0.8-1.3-1.3-1.8c-0.1,0-0.1-0.1,0-0.2c0,0,0.1,0,0.1,0c1.1-0.2,2.1-0.7,3-1.4l0.1,0.2
		c-1-0.3-2.1-0.5-3.2-0.4c-0.1,0-0.1,0-0.1-0.1c0,0,0-0.1,0-0.1c0.5-0.7,0.7-1.4,0.6-2.2l0.2,0.1c-0.9,0.3-1.6,1-2.1,1.8
		c-0.1,0.1-0.3,0.1-0.3,0c0-0.2,0-0.4-0.1-0.6C33.4,29.6,33.6,29.6,33.7,29.8z"/>
	<path class="st0" d="M34.5,32c-1,0.3-2.1,0.3-3.1,0.1c-0.2,0-0.1-0.3,0-0.3c1,0.2,2.1,0.1,3.1-0.1C34.7,31.7,34.7,32,34.5,32
		L34.5,32z"/>
	<path class="st0" d="M30.4,34.1L30.4,34.1c-0.4,0-0.8,0-1.2,0.1c-0.4,0.1-0.7,0.3-1,0.5c-0.2,0.2-0.3,0.3-0.5,0.5l0,0
		c-0.2,0-0.5,0-0.7,0c-0.4,0-0.7,0.1-1.1,0.3c-0.3,0.2-0.6,0.4-0.9,0.7l0,0c0.4,0.1,0.9,0.1,1.3,0c0.1,0,0.2,0,0.3-0.1
		c-0.1,0.2-0.2,0.4-0.3,0.7c-0.1,0.5-0.1,1.1,0.1,1.6l0,0c0.3-0.3,0.6-0.6,0.9-1c0.1-0.1,0.1-0.2,0.2-0.4l0.1,0.1
		c0.4,0.7,1,1.3,1.6,1.8c0-0.7-0.1-1.5-0.3-2.2c0-0.1-0.1-0.2-0.1-0.3c0.1,0,0.2,0.1,0.3,0.1c0.5,0.1,1.1,0,1.6-0.2l0,0
		c-0.3-0.3-0.6-0.7-1-0.9c-0.2-0.1-0.5-0.2-0.8-0.3c0.1,0,0.3-0.1,0.4-0.2C29.9,34.9,30.2,34.5,30.4,34.1z"/>
	<path class="st0" d="M29.5,35.2c-0.1,0.1-0.3,0.1-0.4,0.2v-0.2c0.8,0.2,1.4,0.6,1.9,1.3c0,0,0,0.1,0,0.1c0,0,0,0,0,0
		c-0.6,0.2-1.3,0.2-1.9,0l0.1-0.1c0.2,0.8,0.4,1.7,0.4,2.5c0,0.1,0,0.1-0.1,0.1c0,0-0.1,0-0.1,0c-0.7-0.5-1.3-1.2-1.7-2h0.2
		c-0.3,0.6-0.7,1.1-1.1,1.4c0,0-0.1,0-0.1,0c0,0,0,0,0,0c-0.3-0.8-0.2-1.6,0.1-2.3l0.1,0.2c-0.5,0.2-1.1,0.2-1.7,0.1
		c-0.1,0-0.1-0.1-0.1-0.1c0,0,0,0,0-0.1c0.4-0.4,0.9-0.8,1.4-1c0.4-0.1,0.9-0.1,1.3-0.1c0.1,0,0.1,0.1,0.1,0.2l0,0l-0.1-0.2l0,0v0.2
		l0,0c-0.1,0-0.1-0.1-0.1-0.1c0,0,0,0,0,0c0.3-0.3,0.6-0.6,1-0.9c0.5-0.3,1.1-0.4,1.7-0.3c0.1,0,0.1,0,0.1,0.1c0,0,0,0,0,0.1
		C30.3,34.5,30,34.9,29.5,35.2c-0.1,0.1-0.2-0.1-0.1-0.2c0.4-0.2,0.7-0.6,0.9-1l0.1,0.2c-0.5,0-1.1,0.1-1.6,0.3
		c-0.4,0.2-0.7,0.5-1,0.9l-0.1-0.2l0,0c0.1,0,0.1,0,0.1,0.1c0,0.1,0,0.1-0.1,0.1l0,0c-0.1,0-0.1,0-0.1-0.1c0,0,0,0,0-0.1l0,0
		l0.1,0.2c-0.4-0.1-0.9,0-1.3,0.1c-0.5,0.2-0.9,0.5-1.3,0.9l-0.1-0.2c0.5,0.1,1.1,0.1,1.6-0.1c0.1,0,0.1,0,0.1,0.1c0,0,0,0.1,0,0.1
		c-0.3,0.7-0.4,1.4-0.1,2.1l-0.2,0c0.5-0.4,0.8-0.8,1.1-1.3c0-0.1,0.1-0.1,0.1-0.1c0,0,0,0,0.1,0.1c0.4,0.7,1,1.4,1.7,1.9L29.3,39
		c0-0.8-0.1-1.7-0.4-2.5c0-0.1,0-0.1,0-0.1c0,0,0.1,0,0.1,0c0.6,0.2,1.2,0.2,1.8,0l0,0.2c-0.4-0.6-1.1-1-1.8-1.2
		c-0.1,0-0.1-0.2,0-0.2c0.1-0.1,0.3-0.1,0.4-0.2C29.6,34.9,29.7,35.1,29.5,35.2z"/>
	<path class="st0" d="M28.1,36.3c-0.4-0.7-0.7-1.5-0.8-2.3c0-0.1,0-0.1,0.1-0.1c0.1,0,0.1,0,0.1,0.1c0,0,0,0,0,0
		c0.1,0.8,0.3,1.6,0.8,2.2C28.3,36.3,28.1,36.4,28.1,36.3L28.1,36.3z"/>
	<path class="st0" d="M27.3,26.2L27.3,26.2c-0.2,0-0.5,0-0.7,0.1c-0.2,0.1-0.4,0.2-0.6,0.3c-0.1,0.1-0.1,0.2-0.3,0.3l0,0
		c-0.2,0-0.3,0-0.5,0c-0.2,0-0.5,0.1-0.7,0.2c-0.2,0.1-0.4,0.3-0.6,0.5l0,0c0.3,0.1,0.6,0.1,0.9,0c0.1,0,0.1,0,0.2-0.1
		c-0.1,0.1-0.1,0.3-0.2,0.4c-0.1,0.3,0,0.7,0.1,1l0,0c0.2-0.2,0.4-0.4,0.6-0.7c0-0.1,0.1-0.2,0.1-0.2l0,0.1c0.3,0.5,0.6,0.9,1.1,1.2
		c0-0.5-0.1-1-0.2-1.4c0-0.1,0-0.1-0.1-0.2l0.2,0.1c0.3,0.1,0.7,0,1-0.1l0,0c-0.2-0.2-0.4-0.4-0.7-0.6c-0.2-0.1-0.3-0.2-0.5-0.2
		c0.1,0,0.2-0.1,0.3-0.1C26.9,26.7,27.1,26.4,27.3,26.2z"/>
	<path class="st0" d="M26.7,26.9c-0.1,0-0.2,0.1-0.3,0.1v-0.1c0.5,0.1,0.9,0.4,1.2,0.8c0,0,0,0.1,0,0.1c-0.4,0.1-0.8,0.1-1.2,0
		l0.1-0.1c0.2,0.5,0.2,1.1,0.2,1.6c0,0,0,0.1-0.1,0.1c0,0,0,0,0,0c-0.5-0.3-0.9-0.8-1.2-1.3h0.1c-0.2,0.4-0.4,0.7-0.7,0.9
		c0,0-0.1,0-0.1,0c-0.2-0.5-0.2-1,0.1-1.5l0.1,0.1c-0.4,0.1-0.7,0.2-1.1,0.1c0,0,0-0.1,0-0.1c0,0,0,0,0,0c0.2-0.3,0.6-0.5,0.9-0.6
		c0.3-0.1,0.6-0.1,0.9,0c0,0,0.1,0,0.1,0.1c0,0,0,0,0,0l0,0l-0.1-0.1l0,0V27l0,0c0,0-0.1,0-0.1-0.1c0,0,0,0,0,0
		c0.2-0.2,0.4-0.4,0.6-0.6c0.3-0.2,0.7-0.2,1.1-0.2c0,0,0.1,0,0.1,0.1c0,0,0,0,0,0C27.2,26.5,27,26.7,26.7,26.9
		C26.7,27,26.6,26.9,26.7,26.9c0.2-0.2,0.4-0.4,0.5-0.7l0.1,0.1c-0.3,0-0.7,0-1,0.2c-0.2,0.2-0.5,0.3-0.6,0.6l0-0.1l0,0
		c0.1,0,0.1,0.1,0,0.1l0,0c0,0-0.1,0-0.1-0.1c0,0,0,0,0,0l0,0l0,0.1c-0.3,0-0.6,0-0.9,0c-0.3,0.1-0.6,0.3-0.8,0.6v-0.1
		c0.3,0.1,0.7,0.1,1,0c0.1,0,0.1,0.1,0.1,0.1c-0.2,0.4-0.2,0.9-0.1,1.3h-0.1c0.3-0.2,0.5-0.5,0.7-0.9c0-0.1,0.1,0,0.1,0
		c0.3,0.5,0.6,0.9,1.1,1.2l-0.1,0.1c0-0.5-0.1-1.1-0.2-1.6c0,0,0-0.1,0-0.1c0,0,0,0,0,0c0.4,0.1,0.8,0.1,1.2,0v0.1
		c-0.3-0.4-0.7-0.6-1.1-0.8c-0.1,0-0.1-0.1,0-0.1C26.6,26.9,26.7,26.9,26.7,26.9C26.7,26.7,26.8,26.8,26.7,26.9z"/>
	<path class="st0" d="M25.7,27.6c-0.3-0.4-0.4-1-0.5-1.5c0-0.1,0.1-0.1,0.1,0c0,0.5,0.2,1,0.5,1.4C25.9,27.6,25.8,27.7,25.7,27.6
		L25.7,27.6z"/>
</g>
</svg>
