<?xml version="1.0" encoding="utf-8"?>
<!-- Generator: Adobe Illustrator 26.0.1, SVG Export Plug-In . SVG Version: 6.00 Build 0)  -->
<svg version="1.1" id="Camada_1" xmlns="http://www.w3.org/2000/svg" xmlns:xlink="http://www.w3.org/1999/xlink" x="0px" y="0px"
	 viewBox="0 0 34.5 35.8" style="enable-background:new 0 0 34.5 35.8;" xml:space="preserve">
<style type="text/css">
	.st0{fill:#FFFFFF;}
</style>
<g>
	<path class="st0" d="M2.1,17.9L2.2,18c1.3,1.6,2.8,2.9,4.5,4.1c1.6,1,3.5,1.7,5.5,1.8c1.3,0.1,2.5,0.1,3.8,0l0,0c0.7,1,1.6,2,2.4,3
		c1.3,1.4,3,2.5,4.8,3.1c2,0.6,4,0.9,6,0.9h0.2c-1.1-2.1-2.6-4-4.6-5.4c-0.5-0.3-1-0.6-1.6-0.9c1.2-0.2,2.3-0.6,3.4-1.2
		c2.4-1.5,4.4-3.5,5.8-6h-0.2c-2.3-0.3-4.7-0.3-7.1,0.1c-0.7,0.1-1.4,0.4-2,0.6l0.3-0.8c1.4-4.1,1.9-8.5,1.4-12.8
		c-1.9,1.9-6,5.8-7.8,8.8c-0.3,0.5-0.5,0.9-0.8,1.4c-0.2-0.5-0.4-1-0.7-1.5C14.2,11,12.2,9,9.7,7.6c0,0.1,0,0.1,0,0.2
		c-0.3,2.4-0.3,4.8,0,7.1c0.3,1.4,0.8,2.8,1.6,4.1c-0.7-0.4-1.4-0.7-2.2-1C6.8,17.4,4.4,17.4,2.1,17.9z"/>
	<path class="st0" d="M9.3,17.6c0.8,0.3,1.5,0.6,2.2,1l-0.7,0.8c-2.2-3.7-2.1-7.7-1.7-11.8c0.1-0.3,0.3-0.5,0.6-0.4c0,0,0.1,0,0.1,0
		c3,1.8,5.6,4.2,6.8,7.5h-1c2.2-4,5.4-7.2,8.6-10.3c0.2-0.2,0.5-0.2,0.8,0c0.1,0.1,0.2,0.2,0.2,0.4c0.5,4.6-0.1,9.3-1.7,13.7
		L23,17.7c3.1-1.2,6.4-1,9.6-0.7c0.3,0.1,0.5,0.3,0.4,0.6c0,0,0,0.1,0,0.1c-2.3,3.7-5.2,6.7-9.6,7.5l0.2-1c2.7,1.4,4.9,3.6,6.3,6.4
		c0.2,0.3,0.1,0.6-0.2,0.8c-0.1,0.1-0.2,0.1-0.4,0.1c-3.1-0.2-6.2-0.5-8.9-2.2c-1.9-1.4-3.5-3.1-4.9-5c-0.3-0.3,0-0.8,0.4-0.8l0,0
		l-0.3,1l0,0l0.8-0.7l0,0c0.2,0.3,0,0.9-0.4,0.8c-2.3,0.2-4.7-0.1-6.9-0.7c-3-1-5.2-3.2-7.3-5.5c-0.2-0.2-0.3-0.5-0.1-0.8
		c0.1-0.1,0.2-0.2,0.4-0.2c2.4-0.5,4.8-0.4,7.1,0.2c0.7,0.2,0.5,1.3-0.2,1.1C6.8,18,4.4,18,2.1,18.4l0.3-1c1.9,2.1,3.8,4.2,6.5,5.2
		c2.3,0.9,4.5,0.8,6.9,0.8l-0.4,0.8l0,0c-0.3-0.5,0.3-1.2,0.8-0.7l0,0c0.2,0.2,0.3,0.5,0.1,0.8c-0.1,0.1-0.3,0.2-0.5,0.2l0,0
		l0.4-0.8c1.5,1.9,2.8,3.7,4.9,4.9c2.5,1.4,5.3,1.7,8.1,1.8c-0.2,0.3-0.4,0.6-0.5,0.8c-1.3-2.6-3.3-4.7-5.9-6
		c-0.3-0.2-0.3-0.5-0.2-0.8c0.1-0.1,0.2-0.2,0.4-0.2c3.9-0.8,6.7-3.6,8.7-6.9l0.4,0.8c-3-0.3-6.1-0.5-9,0.7
		c-0.5,0.2-0.8-0.3-0.7-0.7c1.5-4.2,2.1-8.8,1.6-13.2l0.9,0.3c-3.1,3.1-6.3,6.2-8.5,10.1c-0.1,0.3-0.4,0.4-0.7,0.3
		c-0.1-0.1-0.2-0.2-0.3-0.3c-1.2-3.1-3.6-5.2-6.3-6.9l0.8-0.4c-0.4,3.9-0.5,7.6,1.5,11c0.3,0.4-0.2,1.1-0.7,0.8
		c-0.7-0.4-1.4-0.7-2.2-1C8.2,18.3,8.7,17.4,9.3,17.6z"/>
	<path class="st0" d="M18.8,19.5c-2.1,5.4-2.5,6.6-6.2,11c-0.5,0.5-1.3-0.2-0.8-0.7c3.7-4.3,4-5.5,6.1-10.8
		C18.1,18.3,19.1,18.8,18.8,19.5L18.8,19.5z"/>
</g>
</svg>
