<svg id="Camada_1" data-name="Camada 1" xmlns="http://www.w3.org/2000/svg" viewBox="0 0 106 110"><path d="M35.69,58.26l.13.13a23.26,23.26,0,0,0,4.45,4.1,12.37,12.37,0,0,0,5.45,1.85,36.73,36.73,0,0,0,3.81,0h0a35.48,35.48,0,0,0,2.41,3,12.39,12.39,0,0,0,4.84,3.11,23.63,23.63,0,0,0,6,.92H63A14.63,14.63,0,0,0,58.42,66a10.86,10.86,0,0,0-1.57-.87,11.2,11.2,0,0,0,3.4-1.2,16.32,16.32,0,0,0,5.77-6l-.22,0a24.94,24.94,0,0,0-7.07.08,11.17,11.17,0,0,0-2,.62l.27-.75A30,30,0,0,0,58.4,45.09c-1.93,1.91-6,5.8-7.77,8.81-.26.45-.52.9-.76,1.37a10.63,10.63,0,0,0-.66-1.51A15.63,15.63,0,0,0,43.3,48a1.8,1.8,0,0,1,0,.22,25.12,25.12,0,0,0,0,7.14,11.53,11.53,0,0,0,1.61,4.07,11.14,11.14,0,0,0-2.2-1A14.53,14.53,0,0,0,35.69,58.26Z"/><path d="M42.92,58a14,14,0,0,1,2.2,1l-.69.8c-2.19-3.68-2.1-7.67-1.66-11.83a.55.55,0,0,1,.77-.4c3,1.85,5.56,4.17,6.84,7.55l-1,0c2.15-4,5.43-7.15,8.61-10.3a.54.54,0,0,1,.94.31A31.14,31.14,0,0,1,57.2,58.83l-.66-.74c3.09-1.19,6.36-1,9.58-.7a.54.54,0,0,1,.38.77c-2.3,3.73-5.25,6.66-9.61,7.55l.2-1a14.45,14.45,0,0,1,6.3,6.38.56.56,0,0,1-.54.85c-3.11-.18-6.23-.52-8.89-2.24a21,21,0,0,1-4.88-5c-.28-.34.05-.79.41-.85h0l-.32,1h0l.81-.72h0c.18.32,0,.86-.41.85a21.07,21.07,0,0,1-6.94-.7c-3-1-5.22-3.24-7.29-5.55a.56.56,0,0,1,.31-1,15.89,15.89,0,0,1,7.13.22c.66.19.47,1.26-.2,1.07a15.23,15.23,0,0,0-6.85-.2l.32-1c1.87,2.08,3.85,4.19,6.51,5.21,2.28.86,4.54.78,6.93.79l-.41.85h0c-.29-.51.33-1.15.8-.72h0a.55.55,0,0,1-.32,1h0l.41-.85c1.49,1.86,2.84,3.68,4.94,4.92,2.45,1.44,5.34,1.68,8.13,1.84-.19.28-.37.57-.55.85a13.55,13.55,0,0,0-5.89-6,.55.55,0,0,1,.2-1c3.94-.81,6.66-3.59,8.72-6.94l.39.77c-3-.29-6.11-.47-9,.65-.47.18-.81-.33-.66-.74a30,30,0,0,0,1.63-13.24l.94.31c-3.11,3.08-6.35,6.16-8.45,10.06a.54.54,0,0,1-1,0c-1.17-3.1-3.56-5.24-6.29-6.94l.76-.4c-.41,3.87-.54,7.61,1.5,11,.26.43-.19,1.07-.69.8a13.53,13.53,0,0,0-2.2-1C41.79,58.73,42.27,57.74,42.92,58Z"/><path d="M52.42,59.86c-2.09,5.38-2.52,6.62-6.23,11-.46.53-1.26-.18-.81-.72,3.65-4.33,4-5.48,6.07-10.76.25-.66,1.22-.19,1,.46Z"/></svg>